<svg id="face-sq-f_1" data-name="face-sq-f_1" xmlns="http://www.w3.org/2000/svg" xmlns:xlink="http://www.w3.org/1999/xlink" viewBox="0 0 270 270"><defs><style>.cls-1{fill:none;}.cls-2{clip-path:url(#clip-path);}.cls-3{fill:#292d33;}.cls-4{fill:#f9dfa9;}.cls-5{fill:#eace95;}.cls-6{fill:#ffe8b9;}.cls-7{fill:#e5ebec;}.cls-8{fill:#1bbb9c;}.cls-9{fill:#19ad90;}.cls-10{fill:#14937b;}.cls-11{fill:#148c76;}</style><clipPath id="clip-path"><rect id="SVGID" class="cls-1" x="1" y="1" width="268" height="268" rx="60"/></clipPath></defs><g class="cls-2"><path class="cls-3" d="M89.18,130c10.95,17.06-7,26.61-19.52,42.55C59.21,185.82,58.11,210.14,74,216c38.88,14.34,76.8,20.27,120.25-.5,14.11-6.75,12.75-32-1-45.2-12.66-12.17-22.13-26.66-10.77-42.21C156.25,104.35,89.18,130,89.18,130Z"/><path class="cls-4" d="M153.23,162c-.61,7.86.23,27.17,2.34,57.49H114.43c1.44-22.45,2.91-47.27,2.34-57.49Z"/><path class="cls-5" d="M153.23,162c-.22,10-.2,17.44.56,29-14.33-2.74-27.6-12.19-37-23.74V162Z"/><path class="cls-6" d="M181.61,107.43c0,22.36-29.42,68.26-46.63,68.26s-46.63-43.24-46.63-68.26c0-30.36,20.88-55,46.63-55S181.61,77.07,181.61,107.43Z"/><path class="cls-7" d="M153.79,225.06H116.21V183.5c.05,13.2,37.5,12.69,37.58,0Z"/><path class="cls-8" d="M208.58,270H61.42s3.56-50.9,8.16-57.32c8-11.07,33.83-19.64,46.78-22.58,4.93,10.87,21.38,10,19,10,0,0,15.48-1.51,18.71-10,0,0,36.74,10.53,46.6,24.23C205.27,220.75,208.58,270,208.58,270Z"/><path class="cls-9" d="M208.58,270H135.2l.16-69.88h0s12.2,0,18.71-10c0,0,36.74,10.53,46.6,24.23C205.27,220.75,208.58,270,208.58,270Z"/><path class="cls-10" d="M153.09,170.12c0,2.84.34,13.38.34,13.38-3.76,6.6-8.24,9.71-18.45,9.71-11.24,0-15.23-3.11-18.51-9.71,0,0,.41-10.54.41-13.38-12.62,0-20.38,13.64-20.38,23.86,0,31.08,7.37,63,38.78,63,30.4,0,38.19-31.94,38.19-63C173.47,183.76,165.7,170.12,153.09,170.12Z"/><path class="cls-10" d="M116.74,175.87l-.27-.52s.09-2.4.19-5.22h.21C116.87,171.23,116.81,173.5,116.74,175.87Z"/><path class="cls-10" d="M153.19,175.76c-.06-2.33-.11-4.55-.11-5.64h.18c.09,2.82.17,5.22.17,5.22Z"/><path class="cls-11" d="M173.46,194c0,31.08-7.78,63-38.18,63-31.42,0-38.79-31.94-38.79-63a20.18,20.18,0,0,1,.1-2c1,29,9.33,56.9,38.69,56.9,28.41,0,37.06-27.89,38.08-56.91A20.38,20.38,0,0,1,173.46,194Z"/><path class="cls-6" d="M104.25,116.29c.27,8.42-4.41,15.4-10.45,15.6s-11-10.11-11.22-18.53,4.2-11.77,10.24-12S104,107.87,104.25,116.29Z"/><path class="cls-4" d="M165.72,116.29c-.27,8.42,4.4,15.4,10.44,15.6s11-10.11,11.23-18.53-4.2-11.77-10.24-12S166,107.87,165.72,116.29Z"/><path class="cls-4" d="M181.61,107.43c0,22.36-29.42,68.26-46.63,68.26V52.46C160.73,52.46,181.61,77.07,181.61,107.43Z"/><path class="cls-3" d="M134,44.25c-22,0-52.5,17.42-51,51,.16,3.58.5,6.14,1.11,10.68,2-2.31,2.7-2.85,4.41-3.72,4.31-.82,5.52,3,4.9,5.29a8.38,8.38,0,0,0,3.08,0c18.8-2.16,31.68-12.32,38.49-28.67,3.07,15.75,16.34,25.66,39.64,28.27a8.92,8.92,0,0,0,1.93.17c-.92-1.92,1.36-5.44,3.27-5.44,2.93,0,4.18,1.65,5.9,3.92,0,0,1.34-2.53,1.68-8.63C189.36,61.08,161,44.25,134,44.25Z"/></g></svg>