<svg id="face-sq-h_1" data-name="face-sq-h_1" xmlns="http://www.w3.org/2000/svg" xmlns:xlink="http://www.w3.org/1999/xlink" viewBox="0 0 270 270"><defs><style>.cls-1{fill:none;}.cls-2{clip-path:url(#clip-path);}.cls-3{fill:#f9dfa9;}.cls-4{fill:#eace95;}.cls-5{fill:#ffe8b9;}.cls-6{fill:#e5ebec;}.cls-7{fill:#1bbb9c;}.cls-8{fill:#f9f9f9;}.cls-9{fill:#1ab294;}.cls-10{fill:#574a48;}</style><clipPath id="clip-path"><rect id="SVGID" class="cls-1" x="1" y="1" width="268" height="268" rx="60"/></clipPath></defs><g class="cls-2"><rect class="cls-3" x="115.57" y="166.97" width="41.13" height="52.49"/><path class="cls-4" d="M156.7,167v24a72.34,72.34,0,0,1-41.13-22.38V167Z"/><path class="cls-5" d="M182.75,107.43c0,30.36-20.88,68.26-46.63,68.26s-46.63-37.9-46.63-68.26,20.88-55,46.63-55S182.75,77.07,182.75,107.43Z"/><path class="cls-6" d="M156.7,225.06H115.57V183.5c.05,13.2,41,12.69,41.13,0Z"/><path class="cls-3" d="M182.75,107.43c0,30.36-20.88,68.26-46.63,68.26V52.46C161.87,52.46,182.75,77.07,182.75,107.43Z"/><path class="cls-7" d="M221.3,270H50.93s5.52-50.9,10.75-57.32a26.63,26.63,0,0,1,5.1-4.61c15.49-11,48.79-18,48.79-18,.17,11.24,10.36,16.85,20.57,16.85s20.39-5.61,20.56-16.85c0,0,42.67,8.88,53.85,22.58C215.79,219.1,221.3,270,221.3,270Z"/><path class="cls-8" d="M115.57,182.46c5.39,7.09,9.32,10.18,20.55,10.48l-15.19,17.83-7-16.85Z"/><path class="cls-9" d="M221.3,270H136.14V207c10.19,0,20.39-5.61,20.56-16.85,0,0,42.68,8.88,53.86,22.58C215.79,219.1,221.3,270,221.3,270Z"/><path class="cls-8" d="M156.7,182.46c-5.39,7.09-9.35,10.18-20.58,10.48l15.19,17.83,7-16.85Z"/><path class="cls-5" d="M103.64,116.64c0,9.3-4.9,16.84-10.94,16.84s-10.62-11.54-10.62-20.84S86.66,99.79,92.7,99.79,103.64,107.33,103.64,116.64Z"/><path class="cls-3" d="M168.6,116.64c0,9.3,4.9,16.84,10.94,16.84s10.62-11.54,10.62-20.84-4.58-12.85-10.62-12.85S168.6,107.33,168.6,116.64Z"/><path class="cls-10" d="M136.14,42.47c19.65,0,39.89,9.24,46.66,22.75,7.41,14.81,4,37.19,4,37.19a9.65,9.65,0,0,0-4.47-2.33c-2.25-.28-3,17.51-3,17.51H176.8s-1-8.86-3.38-15.11c0,0-3.61-6.51-1.17-10.86s-2.44-20.32-7.47-22.75-8.34,9.55-27.1,13.72a166.92,166.92,0,0,1-36.47,3.65s-1.91,5.56-1,6.6-1.31,9.64-1.31,9.64c-2.34,6.25-3.38,15.11-3.38,15.11H92.86s-.7-17.79-3-17.51a9.65,9.65,0,0,0-4.47,2.33S82.08,80,89.49,65.22C96.25,51.71,116.49,42.47,136.14,42.47Z"/></g></svg>