<svg id="face-sq-h_2" data-name="face-sq-h_2" xmlns="http://www.w3.org/2000/svg" xmlns:xlink="http://www.w3.org/1999/xlink" viewBox="0 0 270 270"><defs><style>.cls-1{fill:none;}.cls-2{clip-path:url(#clip-path);}.cls-3{fill:#f9dfa9;}.cls-4{fill:#eace95;}.cls-5{fill:#ffe8b9;}.cls-6{fill:#2f343b;}.cls-7{fill:#292d33;}.cls-8{fill:#e5ebec;}.cls-9{fill:#415a76;}.cls-10{fill:#3d444d;}.cls-11{fill:#3e5670;}.cls-12{fill:#f4f6f6;}</style><clipPath id="clip-path"><rect id="SVGID" class="cls-1" x="1" y="1" width="268" height="268" rx="60"/></clipPath></defs><g class="cls-2"><rect class="cls-3" x="114.52" y="166.97" width="41.13" height="52.49"/><path class="cls-4" d="M155.65,167v24a72.34,72.34,0,0,1-41.13-22.38V167Z"/><path class="cls-5" d="M181.7,107.43c0,30.36-20.88,68.26-46.63,68.26s-46.63-37.9-46.63-68.26,20.88-55,46.63-55S181.7,77.07,181.7,107.43Z"/><path class="cls-3" d="M181.7,107.43c0,30.36-20.88,68.26-46.63,68.26V52.46C160.82,52.46,181.7,77.07,181.7,107.43Z"/><path class="cls-6" d="M220.25,270H49.89s5.51-50.9,10.74-57.32c11.18-13.7,53.89-22.58,53.89-22.58.18,11.23,10.37,16.85,20.57,16.85s20.39-5.62,20.56-16.85c0,0,42.68,8.88,53.86,22.58C214.74,219.1,220.25,270,220.25,270Z"/><path class="cls-7" d="M220.25,270H135.09V207c10.19,0,20.39-5.62,20.56-16.85,0,0,42.68,8.88,53.86,22.58C214.74,219.1,220.25,270,220.25,270Z"/><path class="cls-8" d="M155.65,234.57l-20.6,21.1-20.53-21.1V183.5c0,13.2,41,12.69,41.13,0Z"/><polygon class="cls-9" points="132.51 209.74 125.26 244.82 135.03 255.64 145.4 244.9 138 209.74 132.51 209.74"/><path class="cls-10" d="M114.52,188.12l-6.6,3.52-6.72,23h11.69l-11,8.07,33.24,34,0-4.17C122.71,230.71,118.87,214.38,114.52,188.12Z"/><path class="cls-10" d="M156.44,188.12l5.78,3.52,6.72,23H157.25l11,8.07-33.24,34,0-4.17C147.43,230.71,152.09,214.38,156.44,188.12Z"/><path class="cls-11" d="M135.1,193.21h15.41L138,209.74h-5.49l-13-16.53Z"/><path class="cls-12" d="M114.52,182.46c5.39,7.09,9.32,10.18,20.55,10.48l-15.19,17.83L114.52,191Z"/><path class="cls-12" d="M155.65,182.46c-5.39,7.09-9.35,10.18-20.58,10.48l15.19,17.83,5.39-20.67Z"/><path class="cls-5" d="M102.59,116.64c0,9.3-4.9,16.84-10.94,16.84S81,121.94,81,112.64s4.58-12.85,10.62-12.85S102.59,107.33,102.59,116.64Z"/><path class="cls-3" d="M167.55,116.64c0,9.3,4.9,16.84,10.94,16.84s10.62-11.54,10.62-20.84-4.58-12.85-10.62-12.85S167.55,107.33,167.55,116.64Z"/><path class="cls-6" d="M135.07,34.83c19.65,0,39.89,9.24,46.66,22.75,7.41,14.81,4.07,44.83,4.07,44.83a9.65,9.65,0,0,0-4.47-2.33c-2.25-.28-3,17.51-3,17.51h-2.62s-1-8.86-3.38-15.11c0,0-4.13-5.79-1.55-10,7.51-12.41-22.9-4.81-40.09-10.89-12-4.25-17.43-16.2-23.57-13.75-13,5.16-13,14.85-8,25,1.82,3.73-1.31,9.64-1.31,9.64-2.34,6.25-3.38,15.11-3.38,15.11H91.81s-.7-17.79-3-17.51a9.65,9.65,0,0,0-4.47,2.33s-3.38-30,4-44.83C95.18,44.07,115.42,34.83,135.07,34.83Z"/><path class="cls-6" d="M154.44,160.75c-2.65,0-3.93-6.51-3.93-6.51s-5.89,9.25-11.75,9.25h-7.47c-5.86,0-11.75-9.25-11.75-9.25s-1.27,6.51-3.92,6.51c-7.3,0-14.42-9.25-14.42-9.25S114,186.34,134.72,187h.61c20.75-.7,33.52-35.54,33.52-35.54S161.73,160.75,154.44,160.75Z"/></g></svg>