<svg id="Face_Icons" data-name="Face Icons" xmlns="http://www.w3.org/2000/svg" xmlns:xlink="http://www.w3.org/1999/xlink" viewBox="0 0 251.21 251.21"><defs><style>.cls-1{fill:none;}.cls-2{clip-path:url(#clip-path);}.cls-3{fill:#f9dfa9;}.cls-4{fill:#eace95;}.cls-5{fill:#ffe8b9;}.cls-6{fill:#2f343b;}.cls-7{fill:#292d33;}.cls-8{fill:#e5ebec;}.cls-9{fill:#415a76;}.cls-10{fill:#3d444d;}.cls-11{fill:#3e5670;}.cls-12{fill:#f4f6f6;}</style><clipPath id="clip-path"><circle id="SVGID" class="cls-1" cx="125.61" cy="125.61" r="125.61"/></clipPath></defs><g class="cls-2"><rect class="cls-3" x="106.46" y="155.22" width="38.32" height="48.9"/><path class="cls-4" d="M144.78,155.22V177.6a67.42,67.42,0,0,1-38.32-20.85v-1.53Z"/><path class="cls-5" d="M169.05,99.75c0,28.28-19.45,63.59-43.44,63.59S82.16,128,82.16,99.75s19.45-51.21,43.45-51.21S169.05,71.47,169.05,99.75Z"/><path class="cls-3" d="M169.05,99.75c0,28.28-19.45,63.59-43.44,63.59V48.54C149.6,48.54,169.05,71.47,169.05,99.75Z"/><path class="cls-6" d="M205,251.21H46.24s5.14-47.42,10-53.4c10.42-12.77,50.21-21,50.21-21,.16,10.47,9.66,15.7,19.17,15.7s19-5.23,19.15-15.7c0,0,39.76,8.27,50.18,21C199.83,203.79,205,251.21,205,251.21Z"/><path class="cls-7" d="M205,251.21H125.63V192.47c9.49,0,19-5.23,19.15-15.7,0,0,39.76,8.27,50.18,21C199.83,203.79,205,251.21,205,251.21Z"/><path class="cls-8" d="M144.78,218.2l-19.19,19.66L106.46,218.2V170.63c0,12.29,38.24,11.82,38.32,0Z"/><polygon class="cls-9" points="123.22 195.07 116.46 227.75 125.56 237.84 135.23 227.83 128.34 195.07 123.22 195.07"/><path class="cls-10" d="M106.46,174.92l-6.14,3.29-6.27,21.42h10.89l-10.28,7.53,31,31.67,0-3.88C114.09,214.61,110.52,199.39,106.46,174.92Z"/><path class="cls-10" d="M145.52,174.92l5.38,3.29,6.26,21.42H146.27l10.28,7.53-31,31.67,0-3.88C137.12,214.61,141.46,199.39,145.52,174.92Z"/><path class="cls-11" d="M125.64,179.67H140l-11.65,15.4h-5.12l-12.08-15.4Z"/><path class="cls-12" d="M106.46,169.66c5,6.59,8.68,9.48,19.15,9.76L111.46,196l-5-18.43Z"/><path class="cls-12" d="M144.78,169.66c-5,6.59-8.71,9.48-19.17,9.76L139.75,196l5-19.26Z"/><path class="cls-5" d="M95.35,108.33c0,8.67-4.57,15.69-10.2,15.69s-9.9-10.75-9.9-19.42,4.27-12,9.9-12S95.35,99.66,95.35,108.33Z"/><path class="cls-3" d="M155.87,108.33c0,8.67,4.56,15.69,10.19,15.69s9.9-10.75,9.9-19.42-4.27-12-9.9-12S155.87,99.66,155.87,108.33Z"/><path class="cls-6" d="M125.61,32.11c18.3,0,37.16,8.61,43.46,21.2,6.91,13.79,3.8,41.76,3.8,41.76a9.08,9.08,0,0,0-4.16-2.17c-2.11-.26-2.76,16.32-2.76,16.32h-2.44a72.44,72.44,0,0,0-3.16-14.08s-3.84-5.39-1.44-9.36c7-11.56-21.33-4.48-37.35-10.14-11.21-4-16.24-15.09-22-12.81-12.1,4.81-12.14,13.83-7.5,23.33,1.7,3.48-1.21,9-1.21,9a72.44,72.44,0,0,0-3.16,14.08H85.3s-.65-16.58-2.76-16.32a9.08,9.08,0,0,0-4.16,2.17s-3.15-28,3.76-41.76C88.44,40.72,107.3,32.11,125.61,32.11Z"/><path class="cls-6" d="M143.65,149.43c-2.47,0-3.66-6.07-3.66-6.07S134.51,152,129,152h-6.95c-5.47,0-11-8.62-11-8.62s-1.19,6.07-3.66,6.07c-6.79,0-13.43-8.62-13.43-8.62s11.9,32.46,31.23,33.11h.57c19.33-.65,31.23-33.11,31.23-33.11S150.44,149.43,143.65,149.43Z"/></g></svg>