<svg id="face-sq-f_3" data-name="face-sq-f_3" xmlns="http://www.w3.org/2000/svg" xmlns:xlink="http://www.w3.org/1999/xlink" viewBox="0 0 270 270"><defs><style>.cls-1{fill:none;}.cls-2{clip-path:url(#clip-path);}.cls-3{fill:#955f3b;}.cls-4{fill:#f9dfa9;}.cls-5{fill:#eace95;}.cls-6{fill:#ffe8b9;}.cls-7{fill:#eb7063;}.cls-8{fill:#dd695d;}.cls-9{fill:#d27d47;}.cls-10{fill:#f07c6c;}.cls-11{fill:#dee4e5;}</style><clipPath id="clip-path"><rect id="SVGID" class="cls-1" x="1" y="1" width="268" height="268" rx="60"/></clipPath></defs><g class="cls-2"><path class="cls-3" d="M170.29,175.69c-2.34-2.07-8.17-7.58-16.84-10.46-11.86-3.94-24.69-5.34-36.22-.52-5.83,2.44-10.53,7.67-12.62,9.79A36.06,36.06,0,0,1,91,146.12c.13-18.62-5.8-41.27-5.71-41.32s67.67-15.26,96.34-.8a123.7,123.7,0,0,0-.87,38C183.46,163.25,170.29,175.69,170.29,175.69Z"/><path class="cls-4" d="M153.45,162c-.61,7.86.23,27.17,2.34,57.49H114.65C116.09,197,117.56,172.19,117,162Z"/><path class="cls-5" d="M153.45,162c-.22,10-.2,17.44.56,29-14.33-2.74-27.6-12.19-37-23.74V162Z"/><path class="cls-6" d="M181.83,107.43c0,22.36-29.41,68.26-46.63,68.26s-46.62-43.24-46.62-68.26c0-30.36,20.87-55,46.62-55S181.83,77.07,181.83,107.43Z"/><path class="cls-7" d="M208.58,270H61.42s3.56-50.9,8.16-57.32c8-11.07,33.83-19.64,46.78-22.58,4.93,10.87,21.38,10,19,10,0,0,15.48-1.51,18.71-10,0,0,36.74,10.53,46.6,24.23C205.27,220.75,208.58,270,208.58,270Z"/><path class="cls-8" d="M208.58,270H135.2l.16-69.88h0s12.2,0,18.71-10c0,0,36.74,10.53,46.6,24.23C205.27,220.75,208.58,270,208.58,270Z"/><path class="cls-6" d="M104.47,116.29c.27,8.42-4.4,15.4-10.44,15.6s-11-10.11-11.23-18.53,4.2-11.77,10.24-12S104.2,107.87,104.47,116.29Z"/><path class="cls-6" d="M165.94,116.29c-.27,8.42,4.4,15.4,10.44,15.6s11-10.11,11.23-18.53-4.2-11.77-10.24-12S166.21,107.87,165.94,116.29Z"/><path class="cls-4" d="M181.83,107.43c0,22.36-29.41,68.26-46.63,68.26V52.46C161,52.46,181.83,77.07,181.83,107.43Z"/><path class="cls-9" d="M116.21,79.25s3,16.75,24.75,22.14c44.26,11,29.33,55.44,29.33,74.3,0,1,14.89-11.69,22.54-34.44,4.65-13.83,4.14-28.69,3-41.5-2.66-30-33.75-49.76-58.12-51.25C112.46,47,84.6,61.49,76,81.5c-11.5,26.76-7.83,70.88,28.61,93-4.28-9.83-7.12-15.5-9.2-42.75C93.3,104.17,116.21,79.25,116.21,79.25Z"/><path class="cls-10" d="M153.66,178.94c-2,3.44-6.24,6.21-18.16,6.23s-16.19-2.79-18.16-6.23c-.74-1.3-3.64-1.61-3.31.06,1.5,4.5,1.69,10,.33,11.1,0,0-.35,11.73,21.14,11.73s21.14-11.73,21.14-11.73c-1.36-1.1-1.17-6.6.33-11.1C157.3,177.33,154.4,177.64,153.66,178.94Z"/><path class="cls-11" d="M108.75,196.08a3.13,3.13,0,0,1,.21-6.24,3.14,3.14,0,0,1-.21,6.24Z"/><path class="cls-11" d="M108.82,202.31a3.12,3.12,0,0,1-.07-6.23,3.13,3.13,0,0,1,.07,6.23Z"/><path class="cls-11" d="M109.13,208.54a3.13,3.13,0,0,1-.31-6.23,3.13,3.13,0,0,1,.31,6.23Z"/><path class="cls-11" d="M109.72,214.75a3.13,3.13,0,0,1-.59-6.21,3.14,3.14,0,0,1,.59,6.21Z"/><path class="cls-11" d="M110.62,220.93a3.13,3.13,0,0,1-.9-6.18,3.14,3.14,0,0,1,.9,6.18Z"/><path class="cls-11" d="M111.92,227a3.13,3.13,0,0,1-1.3-6.1,3,3,0,0,1,3.39,2.46A3,3,0,0,1,111.92,227Z"/><path class="cls-11" d="M113.73,233a3.12,3.12,0,0,1-1.81-6,3.13,3.13,0,0,1,1.81,6Z"/><path class="cls-11" d="M116.18,238.72a2.9,2.9,0,0,1-4-1.7,2.93,2.93,0,0,1,1.5-4,3.14,3.14,0,0,1,2.45,5.73Z"/><path class="cls-11" d="M119.5,244a2.51,2.51,0,0,1-2.17.46,3.15,3.15,0,0,1-2-1.49,2.91,2.91,0,0,1,.88-4.24,3.13,3.13,0,0,1,4,1.19,3.39,3.39,0,0,1,.45,2.15A3,3,0,0,1,119.5,244Z"/><path class="cls-11" d="M124,248.34a2.52,2.52,0,0,1-2,1,3.68,3.68,0,0,1-2.39-1,3.59,3.59,0,0,1-1-2.36,2.48,2.48,0,0,1,1-2,3.12,3.12,0,0,1,4.07.31,2.78,2.78,0,0,1,.91,1.92A3.15,3.15,0,0,1,124,248.34Z"/><path class="cls-11" d="M129.49,251.13a2.45,2.45,0,0,1-1.55,1.6,3.51,3.51,0,0,1-1.28.19,3.58,3.58,0,0,1-1.34-.41,4.11,4.11,0,0,1-1.13-.84,2.78,2.78,0,0,1-.61-1.13,2.45,2.45,0,0,1,.37-2.2,3,3,0,0,1,1.86-1.17,3.7,3.7,0,0,1,1,0,2.62,2.62,0,0,1,1,.27,3.18,3.18,0,0,1,.83.67,3,3,0,0,1,.59.85A3.21,3.21,0,0,1,129.49,251.13Z"/><path class="cls-11" d="M135.64,252c.06,1.63-1.5,2.81-3.49,2.66a3.78,3.78,0,0,1-2.28-1.3,2.43,2.43,0,0,1-.38-2.21,3.21,3.21,0,0,1,1.37-1.72,2.66,2.66,0,0,1,2-.43A3.12,3.12,0,0,1,135.64,252Z"/><path class="cls-11" d="M141.79,251.1a2.85,2.85,0,0,1-2.66,3.47,3.15,3.15,0,0,1-2.48-.62,2.47,2.47,0,0,1-1-2,3,3,0,0,1,.82-2.07,3.35,3.35,0,0,1,1.9-1A3.2,3.2,0,0,1,141.79,251.1Z"/><path class="cls-11" d="M147.41,248.47a2.58,2.58,0,0,1,.32,2.25,3.54,3.54,0,0,1-4.41,2.06,2.6,2.6,0,0,1-1.53-1.68,3,3,0,0,1,.24-2.16,3,3,0,0,1,3.57-1.66A2.92,2.92,0,0,1,147.41,248.47Z"/><path class="cls-11" d="M152,244.23a2.54,2.54,0,0,1,1,2,3.51,3.51,0,0,1-3.52,3.3,2.54,2.54,0,0,1-2-1.1,3.24,3.24,0,0,1,.48-4,3.22,3.22,0,0,1,4.06-.22Z"/><path class="cls-11" d="M155.27,239a2.47,2.47,0,0,1,1.36,1.75,3.23,3.23,0,0,1-.46,2.48,2.88,2.88,0,0,1-4.22,1,3.17,3.17,0,0,1-.63-4.06,3.34,3.34,0,0,1,1.74-1.34A3,3,0,0,1,155.27,239Z"/><path class="cls-11" d="M157.57,233.17a2.93,2.93,0,0,1,1.61,4,3.23,3.23,0,0,1-1.69,1.82,2.58,2.58,0,0,1-2.22,0,3,3,0,0,1-1.45-1.68,3.23,3.23,0,0,1,.05-2.23A3.08,3.08,0,0,1,157.57,233.17Z"/><path class="cls-11" d="M159.14,227.14a3,3,0,0,1,2.07,3.75,3.45,3.45,0,0,1-1.42,2,2.63,2.63,0,0,1-2.22.28,2.84,2.84,0,0,1-1.66-1.45,3.17,3.17,0,0,1,3.23-4.58Z"/><path class="cls-11" d="M160.17,221a3.12,3.12,0,0,1-1,6.15,3.14,3.14,0,0,1,1-6.15Z"/><path class="cls-11" d="M160.81,214.78a3.13,3.13,0,0,1-.64,6.21,3.14,3.14,0,0,1,.64-6.21Z"/><path class="cls-11" d="M161.14,208.56a3.12,3.12,0,0,1-.33,6.22,3.13,3.13,0,0,1,.33-6.22Z"/><path class="cls-11" d="M161.25,202.32a3.13,3.13,0,0,1-.11,6.24,3.13,3.13,0,0,1,.11-6.24Z"/><path class="cls-11" d="M161.22,196.08a3.13,3.13,0,1,1-2.83,3.13A3,3,0,0,1,161.22,196.08Z"/><path class="cls-11" d="M161.17,189.84a3.13,3.13,0,1,1-2.84,3.15A3,3,0,0,1,161.17,189.84Z"/></g></svg>