<svg id="Face_Icons" data-name="Face Icons" xmlns="http://www.w3.org/2000/svg" xmlns:xlink="http://www.w3.org/1999/xlink" viewBox="0 0 251.62 251.21"><defs><style>.cls-1{fill:none;}.cls-2{clip-path:url(#clip-path);}.cls-3{fill:#f9dfa9;}.cls-4{fill:#eace95;}.cls-5{fill:#ffe8b9;}.cls-6{fill:#1bbb9c;}.cls-7{fill:#1ab294;}.cls-8{fill:#2f343b;}.cls-9{clip-path:url(#clip-path-2);}.cls-10{fill:#48c8af;}.cls-11{fill:#44bca4;}</style><clipPath id="clip-path"><circle id="SVGID" class="cls-1" cx="125.61" cy="125.61" r="125.61"/></clipPath><clipPath id="clip-path-2"><path id="SVGID-2" data-name="SVGID" class="cls-1" d="M205.37,251.21H46.65s5.14-47.42,10-53.4a24.61,24.61,0,0,1,4.76-4.3c14.42-10.29,45.44-16.74,45.44-16.74.17,10.47,9.67,15.7,19.17,15.7s19-5.23,19.16-15.7c0,0,39.75,8.27,50.17,21C200.24,203.79,205.37,251.21,205.37,251.21Z"/></clipPath></defs><g class="cls-2"><rect class="cls-3" x="106.87" y="155.22" width="38.32" height="48.9"/><path class="cls-4" d="M145.19,155.22V177.6a67.42,67.42,0,0,1-38.32-20.85v-1.53Z"/><path class="cls-5" d="M169.46,99.75c0,28.28-19.45,63.59-43.45,63.59S82.57,128,82.57,99.75,102,48.54,126,48.54,169.46,71.47,169.46,99.75Z"/><path class="cls-3" d="M169.46,99.75c0,28.28-19.45,63.59-43.45,63.59V48.54C150,48.54,169.46,71.47,169.46,99.75Z"/><path class="cls-6" d="M205.37,251.21H46.65s5.14-47.42,10-53.4a24.61,24.61,0,0,1,4.76-4.3c14.42-10.29,45.44-16.74,45.44-16.74.17,10.47,9.67,15.7,19.17,15.7s19-5.23,19.16-15.7c0,0,39.75,8.27,50.17,21C200.24,203.79,205.37,251.21,205.37,251.21Z"/><path class="cls-7" d="M205.38,251.21H126V192.47c9.5,0,19-5.23,19.16-15.7,0,0,39.76,8.27,50.18,21C200.24,203.79,205.38,251.21,205.38,251.21Z"/><path class="cls-5" d="M95.75,108.33C95.75,117,91.19,124,85.56,124s-9.9-10.75-9.9-19.42,4.27-12,9.9-12S95.75,99.66,95.75,108.33Z"/><path class="cls-3" d="M156.27,108.33c0,8.67,4.57,15.69,10.2,15.69s9.9-10.75,9.9-19.42-4.27-12-9.9-12S156.27,99.66,156.27,108.33Z"/><path class="cls-8" d="M154.33,27.73c-2.13,20-33.39-.33-56.55,10.6C92,41.07,84.48,47.65,80.3,55.16c-7.49,13.48-1.81,39.91-1.81,39.91a9.08,9.08,0,0,1,4.16-2.17c2.1-.26,2.76,16.32,2.76,16.32h2.44A72.9,72.9,0,0,1,91,95.14S94.36,89.07,92.09,85s-.78-17.17,6.5-21.86c7.65-4.94,15.07-2.18,32.08,3.4,14.8,4.85,20.72-3,23.09-.29A20.1,20.1,0,0,1,158.28,80a26.31,26.31,0,0,1-1.16,6c-.85,2.79,2.24,7,3.34,9.16,2.82,5.55,3.16,14.08,3.16,14.08h2.44s.65-16.58,2.75-16.32A9.14,9.14,0,0,1,173,95.07s6.7-24.66-.2-38.46C166.48,44,154.33,27.73,154.33,27.73Z"/><rect class="cls-6" x="152.07" y="230.22" width="31.55" height="5.99"/><g class="cls-9"><rect class="cls-10" x="46.65" y="244" width="79.35" height="7.21"/><rect class="cls-10" x="46.65" y="231.38" width="79.35" height="7.21"/><rect class="cls-10" x="46.65" y="218.75" width="79.35" height="7.21"/><rect class="cls-10" x="46.65" y="206.13" width="79.35" height="7.21"/><rect class="cls-10" x="46.65" y="193.51" width="79.35" height="7.21"/><rect class="cls-10" x="46.65" y="180.89" width="79.35" height="7.21"/><rect class="cls-11" x="126.03" y="244" width="79.35" height="7.21"/><rect class="cls-11" x="126.03" y="231.38" width="79.35" height="7.21"/><rect class="cls-11" x="126.03" y="218.75" width="79.35" height="7.21"/><rect class="cls-11" x="126.03" y="206.13" width="79.35" height="7.21"/><rect class="cls-11" x="126.03" y="193.51" width="79.35" height="7.21"/><rect class="cls-11" x="126.03" y="180.89" width="79.35" height="7.21"/></g><path class="cls-8" d="M145.15,142.54h-4s2.39,8.41-4.55,8.41-4.68-6.63-4.68-6.63l-5.9.32-5.9-.32s2.26,6.63-4.68,6.63-4.55-8.41-4.55-8.41h-4s-2.78,6.26-1.81,12.68,5.49,16,21,16,20-9.63,21-16S145.15,142.54,145.15,142.54Z"/></g></svg>