
<svg id="face-f_2_white" data-name="face-f_2_white" xmlns="http://www.w3.org/2000/svg" xmlns:xlink="http://www.w3.org/1999/xlink" viewBox="0 0 270 270"><defs><style>.cls-1{fill:none;}.cls-2{clip-path:url(#clip-path);}.cls-3{fill:#fff;}.cls-4{fill:#23262b;}.cls-5{fill:#f9dfa9;}.cls-6{fill:#eace95;}.cls-7{fill:#ffe8b9;}.cls-8{fill:#eb7063;}.cls-9{fill:#dd695d;}.cls-10{fill:#292d33;}.cls-11{fill:#ac3c37;}</style><clipPath id="clip-path"><circle id="SVGID" class="cls-1" cx="135" cy="135" r="125.87" transform="translate(-55.92 135) rotate(-45)"/></clipPath></defs><g class="cls-2"><rect class="cls-3" width="270" height="270"/><path class="cls-4" d="M99.69,225.28c39.72,0,66.84.13,75,0,0,0-3.9-20.61-2.77-39.2,1.64-26.92,12-54.19,2.73-80.28-.07,0-51.7-15.26-73.62-.8,0,0-13,10.41-7.37,31C102.74,169,99.69,225.28,99.69,225.28Z"/><path class="cls-5" d="M153.45,162c-.61,7.86.23,27.17,2.34,57.49H114.65C116.09,197,117.56,172.19,117,162Z"/><path class="cls-6" d="M153.45,162c-.22,10-.2,17.44.56,29-14.33-2.74-27.6-12.19-37-23.74V162Z"/><path class="cls-7" d="M181.83,107.43c0,22.36-29.42,68.26-46.63,68.26s-46.63-43.24-46.63-68.26c0-30.36,20.88-55,46.63-55S181.83,77.07,181.83,107.43Z"/><path class="cls-8" d="M208.58,270H61.41s3.56-50.9,8.17-57.32c8-11.07,33.82-19.64,46.78-22.58.17,11.22,9.5,16.84,18.84,16.85h0c9.33,0,18.68-5.62,18.84-16.85,0,0,36.74,10.53,46.6,24.23C205.27,220.75,208.58,270,208.58,270Z"/><path class="cls-9" d="M208.58,270H135.2V207h0c9.33,0,18.68-5.62,18.84-16.85,0,0,36.74,10.53,46.6,24.23C205.27,220.75,208.58,270,208.58,270Z"/><path class="cls-7" d="M104.47,116.29c.27,8.42-4.4,15.4-10.44,15.6s-11-10.11-11.23-18.53,4.2-11.77,10.24-12S104.2,107.87,104.47,116.29Z"/><path class="cls-7" d="M165.94,116.29c-.27,8.42,4.4,15.4,10.44,15.6s11-10.11,11.23-18.53-4.2-11.77-10.24-12S166.21,107.87,165.94,116.29Z"/><path class="cls-5" d="M181.83,107.43c0,22.36-29.42,68.26-46.63,68.26V52.46C161,52.46,181.83,77.07,181.83,107.43Z"/><path class="cls-10" d="M187.62,83.08c-8.39-19.82-27.18-34.79-52.12-33.62-24.94-1.17-45.83,12.3-54.22,32.12-10.17,24-3.75,47.5,6.37,77.88,1,6,4.88,16.31,2.21,49.62-.39,4.91,2,10.38,4.25,14.5-14,24.12,9.17,19.12,6.67,36.12,18.87-18.37-.75-27.24-.08-36.62,1.91-1.83,2.37-11.4,3.08-17.75,2.31-20.75.22-28.75-1-36.33-1.91-11.48-1.77-22-6.42-34.92,7.65-12.49,12.6-37,12.6-37-1.24,4.7,65.18,36.76,66.18,36.76-4.2,13.33-4.91,23.68-6.82,35.16-1.27,7.58-3.36,15.58-1.05,36.33.71,6.35,1.17,15.92,3.08,17.75.67,9.38-19,18.25-.08,36.62-2.5-17,20.63-12,6.67-36.12,2.25-4.12,4.64-9.59,4.25-14.5-2.67-33.31,1.17-43.63,2.21-49.62C188.19,131.57,197.79,107.08,187.62,83.08Z"/><path class="cls-11" d="M169.26,220.94c-1.85.64-1,4.91.67,5q4.15.15,8.31.08a4,4,0,0,0,.17-5.46C175.46,219.33,171.1,220.3,169.26,220.94Z"/><path class="cls-11" d="M91.75,220.94c-1.85.64-1,4.91.67,5q4.15.15,8.32.08a4,4,0,0,0,.17-5.46C98,219.33,93.6,220.3,91.75,220.94Z"/></g></svg>