<svg id="face-sq-h_3" data-name="face-sq-h_3" xmlns="http://www.w3.org/2000/svg" xmlns:xlink="http://www.w3.org/1999/xlink" viewBox="0 0 270 270"><defs><style>.cls-1{fill:none;}.cls-2{clip-path:url(#clip-path);}.cls-3{fill:#f9dfa9;}.cls-4{fill:#eace95;}.cls-5{fill:#ffe8b9;}.cls-6{fill:#eb7063;}.cls-7{fill:#dd695d;}.cls-8{fill:#ecbc6f;}.cls-9{fill:#2f343b;}.cls-10{fill:#d3a863;}</style><clipPath id="clip-path"><rect id="SVGID" class="cls-1" x="1" y="1" width="268" height="268" rx="60"/></clipPath></defs><g class="cls-2"><rect class="cls-3" x="115.57" y="166.97" width="41.13" height="52.49"/><path class="cls-4" d="M156.7,167v24a72.34,72.34,0,0,1-41.13-22.38V167Z"/><path class="cls-5" d="M182.75,107.43c0,30.36-20.88,68.26-46.63,68.26s-46.63-37.9-46.63-68.26,20.88-55,46.63-55S182.75,77.07,182.75,107.43Z"/><path class="cls-3" d="M182.75,107.43c0,30.36-20.88,68.26-46.63,68.26V52.46C161.87,52.46,182.75,77.07,182.75,107.43Z"/><path class="cls-6" d="M221.3,270H50.93s5.52-50.9,10.75-57.32a26.63,26.63,0,0,1,5.1-4.61c15.49-11,48.79-18,48.79-18,.17,11.23,10.36,16.85,20.57,16.85s20.39-5.62,20.56-16.85c0,0,42.67,8.88,53.85,22.58C215.79,219.1,221.3,270,221.3,270Z"/><path class="cls-7" d="M221.3,270H136.14V207c10.19,0,20.39-5.62,20.56-16.85,0,0,42.68,8.88,53.86,22.58C215.79,219.1,221.3,270,221.3,270Z"/><path class="cls-5" d="M103.64,116.64c0,9.3-4.9,16.84-10.94,16.84s-10.62-11.54-10.62-20.84S86.66,99.79,92.7,99.79,103.64,107.33,103.64,116.64Z"/><path class="cls-3" d="M168.6,116.64c0,9.3,4.9,16.84,10.94,16.84s10.62-11.54,10.62-20.84-4.58-12.85-10.62-12.85S168.6,107.33,168.6,116.64Z"/><path class="cls-8" d="M104.93,36.71c-1.68,17.89,60.85-5.87,77.82,22.74,8.45,14.24,4.1,43,4.1,43a9.65,9.65,0,0,0-4.47-2.33c-2.25-.28-3,17.51-3,17.51H176.8s-1-8.86-3.38-15.11c0,0-3.61-6.51-1.17-10.86s-2.44-20.32-7.47-22.75-8.34,9.55-27.1,13.72a166.92,166.92,0,0,1-36.47,3.65s-1.91,5.56-1,6.6-1.31,9.64-1.31,9.64c-2.34,6.25-3.38,15.11-3.38,15.11H92.86s-.7-17.79-3-17.51a9.65,9.65,0,0,0-4.47,2.33S80.77,76.78,88.18,62A145.2,145.2,0,0,1,104.93,36.71Z"/><path class="cls-9" d="M129.13,104.76H105.59a2.3,2.3,0,0,0-2.3,2.3v10a5.23,5.23,0,0,0,5.23,5.22h15.26a7.64,7.64,0,0,0,7.65-7.65v-7.57A2.3,2.3,0,0,0,129.13,104.76Zm-.08,9.87a5.27,5.27,0,0,1-5.27,5.27H108.52a2.85,2.85,0,0,1-2.85-2.84v-10l23.46.07Z"/><path class="cls-9" d="M140.81,107.06v7.57a7.64,7.64,0,0,0,7.65,7.65h15.26a5.23,5.23,0,0,0,5.23-5.22v-10a2.3,2.3,0,0,0-2.3-2.3H143.11A2.3,2.3,0,0,0,140.81,107.06Zm2.3.07,23.46-.07v10a2.85,2.85,0,0,1-2.85,2.84H148.46a5.27,5.27,0,0,1-5.27-5.27Z"/><rect class="cls-6" x="164.08" y="247.47" width="33.87" height="6.43"/><path class="cls-10" d="M113.37,143.22a6.38,6.38,0,0,0,6.37,6.38H131a5,5,0,0,0,5-5v-4.78c-11.31,0-18.62,8.33-22.61,0Z"/><path class="cls-10" d="M158.59,143.22a6.38,6.38,0,0,1-6.38,6.38H141a5,5,0,0,1-5-5v-4.78c11.3,0,18.62,8.33,22.61,0Z"/></g></svg>