<?xml version="1.0" encoding="utf-8"?>
<!-- Generator: Adobe Illustrator 17.1.0, SVG Export Plug-In . SVG Version: 6.00 Build 0)  -->
<!DOCTYPE svg PUBLIC "-//W3C//DTD SVG 1.1//EN" "http://www.w3.org/Graphics/SVG/1.1/DTD/svg11.dtd">
<svg version="1.1" id="Face_App_Icons" xmlns="http://www.w3.org/2000/svg" xmlns:xlink="http://www.w3.org/1999/xlink" x="0px"
	 y="0px" viewBox="0 0 1800 900" enable-background="new 0 0 1800 900" xml:space="preserve">
<g>
	<g>
		<defs>
			<path id="SVGID_71_" d="M1760,814.5c0,33-27,60-60,60h-148c-33,0-60-27-60-60v-148c0-33,27-60,60-60h148c33,0,60,27,60,60V814.5z
				"/>
		</defs>
		<clipPath id="SVGID_2_">
			<use xlink:href="#SVGID_71_"  overflow="visible"/>
		</clipPath>
		<radialGradient id="SVGID_3_" cx="1492.8" cy="604.5" r="380.2484" gradientUnits="userSpaceOnUse">
			<stop  offset="0" style="stop-color:#56626B"/>
			<stop  offset="1" style="stop-color:#2F363D"/>
		</radialGradient>
		<rect x="1491" y="604.5" clip-path="url(#SVGID_2_)" fill="url(#SVGID_3_)" width="270" height="270"/>
		<g clip-path="url(#SVGID_2_)">
			<path fill="#F9DFA9" d="M1644.5,766.5c-0.6,7.9,0.2,27.2,2.3,57.5h-41.1c1.4-22.5,2.9-47.3,2.3-57.5H1644.5z"/>
			<path fill="#EACE95" d="M1644.5,766.5c-0.2,10-0.2,17.4,0.6,29c-14.3-2.7-27.6-12.2-37-23.7v-5.3H1644.5z"/>
			<path fill="#FFE8B9" d="M1672.8,711.9c0,22.4-29.4,68.3-46.6,68.3c-17.2,0-46.6-43.2-46.6-68.3c0-30.4,20.9-55,46.6-55
				S1672.8,681.6,1672.8,711.9z"/>
			<path fill="#FFE8B9" d="M1595.5,720.8c0.3,8.4-4.4,15.4-10.4,15.6c-6,0.2-11-10.1-11.2-18.5c-0.3-8.4,4.2-11.8,10.2-12
				C1590.1,705.7,1595.2,712.4,1595.5,720.8z"/>
			<path fill="#F9DFA9" d="M1656.9,720.8c-0.3,8.4,4.4,15.4,10.4,15.6c6,0.2,11-10.1,11.2-18.5c0.3-8.4-4.2-11.8-10.2-12
				C1662.3,705.7,1657.2,712.4,1656.9,720.8z"/>
			<path fill="#F9DFA9" d="M1672.8,711.9c0,22.4-29.4,68.3-46.6,68.3V657C1652,657,1672.8,681.6,1672.8,711.9z"/>
			<path fill="#E5EBEC" d="M1645,788v82.5h-37.6V788c0,5.5,5.4,10,9.3,10c1.6,0.3,7.9,23.1,9.5,23c1.4,0,8.1-22.7,9.5-23
				C1640.1,796.6,1645,793.3,1645,788z"/>
			<path fill="#2F343B" d="M1699.6,874.5h-147.2c0,0,3.6-50.9,8.2-57.3c8-11.1,33.8-19.6,46.8-22.6c0.2,11.2,9.3,74.1,18.6,74.2
				c0,0,0,0,0,0c9.3,0,18.9-62.9,19.1-74.2c0,0,36.7,10.5,46.6,24.2C1696.3,825.2,1699.6,874.5,1699.6,874.5z"/>
			<path fill="#292D33" d="M1699.6,874.5h-73.4l-0.2-5.8c0,0,0,0,0,0c9.3,0,18.9-62.9,19.1-74.2c0,0,36.7,10.5,46.6,24.2
				C1696.3,825.2,1699.6,874.5,1699.6,874.5z"/>
			<path fill="#454D57" d="M1607.7,786.3c-11.7,9.9-15.3,13.9-12,32.2h10.5l-9.9,8.1c4.9,18.7,15.2,31.6,29.9,45.6l0-4.2
				C1615,846.2,1611.6,812.6,1607.7,786.3z"/>
			<path fill="#454D57" d="M1644.7,786.3c12.5,11.4,16.1,13.3,12,32.2h-10.5l9.9,8.1c-5.9,18.7-15.6,34.2-30,45.6l0-4.2
				C1637.3,846.2,1640.8,812.6,1644.7,786.3z"/>
			<path fill="#CCBFA0" d="M1626.6,635c-25.6-2.7-44.6,14.8-51.4,28.3c-7.4,14.8-2.2,38.2,0.7,45.6c0,0,2.2-2.1,4.5-2.3
				c2.3-0.3,3,17.5,3,17.5h2.6c0,0,1-8.9,3.4-15.1c0,0,4.1-5.8,1.5-10c9.8,3,22.5,3,35.7-3c11.6-5.3,21.8-24.1,27.9-21.7
				c1.9,11,4.2,19.8,8,25c2.4,3.4,1.3,9.6,1.3,9.6c2.3,6.3,3.4,15.1,3.4,15.1h2.6c0,0,0.4-17.7,2.6-17.4c2.3,0.3,4.2,3.3,4.2,3.3
				s8.3-31.7,0.9-46.5c-3.3-6.5-13.2-14.8-21.4-12.3C1653.6,639.6,1636.7,636.1,1626.6,635z"/>
			<path fill="#F9F9F9" d="M1607.4,784.1c2.4,8.6,3.6,10.5,9.3,13.9c-6.9,2.8-7.2,8.4-14.8,13.9
				C1600.9,799,1602.8,792.6,1607.4,784.1z"/>
			<path fill="#F9F9F9" d="M1645,784.1c-2.4,8.6-3.6,10.5-9.3,13.9c6.9,2.8,7.2,8.4,14.8,13.9C1651.5,799,1649.6,792.6,1645,784.1z"
				/>
			<path fill="#2F343B" d="M1619.9,711.4h-23.5c-1.3,0-2.3,1-2.3,2.3v10c0,2.9,2.3,5.2,5.2,5.2h15.3c4.2,0,7.7-3.4,7.7-7.7v-7.6
				C1622.2,712.4,1621.1,711.4,1619.9,711.4z M1619.8,721.2c0,2.9-2.4,5.3-5.3,5.3h-15.3c-1.6,0-2.8-1.3-2.8-2.8v-10l23.5,0.1
				L1619.8,721.2z"/>
			<path fill="#2F343B" d="M1631.5,713.7v7.6c0,4.2,3.4,7.7,7.7,7.7h15.3c2.9,0,5.2-2.3,5.2-5.2v-10c0-1.3-1-2.3-2.3-2.3h-23.5
				C1632.6,711.4,1631.5,712.4,1631.5,713.7z M1633.8,713.7l23.5-0.1v10c0,1.6-1.3,2.8-2.8,2.8h-15.3c-2.9,0-5.3-2.4-5.3-5.3
				L1633.8,713.7z"/>
		</g>
	</g>
</g>
<g>
	<g>
		<defs>
			<path id="SVGID_1_" d="M1470,813.5c0,33-27,60-60,60h-148c-33,0-60-27-60-60v-148c0-33,27-60,60-60h148c33,0,60,27,60,60V813.5z"
				/>
		</defs>
		<clipPath id="SVGID_4_">
			<use xlink:href="#SVGID_1_"  overflow="visible"/>
		</clipPath>
		<radialGradient id="SVGID_5_" cx="1202.8" cy="604.5" r="380.2484" gradientUnits="userSpaceOnUse">
			<stop  offset="0" style="stop-color:#56626B"/>
			<stop  offset="1" style="stop-color:#2F363D"/>
		</radialGradient>
		<rect x="1201" y="604.5" clip-path="url(#SVGID_4_)" fill="url(#SVGID_5_)" width="270" height="270"/>
		<g clip-path="url(#SVGID_4_)">
			<path fill="#23262B" d="M1300.7,829.8c39.7,0,66.8,0.1,75,0c0,0-3.9-20.6-2.8-39.2c1.6-26.9,12-54.2,2.7-80.3
				c-0.1,0-51.7-15.3-73.6-0.8c0,0-13,10.4-7.4,31C1303.7,773.5,1300.7,829.8,1300.7,829.8z"/>
			<path fill="#F9DFA9" d="M1354.5,766.5c-0.6,7.9,0.2,27.2,2.3,57.5h-41.1c1.4-22.5,2.9-47.3,2.3-57.5H1354.5z"/>
			<path fill="#EACE95" d="M1354.5,766.5c-0.2,10-0.2,17.4,0.6,29c-14.3-2.7-27.6-12.2-37-23.7v-5.3H1354.5z"/>
			<path fill="#FFE8B9" d="M1382.8,711.9c0,22.4-29.4,68.3-46.6,68.3c-17.2,0-46.6-43.2-46.6-68.3c0-30.4,20.9-55,46.6-55
				S1382.8,681.6,1382.8,711.9z"/>
			<path fill="#94A4A5" d="M1409.6,874.5h-147.2c0,0,3.6-50.9,8.2-57.3c8-11.1,33.8-19.6,46.8-22.6c0.2,11.2,9.5,16.8,18.8,16.9
				c0,0,0,0,0,0c9.3,0,18.7-5.6,18.8-16.9c0,0,36.7,10.5,46.6,24.2C1406.3,825.2,1409.6,874.5,1409.6,874.5z"/>
			<path fill="#889798" d="M1409.6,874.5h-73.4v-63c0,0,0,0,0,0c9.3,0,18.7-5.6,18.8-16.9c0,0,36.7,10.5,46.6,24.2
				C1406.3,825.2,1409.6,874.5,1409.6,874.5z"/>
			<path fill="#FFE8B9" d="M1305.5,720.8c0.3,8.4-4.4,15.4-10.4,15.6c-6,0.2-11-10.1-11.2-18.5c-0.3-8.4,4.2-11.8,10.2-12
				C1300.1,705.7,1305.2,712.4,1305.5,720.8z"/>
			<path fill="#FFE8B9" d="M1366.9,720.8c-0.3,8.4,4.4,15.4,10.4,15.6c6,0.2,11-10.1,11.2-18.5c0.3-8.4-4.2-11.8-10.2-12
				C1372.3,705.7,1367.2,712.4,1366.9,720.8z"/>
			<path fill="#F9DFA9" d="M1382.8,711.9c0,22.4-29.4,68.3-46.6,68.3V657C1362,657,1382.8,681.6,1382.8,711.9z"/>
			<path fill="#292D33" d="M1388.6,687.6c-8.4-19.8-27.2-34.8-52.1-33.6c-24.9-1.2-45.8,12.3-54.2,32.1c-10.2,24-3.8,47.5,6.4,77.9
				c1,6,4.9,16.3,2.2,49.6c-0.4,4.9,2,10.4,4.2,14.5c-14,24.1,9.2,19.1,6.7,36.1c18.9-18.4-0.8-27.2-0.1-36.6
				c1.9-1.8,2.4-11.4,3.1-17.8c2.3-20.8,0.2-28.8-1.1-36.3c-1.9-11.5-1.8-22-6.4-34.9c7.6-12.5,12.6-37,12.6-37
				c-1.2,4.7,65.2,36.8,66.2,36.8c-4.2,13.3-4.9,23.7-6.8,35.2c-1.3,7.6-3.4,15.6-1,36.3c0.7,6.4,1.2,15.9,3.1,17.8
				c0.7,9.4-18.9,18.2-0.1,36.6c-2.5-17,20.6-12,6.7-36.1c2.2-4.1,4.6-9.6,4.2-14.5c-2.7-33.3,1.2-43.6,2.2-49.6
				C1389.2,736.1,1398.8,711.6,1388.6,687.6z"/>
			<path fill="#AC3C37" d="M1370.3,825.4c-1.8,0.6-1,4.9,0.7,5c2.8,0.1,5.5,0.1,8.3,0.1c1.5-1.5,1.6-3.9,0.2-5.5
				C1376.5,823.8,1372.1,824.8,1370.3,825.4z"/>
			<path fill="#AC3C37" d="M1292.7,825.4c-1.8,0.6-1,4.9,0.7,5c2.8,0.1,5.5,0.1,8.3,0.1c1.5-1.5,1.6-3.9,0.2-5.5
				C1299,823.8,1294.6,824.8,1292.7,825.4z"/>
		</g>
	</g>
</g>
<g>
	<g>
		<defs>
			<path id="SVGID_58_" d="M1180,813.5c0,33-27,60-60,60H972c-33,0-60-27-60-60v-148c0-33,27-60,60-60h148c33,0,60,27,60,60V813.5z"
				/>
		</defs>
		<clipPath id="SVGID_6_">
			<use xlink:href="#SVGID_58_"  overflow="visible"/>
		</clipPath>
		<radialGradient id="SVGID_7_" cx="912.8001" cy="604.5" r="380.2484" gradientUnits="userSpaceOnUse">
			<stop  offset="0" style="stop-color:#56626B"/>
			<stop  offset="1" style="stop-color:#2F363D"/>
		</radialGradient>
		<rect x="911" y="604.5" clip-path="url(#SVGID_6_)" fill="url(#SVGID_7_)" width="270" height="270"/>
		<g clip-path="url(#SVGID_6_)">
			<path fill="#907264" d="M1120.5,701.4c-4.7,43.7-45,65.4-74.6,65.4s-70.4-22.3-74.6-65.4c-4.2-43.7,20.7-79.5,74.6-79.5
				S1125.3,657.8,1120.5,701.4z"/>
			<path fill="#F9DFA9" d="M1063.3,766.5c-0.4,4.9-0.2,14.4,0.5,28.2c13.8,9.6,10.4,66.3,11.2,77.6h-58.9
				c-9.5-26.2,2.4-70.2,10.1-77.6c0.6-12,0.9-22.4,0.6-28.2H1063.3z"/>
			<path fill="#EACE95" d="M1063.3,766.5c-0.2,10-0.2,17.4,0.6,29c-14.3-2.7-27.6-12.2-37-23.7v-5.3H1063.3z"/>
			<path fill="#FFE8B9" d="M1091.6,711.9c0,22.4-29.4,68.3-46.6,68.3s-46.6-43.2-46.6-68.3c0-30.4,20.9-55,46.6-55
				C1070.8,657,1091.6,681.6,1091.6,711.9z"/>
			<path fill="#FFE8B9" d="M1014.3,720.8c0.3,8.4-4.4,15.4-10.4,15.6c-6,0.2-11-10.1-11.2-18.5c-0.3-8.4,4.2-11.8,10.2-12
				C1008.9,705.7,1014,712.4,1014.3,720.8z"/>
			<path fill="#F9DFA9" d="M1075.7,720.8c-0.3,8.4,4.4,15.4,10.4,15.6c6,0.2,11-10.1,11.2-18.5c0.3-8.4-4.2-11.8-10.2-12
				C1081.1,705.7,1076,712.4,1075.7,720.8z"/>
			<path fill="#F9DFA9" d="M1091.6,711.9c0,22.4-29.4,68.3-46.6,68.3V657C1070.8,657,1091.6,681.6,1091.6,711.9z"/>
			<path fill="#BBD9BD" d="M1118.4,874.5H971.2c0,0,3.6-50.9,8.2-57.3c8-11.1,33.8-19.6,46.8-22.6c-15.3,32.8,1.7,74.1,18.6,74.2h0
				c17,0,33.1-41.8,19.1-74.2c0,0,36.7,10.5,46.6,24.2C1115.1,825.2,1118.4,874.5,1118.4,874.5z"/>
			<path fill="#DD695D" d="M998.6,706.7c4.1,0.1,6.3,5.9,5.6,6.2c0.6,0.4,1.5-1.6,1.5-1.6c0-14.3,8.1-35.3,39.6-35.3
				c32.5,0,41,20.4,41,33.5c0,0,0.1,2.7,0.8,2.3c0-0.6,0.7-4.8,4.3-5.2c3.6-19.2-4.9-56.3-46.6-55.4
				C999.8,652.2,996.3,690.2,998.6,706.7z"/>
			<path fill="#B1CEB3" d="M1118.4,874.5h-73.6v-5.8c17,0,33.1-41.8,19.1-74.2c0,0,36.7,10.5,46.6,24.2
				C1115.1,825.2,1118.4,874.5,1118.4,874.5z"/>
			<path fill="#292D33" d="M1081.8,712.2c-1.1-1.2-23.1-2.2-25.9-2.1c-2.7,0.1-6.2,2.7-6.1,5.2l0.2,5.3c0,0,2.6,4.5,5.1,5.7
				c8.5,3.7,19.7-4.4,26.9-9.8C1083.1,715.6,1082.6,713.1,1081.8,712.2z M1060.4,725c-1.6,0.1-3-0.2-4.3-0.8c-1.3-0.6-3-2.9-3.9-4.3
				l-0.2-4.8c0-0.9,2.1-2.9,4-3c2.7-0.1,20.9,0.8,24.4,1.7c0.1,0.3,0.2,0.7,0.2,1C1075.8,718.4,1067.3,724.7,1060.4,725z"/>
			<path fill="#292D33" d="M1007.8,716c7.3,5.5,18.5,13.5,26.9,9.8c2.6-1.1,5.1-5.7,5.1-5.7l0.2-5.3c0.1-2.4-3.3-5.1-6.1-5.2
				c-2.8-0.1-24.8,0.9-25.9,2.1C1007.2,712.7,1006.7,715.2,1007.8,716z M1009.3,714.5c0-0.3,0.1-0.7,0.2-1
				c3.4-0.9,21.7-1.8,24.4-1.7c1.9,0.1,4.1,2,4,3l-0.2,4.8c-0.9,1.4-2.6,3.8-3.9,4.3c-1.3,0.6-2.7,0.8-4.3,0.8
				C1022.6,724.3,1014.1,718,1009.3,714.5z"/>
			<g>
				<circle fill="#DD695D" cx="1068" cy="794.5" r="4.1"/>
				<circle fill="#DD695D" cx="1066.5" cy="803.3" r="4.1"/>
				<circle fill="#DD695D" cx="1062" cy="810.4" r="4.1"/>
				<circle fill="#DD695D" cx="1054.7" cy="815.2" r="4.1"/>
				<circle fill="#DD695D" cx="1044.9" cy="816.8" r="4.1"/>
				<circle fill="#DD695D" cx="1035.3" cy="815" r="4.1"/>
				<circle fill="#DD695D" cx="1028.1" cy="810.4" r="4.1"/>
				<circle fill="#DD695D" cx="1023.6" cy="803.4" r="4.1"/>
				<circle fill="#DD695D" cx="1022" cy="794.5" r="4.1"/>
			</g>
		</g>
	</g>
</g>
<g>
	<g>
		<defs>
			<path id="SVGID_53_" d="M1760,523.5c0,33-27,60-60,60h-148c-33,0-60-27-60-60v-148c0-33,27-60,60-60h148c33,0,60,27,60,60V523.5z
				"/>
		</defs>
		<clipPath id="SVGID_8_">
			<use xlink:href="#SVGID_53_"  overflow="visible"/>
		</clipPath>
		<radialGradient id="SVGID_9_" cx="1492.8" cy="314.5" r="380.2484" gradientUnits="userSpaceOnUse">
			<stop  offset="0" style="stop-color:#56626B"/>
			<stop  offset="1" style="stop-color:#2F363D"/>
		</radialGradient>
		<rect x="1491" y="314.5" clip-path="url(#SVGID_8_)" fill="url(#SVGID_9_)" width="270" height="270"/>
		<g clip-path="url(#SVGID_8_)">
			<path fill="#574A48" d="M1590.7,539.8c10-2.4,16.1-8.3,22.7-11.2c9.1-3.9,18-4.5,27-0.2c10.2,4.8,19.4,14,34.5,11.3
				c0,0-17.7-19.6-16.5-38.2c1.6-26.9,7.3-81.2,7.2-81.2c-0.1,0-51.7-15.3-73.6-0.8c0,0-13,10.4-7.4,31
				C1593.7,483.5,1590.7,539.8,1590.7,539.8z"/>
			<path fill="#F9DFA9" d="M1644.5,476.5c-0.6,7.9,0.2,27.2,2.3,57.5h-41.1c1.4-22.5,2.9-47.3,2.3-57.5H1644.5z"/>
			<path fill="#EACE95" d="M1644.5,476.5c-0.2,10-0.2,17.4,0.6,29c-14.3-2.7-27.6-12.2-37-23.7v-5.3H1644.5z"/>
			<path fill="#FFE8B9" d="M1672.8,421.9c0,22.4-29.4,68.3-46.6,68.3c-17.2,0-46.6-43.2-46.6-68.3c0-30.4,20.9-55,46.6-55
				S1672.8,391.6,1672.8,421.9z"/>
			<path fill="#F2AE6D" d="M1699.6,584.5h-147.2c0,0,3.6-50.9,8.2-57.3c8-11.1,33.8-19.6,46.8-22.6c0.2,11.2,9.5,16.8,18.8,16.9
				c0,0,0,0,0,0c9.3,0,18.7-5.6,18.8-16.9c0,0,36.7,10.5,46.6,24.2C1696.3,535.2,1699.6,584.5,1699.6,584.5z"/>
			<path fill="#E3A366" d="M1699.6,584.5h-73.4v-63c0,0,0,0,0,0c9.3,0,18.7-5.6,18.8-16.9c0,0,36.7,10.5,46.6,24.2
				C1696.3,535.2,1699.6,584.5,1699.6,584.5z"/>
			<path fill="#FFE8B9" d="M1595.5,430.8c0.3,8.4-4.4,15.4-10.4,15.6c-6,0.2-11-10.1-11.2-18.5c-0.3-8.4,4.2-11.8,10.2-12
				C1590.1,415.7,1595.2,422.4,1595.5,430.8z"/>
			<path fill="#FFE8B9" d="M1656.9,430.8c-0.3,8.4,4.4,15.4,10.4,15.6c6,0.2,11-10.1,11.2-18.5c0.3-8.4-4.2-11.8-10.2-12
				C1662.3,415.7,1657.2,422.4,1656.9,430.8z"/>
			<path fill="#F9DFA9" d="M1672.8,421.9c0,22.4-29.4,68.3-46.6,68.3V367C1652,367,1672.8,391.6,1672.8,421.9z"/>
			<path fill="#907264" d="M1601,406.2c7,9.7,32.8,24.6,55.9,24.6c4.7,7.1,3.8,25.8-3.3,52.2c-29.2,38.5,12.8,72.3-2.7,89.8
				c9.1,0,25.4-9.3,24-37.9c-0.8-17.3-17.1-29.6-15.5-51c0.4-5.2,4-9.8,7.2-12.8c21.8-20.7,21.2-48.5,18.5-61
				c-6.9-31.5-33.5-48.7-57.9-50.2c-11.8-0.7-33,2.9-34.1,16.6c-10.8-0.3-22.6,9.8-27.1,20.5c-10.2,24-6.6,51.7,11.9,70.4
				c5.4,5.5,9.2,10.9,9.4,16.2c0.5,20.3-9.3,23.6-11.4,50.2c-1.8,22.5,12.8,35.4,23.9,37.5c-14.5-13.2,23.8-45.4-6-88
				c-1.8-11.5-5.2-23.8-6-35.8C1586.1,420.1,1601,406.2,1601,406.2z"/>
			<path fill="#EB7063" d="M1654.6,477.2c-3.4,0.3-4.6,4.4-3,6c2.1,2.1,4.4,3.3,7.1,3.6c2.8,0.3,5.5-3.4,3.7-5.6
				C1660.5,478.7,1658.1,476.8,1654.6,477.2z"/>
			<path fill="#EB7063" d="M1585.9,479.1c-2.4,2.5-0.7,6.3,1.5,6.5c2.9,0.3,5.5-0.3,7.7-1.8c2.3-1.6,2-6.1-0.8-6.7
				C1591.4,476.5,1588.3,476.6,1585.9,479.1z"/>
		</g>
	</g>
</g>
<g>
	<g>
		<defs>
			<path id="SVGID_49_" d="M1470,523.5c0,33-27,60-60,60h-148c-33,0-60-27-60-60v-148c0-33,27-60,60-60h148c33,0,60,27,60,60V523.5z
				"/>
		</defs>
		<clipPath id="SVGID_10_">
			<use xlink:href="#SVGID_49_"  overflow="visible"/>
		</clipPath>
		<radialGradient id="SVGID_11_" cx="1202.8" cy="314.5" r="380.2484" gradientUnits="userSpaceOnUse">
			<stop  offset="0" style="stop-color:#56626B"/>
			<stop  offset="1" style="stop-color:#2F363D"/>
		</radialGradient>
		<rect x="1201" y="314.5" clip-path="url(#SVGID_10_)" fill="url(#SVGID_11_)" width="270" height="270"/>
		<g clip-path="url(#SVGID_10_)">
			<path fill="#F9DFA9" d="M1354.5,476.5c-0.6,7.9,0.2,27.2,2.3,57.5h-41.1c1.4-22.5,2.9-47.3,2.3-57.5H1354.5z"/>
			<path fill="#EACE95" d="M1354.5,476.5c-0.2,10-0.2,17.4,0.6,29c-14.3-2.7-27.6-12.2-37-23.7v-5.3H1354.5z"/>
			<path fill="#FFE8B9" d="M1382.8,421.9c0,22.4-29.4,68.3-46.6,68.3c-17.2,0-46.6-43.2-46.6-68.3c0-30.4,20.9-55,46.6-55
				S1382.8,391.6,1382.8,421.9z"/>
			<path fill="#FFE8B9" d="M1305.5,430.8c0.3,8.4-4.4,15.4-10.4,15.6c-6,0.2-11-10.1-11.2-18.5c-0.3-8.4,4.2-11.8,10.2-12
				C1300.1,415.7,1305.2,422.4,1305.5,430.8z"/>
			<path fill="#F9DFA9" d="M1366.9,430.8c-0.3,8.4,4.4,15.4,10.4,15.6c6,0.2,11-10.1,11.2-18.5c0.3-8.4-4.2-11.8-10.2-12
				C1372.3,415.7,1367.2,422.4,1366.9,430.8z"/>
			<path fill="#F9DFA9" d="M1382.8,421.9c0,22.4-29.4,68.3-46.6,68.3V367C1362,367,1382.8,391.6,1382.8,421.9z"/>
			<path fill="#C3D0D4" d="M1305,354c-1.7,17.9,60.8-5.9,77.8,22.7c8.4,14.2,4.1,43,4.1,43s-2.2-2.1-4.5-2.3c-2.3-0.3-3,17.5-3,17.5
				h-2.6c0,0-1-8.9-3.4-15.1c0,0-3.6-6.5-1.2-10.9c2.4-4.3-2.4-20.3-7.5-22.8c-5-2.4-8.3,9.6-27.1,13.7c-18.8,4.2-36.5,3.6-36.5,3.6
				s-1.9,5.6-1,6.6c0.9,1-1.3,9.6-1.3,9.6c-2.3,6.3-3.4,15.1-3.4,15.1h-2.6c0,0-0.7-17.8-3-17.5c-2.3,0.3-4.5,2.3-4.5,2.3
				s-4.7-25.6,2.8-40.4C1295,365.8,1305,354,1305,354z"/>
			<path fill="#BBD9BD" d="M1355,498v82.5h-37.6V498c0,6.7,9.6,13.1,19.1,13C1345.8,510.9,1355,504.3,1355,498z"/>
			<path fill="#14937B" d="M1409.6,584.5h-147.2c0,0,3.6-50.9,8.2-57.3c8-11.1,33.8-19.6,46.8-22.6c0.2,11.2,9.3,74.1,18.6,74.1
				c0,0,0,0,0,0c9.3,0,18.9-62.9,19.1-74.1c0,0,36.7,10.5,46.6,24.2C1406.3,535.2,1409.6,584.5,1409.6,584.5z"/>
			<path fill="#12826D" d="M1409.6,584.5h-73.4l-0.2-5.8c0,0,0,0,0,0c9.3,0,18.9-62.9,19.1-74.1c0,0,36.7,10.5,46.6,24.2
				C1406.3,535.2,1409.6,584.5,1409.6,584.5z"/>
			<path fill="#1AB294" d="M1317.7,496.3l-5.9,9.2c-3.2,5.8-5.5,10.6-6.1,23h10.5l-9.9,8.1l29.9,45.6l0-4.2
				C1325,556.2,1321.6,522.6,1317.7,496.3z"/>
			<path fill="#1AB294" d="M1354.7,496.3l5.9,9.2c5.2,7,6.2,13.3,6.1,23h-10.5l9.9,8.1l-30,45.6l0-4.2
				C1347.3,556.2,1350.8,522.6,1354.7,496.3z"/>
		</g>
	</g>
</g>
<g>
	<g>
		<defs>
			<path id="SVGID_46_" d="M1180,523.5c0,33-27,60-60,60H972c-33,0-60-27-60-60v-148c0-33,27-60,60-60h148c33,0,60,27,60,60V523.5z"
				/>
		</defs>
		<clipPath id="SVGID_12_">
			<use xlink:href="#SVGID_46_"  overflow="visible"/>
		</clipPath>
		<radialGradient id="SVGID_13_" cx="912.8001" cy="314.5" r="380.2484" gradientUnits="userSpaceOnUse">
			<stop  offset="0" style="stop-color:#56626B"/>
			<stop  offset="1" style="stop-color:#2F363D"/>
		</radialGradient>
		<rect x="911" y="314.5" clip-path="url(#SVGID_12_)" fill="url(#SVGID_13_)" width="270" height="270"/>
		<g clip-path="url(#SVGID_12_)">
			<path fill="#14161A" d="M998.2,538.8c13.1-2.4,21.1-8.3,29.7-11.2c11.9-3.9,23.6-4.5,35.3-0.2c13.4,4.8,25.4,14,45.1,11.3
				c0,0-16.4-8.6-16.5-27.2s4.4-92.1,4.3-92.1c-0.1,0-67.7-15.3-96.3-0.8c0,0,3.6,16.8,0.9,38S998.2,538.8,998.2,538.8z"/>
			<path fill="#F9DFA9" d="M1064.5,476.5c-0.6,7.9,0.2,27.2,2.3,57.5h-41.1c1.4-22.5,2.9-47.3,2.3-57.5H1064.5z"/>
			<path fill="#EACE95" d="M1064.5,476.5c-0.2,10-0.2,17.4,0.6,29c-14.3-2.7-27.6-12.2-37-23.7v-5.3H1064.5z"/>
			<path fill="#FFE8B9" d="M1092.8,421.9c0,22.4-29.4,68.3-46.6,68.3c-17.2,0-46.6-43.2-46.6-68.3c0-30.4,20.9-55,46.6-55
				C1072,367,1092.8,391.6,1092.8,421.9z"/>
			<path fill="#304457" d="M1065,498v82.5h-37.6V498c0,6.7,9.6,9.8,19.1,9.7C1055.8,507.6,1065,504.3,1065,498z"/>
			<path fill="#97C1DE" d="M1119.6,584.5H972.4c0,0,3.6-50.9,8.2-57.3c8-11.1,33.8-19.6,46.8-22.6c0.2,11.2,9.5,38.1,18.8,38.1
				c0,0,0,0,0,0c9.3,0,18.7-26.8,18.9-38.1c0,0,36.7,10.5,46.6,24.2C1116.3,535.2,1119.6,584.5,1119.6,584.5z"/>
			<path fill="#8DB3CF" d="M1119.6,584.5h-73.4l0-41.8c0,0,0,0,0,0c9.3,0,18.7-26.8,18.9-38.1c0,0,36.7,10.5,46.6,24.2
				C1116.3,535.2,1119.6,584.5,1119.6,584.5z"/>
			<path fill="#F9F9F9" d="M1027.4,498c4.4,6.6,7.5,9.4,18.8,9.7c-4.3,3.2-6.1,6.8-6.8,15.9c-1.1-0.3-14.4-8-14.4-15.1
				C1025.1,502.5,1027.4,498,1027.4,498z"/>
			<path fill="#F9F9F9" d="M1065,498c-4.4,6.6-7.5,9.4-18.8,9.7c4.3,3.2,6.1,6.8,6.8,15.9c1.1-0.3,14.4-8,14.4-15.1
				C1067.3,502.5,1065,498,1065,498z"/>
			<path fill="#FFE8B9" d="M1015.5,430.8c0.3,8.4-4.4,15.4-10.4,15.6c-6,0.2-11-10.1-11.2-18.5c-0.3-8.4,4.2-11.8,10.2-12
				C1010.1,415.7,1015.2,422.4,1015.5,430.8z"/>
			<path fill="#FFE8B9" d="M1076.9,430.8c-0.3,8.4,4.4,15.4,10.4,15.6c6,0.2,11-10.1,11.2-18.5c0.3-8.4-4.2-11.8-10.2-12
				C1082.3,415.7,1077.2,422.4,1076.9,430.8z"/>
			<path fill="#F9DFA9" d="M1092.8,421.9c0,22.4-29.4,68.3-46.6,68.3V367C1072,367,1092.8,391.6,1092.8,421.9z"/>
			<path fill="#23262B" d="M1065.3,393.8c0,0-7.4,16.4-29.7,25.2c-7.9,3.1-13.7,4.2-20.1,5.5c-9.7,14.6,0,105.3,5,123.8
				c-9.1,0-27.8-11.3-32.7-20c2.1-5.6,4.2-44.2,0-66.2c-3.1-16.1-4.4-40.4-1.7-53c6.9-31.5,33.3-44.7,57.7-46.2
				c25.2-1.5,50,13.2,58.5,33.2c10.2,24,4.5,49.3,2.1,65.5c-2.8,18-2.8,61-0.2,68.7c-5.6,10.1-20.2,15.7-31.4,17.8
				c-2.1-18,4.8-67.7,8.3-100.8C1084.1,420,1065.3,393.8,1065.3,393.8z"/>
		</g>
	</g>
</g>
<g>
	<g>
		<defs>
			<path id="SVGID_82_" d="M1760,233.5c0,33-27,60-60,60h-148c-33,0-60-27-60-60v-148c0-33,27-60,60-60h148c33,0,60,27,60,60V233.5z
				"/>
		</defs>
		<clipPath id="SVGID_14_">
			<use xlink:href="#SVGID_82_"  overflow="visible"/>
		</clipPath>
		<radialGradient id="SVGID_15_" cx="1492.8" cy="24.5" r="380.2484" gradientUnits="userSpaceOnUse">
			<stop  offset="0" style="stop-color:#56626B"/>
			<stop  offset="1" style="stop-color:#2F363D"/>
		</radialGradient>
		<rect x="1491" y="24.5" clip-path="url(#SVGID_14_)" fill="url(#SVGID_15_)" width="270" height="270"/>
		<g clip-path="url(#SVGID_14_)">
			<path fill="#292D33" d="M1580.2,154.4c10.9,17.1-7,26.6-19.5,42.6c-10.5,13.3-11.6,37.6,4.3,43.5c38.9,14.3,76.8,20.3,120.2-0.5
				c14.1-6.8,12.8-32-1-45.2c-12.7-12.2-22.1-26.7-10.8-42.2C1647.2,128.8,1580.2,154.4,1580.2,154.4z"/>
			<path fill="#F9DFA9" d="M1644.2,186.5c-0.6,7.9,0.2,27.2,2.3,57.5h-41.1c1.4-22.5,2.9-47.3,2.3-57.5H1644.2z"/>
			<path fill="#EACE95" d="M1644.2,186.5c-0.2,10-0.2,17.4,0.6,29c-14.3-2.7-27.6-12.2-37-23.7v-5.3H1644.2z"/>
			<path fill="#FFE8B9" d="M1672.6,131.9c0,22.4-29.4,68.3-46.6,68.3s-46.6-43.2-46.6-68.3c0-30.4,20.9-55,46.6-55
				S1672.6,101.6,1672.6,131.9z"/>
			<path fill="#E5EBEC" d="M1644.8,249.6h-37.6V208c0,13.2,37.5,12.7,37.6,0V249.6z"/>
			<path fill="#1BBB9C" d="M1699.6,294.5h-147.2c0,0,3.6-50.9,8.2-57.3c8-11.1,33.8-19.6,46.8-22.6c4.9,10.9,21.4,10,19,10
				c0,0,15.5-1.5,18.7-10c0,0,36.7,10.5,46.6,24.2C1696.3,245.2,1699.6,294.5,1699.6,294.5z"/>
			<path fill="#19AD90" d="M1699.6,294.5h-73.4l0.2-69.9l0,0c0,0,12.2,0,18.7-10c0,0,36.7,10.5,46.6,24.2
				C1696.3,245.2,1699.6,294.5,1699.6,294.5z"/>
			<path fill="#14937B" d="M1644.1,194.6c0,2.8,0.3,13.4,0.3,13.4c-3.8,6.6-8.2,9.7-18.4,9.7c-11.2,0-15.2-3.1-18.5-9.7
				c0,0,0.4-10.5,0.4-13.4c-12.6,0-20.4,13.6-20.4,23.9c0,31.1,7.4,63,38.8,63c30.4,0,38.2-31.9,38.2-63
				C1664.5,208.3,1656.7,194.6,1644.1,194.6z"/>
			<path fill="#14937B" d="M1607.7,200.4c-0.1-0.2-0.2-0.3-0.3-0.5c0,0,0.1-2.4,0.2-5.2c0.1,0,0.1,0,0.2,0
				C1607.9,195.7,1607.8,198,1607.7,200.4z"/>
			<path fill="#14937B" d="M1644.2,200.3c-0.1-2.3-0.1-4.5-0.1-5.6c0.1,0,0.1,0,0.2,0c0.1,2.8,0.2,5.2,0.2,5.2
				C1644.4,200,1644.3,200.1,1644.2,200.3z"/>
			<path fill="#148C76" d="M1664.5,218.5c0,31.1-7.8,63-38.2,63c-31.4,0-38.8-31.9-38.8-63c0-0.7,0-1.3,0.1-2
				c1,29,9.3,56.9,38.7,56.9c28.4,0,37.1-27.9,38.1-56.9C1664.4,217.1,1664.5,217.8,1664.5,218.5z"/>
			<path fill="#FFE8B9" d="M1595.2,140.8c0.3,8.4-4.4,15.4-10.4,15.6c-6,0.2-11-10.1-11.2-18.5c-0.3-8.4,4.2-11.8,10.2-12
				C1589.9,125.7,1595,132.4,1595.2,140.8z"/>
			<path fill="#F9DFA9" d="M1656.7,140.8c-0.3,8.4,4.4,15.4,10.4,15.6c6,0.2,11-10.1,11.2-18.5c0.3-8.4-4.2-11.8-10.2-12
				C1662.1,125.7,1657,132.4,1656.7,140.8z"/>
			<path fill="#F9DFA9" d="M1672.6,131.9c0,22.4-29.4,68.3-46.6,68.3V77C1651.7,77,1672.6,101.6,1672.6,131.9z"/>
			<path fill="#292D33" d="M1625,68.8c-22,0-52.5,17.4-51,51c0.2,3.6,0.5,6.1,1.1,10.7c2-2.3,2.7-2.8,4.4-3.7c4.3-0.8,5.5,3,4.9,5.3
				c1.5,0.2,1.5,0.2,3.1,0c18.8-2.2,31.7-12.3,38.5-28.7c3.1,15.7,16.3,25.7,39.6,28.3c1.3,0.1-0.2,0.1,1.9,0.2
				c-0.9-1.9,1.4-5.4,3.3-5.4c2.9,0,4.2,1.7,5.9,3.9c0,0,1.3-2.5,1.7-8.6C1680.4,85.6,1652,68.8,1625,68.8z"/>
		</g>
	</g>
</g>
<g>
	<g>
		<defs>
			<path id="SVGID_79_" d="M1470,233.5c0,33-27,60-60,60h-148c-33,0-60-27-60-60v-148c0-33,27-60,60-60h148c33,0,60,27,60,60V233.5z
				"/>
		</defs>
		<clipPath id="SVGID_16_">
			<use xlink:href="#SVGID_79_"  overflow="visible"/>
		</clipPath>
		<radialGradient id="SVGID_17_" cx="1202.8" cy="24.5" r="380.2484" gradientUnits="userSpaceOnUse">
			<stop  offset="0" style="stop-color:#56626B"/>
			<stop  offset="1" style="stop-color:#2F363D"/>
		</radialGradient>
		<rect x="1201" y="24.5" clip-path="url(#SVGID_16_)" fill="url(#SVGID_17_)" width="270" height="270"/>
		<g clip-path="url(#SVGID_16_)">
			<path fill="#634E42" d="M1284.5,214.6c13.1-2.4,21.1-8.3,29.7-11.2c11.9-3.9,23.6-4.5,35.3-0.2c13.4,4.8,25.4,14,45.1,11.3
				c0,0-16.4-8.6-16.5-27.2s4.4-57.9,4.3-58c-0.1,0-67.7-15.3-96.3-0.8c0,0,3.6,16.8,0.9,38S1284.5,214.6,1284.5,214.6z"/>
			<path fill="#F9DFA9" d="M1350.7,186.5c-0.6,7.9,0.2,27.2,2.3,57.5h-41.1c1.4-22.5,2.9-47.3,2.3-57.5H1350.7z"/>
			<path fill="#EACE95" d="M1350.7,186.5c-0.2,10-0.2,17.4,0.6,29c-14.3-2.7-27.6-12.2-37-23.7v-5.3H1350.7z"/>
			<path fill="#FFE8B9" d="M1379.1,131.9c0,22.4-29.4,68.3-46.6,68.3c-17.2,0-46.6-43.2-46.6-68.3c0-30.4,20.9-55,46.6-55
				S1379.1,101.6,1379.1,131.9z"/>
			<path fill="#E5EBEC" d="M1351.3,249.6h-37.6V208c0,13.2,37.5,12.7,37.6,0V249.6z"/>
			<path fill="#94A4A5" d="M1405.9,294.5h-147.2c0,0,3.6-50.9,8.2-57.3c8-11.1,33.8-19.6,46.8-22.6c0.2,11.2,9.5,16.8,18.8,16.8
				c0,0,0,0,0,0c9.3,0,18.7-5.6,18.8-16.8c0,0,36.7,10.5,46.6,24.2C1402.6,245.2,1405.9,294.5,1405.9,294.5z"/>
			<path fill="#889798" d="M1405.9,294.5h-73.4v-63.1c0,0,0,0,0,0c9.3,0,18.7-5.6,18.8-16.8c0,0,36.7,10.5,46.6,24.2
				C1402.6,245.2,1405.9,294.5,1405.9,294.5z"/>
			<path fill="#F9F9F9" d="M1313.7,208c4.4,6.6,7.5,9.4,18.8,9.7l-11,14.6c-8.5,11.3-10.6-5.6-10.1-12.8
				C1311.7,213.5,1313.7,208,1313.7,208z"/>
			<path fill="#F9F9F9" d="M1351.3,208c-4.4,6.6-7.5,9.4-18.8,9.7l11,14.6c8.5,11.3,10.6-5.6,10.1-12.8
				C1353.2,213.5,1351.3,208,1351.3,208z"/>
			<path fill="#FFE8B9" d="M1301.8,140.8c0.3,8.4-4.4,15.4-10.4,15.6c-6,0.2-11-10.1-11.2-18.5c-0.3-8.4,4.2-11.8,10.2-12
				C1296.4,125.7,1301.5,132.4,1301.8,140.8z"/>
			<path fill="#FFE8B9" d="M1363.2,140.8c-0.3,8.4,4.4,15.4,10.4,15.6c6,0.2,11-10.1,11.2-18.5c0.3-8.4-4.2-11.8-10.2-12
				C1368.6,125.7,1363.5,132.4,1363.2,140.8z"/>
			<path fill="#F9DFA9" d="M1379.1,131.9c0,22.4-29.4,68.3-46.6,68.3V77C1358.2,77,1379.1,101.6,1379.1,131.9z"/>
			<path fill="#907264" d="M1351.6,103.8c0,0-7.4,16.4-29.7,25.2c-7.9,3.1-13.7,4.2-20.1,5.5c-9.7,14.6-4.2,49.3-4.2,65.7
				c0,23.4-50.3,21.8-37.7-12.9c0.2,6.4,5.2,12.9,10.8,9.9c4.8-2.7,7.8-9,6.2-31.4c-1-14.6-2.6-31.3-1.5-44.1
				c2.7-30,30.4-47.2,54.8-48.7c25.2-1.5,50,13.2,58.5,33.2c10.2,24,4.2,48.8-0.2,64.5s-0.2,26,7,27s12.5-10.1,5.8-12.5
				c6.5,0,11.9,5.1,13,15.7c1.1,10.8-19.9,19.2-32.6,12.4c-18.7-10.1-12.7-24-9.1-57.1C1375.4,128.8,1351.6,103.8,1351.6,103.8z"/>
			<path fill="#634E42" d="M1348.7,135.6c-7,0-12.7,2-12.7,7.5c0,5.5,5.7,10,12.7,10c7,0,12.7-4.5,12.7-10
				C1361.3,137.6,1355.7,135.6,1348.7,135.6z M1348.7,151.6c-6.2,0-11.2-3.8-11.2-8.5c0-5,6.1-6,11.2-6c5.1,0,11.2,1,11.2,6
				C1359.8,147.8,1354.8,151.6,1348.7,151.6z"/>
			<path fill="#634E42" d="M1303.2,143.1c0,5.5,5.7,10,12.7,10c7,0,12.7-4.5,12.7-10c0-5.5-5.7-7.5-12.7-7.5
				C1308.9,135.6,1303.2,137.6,1303.2,143.1z M1304.7,143.1c0-5,6.1-6,11.2-6c5.1,0,11.2,1,11.2,6c0,4.7-5,8.5-11.2,8.5
				C1309.8,151.6,1304.7,147.8,1304.7,143.1z"/>
		</g>
	</g>
</g>
<g>
	<g>
		<defs>
			<path id="SVGID_43_" d="M1180,233.5c0,33-27,60-60,60H972c-33,0-60-27-60-60v-148c0-33,27-60,60-60h148c33,0,60,27,60,60V233.5z"
				/>
		</defs>
		<clipPath id="SVGID_18_">
			<use xlink:href="#SVGID_43_"  overflow="visible"/>
		</clipPath>
		<radialGradient id="SVGID_19_" cx="912.8001" cy="24.5" r="380.2484" gradientUnits="userSpaceOnUse">
			<stop  offset="0" style="stop-color:#56626B"/>
			<stop  offset="1" style="stop-color:#2F363D"/>
		</radialGradient>
		<rect x="911" y="24.5" clip-path="url(#SVGID_18_)" fill="url(#SVGID_19_)" width="270" height="270"/>
		<g clip-path="url(#SVGID_18_)">
			<path fill="#955F3B" d="M1081.3,200.2c-2.3-2.1-8.2-7.6-16.8-10.5c-11.9-3.9-24.7-5.3-36.2-0.5c-5.8,2.4-10.5,7.7-12.6,9.8
				c0,0-13.8-9.8-13.7-28.4s-5.8-41.3-5.7-41.3c0.1,0,67.7-15.3,96.3-0.8c0,0-3.6,16.8-0.9,38S1081.3,200.2,1081.3,200.2z"/>
			<path fill="#F9DFA9" d="M1064.5,186.5c-0.6,7.9,0.2,27.2,2.3,57.5h-41.1c1.4-22.5,2.9-47.3,2.3-57.5H1064.5z"/>
			<path fill="#EACE95" d="M1064.5,186.5c-0.2,10-0.2,17.4,0.6,29c-14.3-2.7-27.6-12.2-37-23.7v-5.3H1064.5z"/>
			<path fill="#FFE8B9" d="M1092.8,131.9c0,22.4-29.4,68.3-46.6,68.3c-17.2,0-46.6-43.2-46.6-68.3c0-30.4,20.9-55,46.6-55
				C1072,77,1092.8,101.6,1092.8,131.9z"/>
			<path fill="#EB7063" d="M1119.6,294.5H972.4c0,0,3.6-50.9,8.2-57.3c8-11.1,33.8-19.6,46.8-22.6c4.9,10.9,21.4,10,19,10
				c0,0,15.5-1.5,18.7-10c0,0,36.7,10.5,46.6,24.2C1116.3,245.2,1119.6,294.5,1119.6,294.5z"/>
			<path fill="#DD695D" d="M1119.6,294.5h-73.4l0.2-69.9l0,0c0,0,12.2,0,18.7-10c0,0,36.7,10.5,46.6,24.2
				C1116.3,245.2,1119.6,294.5,1119.6,294.5z"/>
			<path fill="#FFE8B9" d="M1015.5,140.8c0.3,8.4-4.4,15.4-10.4,15.6c-6,0.2-11-10.1-11.2-18.5c-0.3-8.4,4.2-11.8,10.2-12
				C1010.1,125.7,1015.2,132.4,1015.5,140.8z"/>
			<path fill="#FFE8B9" d="M1076.9,140.8c-0.3,8.4,4.4,15.4,10.4,15.6c6,0.2,11-10.1,11.2-18.5c0.3-8.4-4.2-11.8-10.2-12
				C1082.3,125.7,1077.2,132.4,1076.9,140.8z"/>
			<path fill="#F9DFA9" d="M1092.8,131.9c0,22.4-29.4,68.3-46.6,68.3V77C1072,77,1092.8,101.6,1092.8,131.9z"/>
			<path fill="#D27D47" d="M1027.2,103.8c0,0,3,16.8,24.8,22.1c44.3,11,29.3,55.4,29.3,74.3c0,1,14.9-11.7,22.5-34.4
				c4.7-13.8,4.1-28.7,3-41.5c-2.7-30-33.8-49.8-58.1-51.2c-25.2-1.5-53.1,13-61.7,33c-11.5,26.8-7.8,70.9,28.6,93
				c-4.3-9.8-7.1-15.5-9.2-42.8C1004.3,128.7,1027.2,103.8,1027.2,103.8z"/>
			<path fill="#F07C6C" d="M1064.7,203.4c-2,3.4-6.2,6.2-18.2,6.2c-11.9,0-16.2-2.8-18.2-6.2c-0.7-1.3-3.6-1.6-3.3,0.1
				c1.5,4.5,1.7,10,0.3,11.1c0,0-0.4,11.7,21.1,11.7s21.1-11.7,21.1-11.7c-1.4-1.1-1.2-6.6,0.3-11.1
				C1068.3,201.8,1065.4,202.1,1064.7,203.4z"/>
			<g>
				<g>
					<path fill="#DEE4E5" d="M1019.8,220.6c-1.6,0-2.8-1.4-2.8-3.2c0.1-1.8,1.4-3.1,3-3c1.6,0.1,2.8,1.5,2.7,3.2
						C1022.6,219.2,1021.3,220.6,1019.8,220.6z"/>
					<path fill="#DEE4E5" d="M1019.8,226.8c-1.6,0.1-2.9-1.3-2.9-3.1c0-1.8,1.3-3.2,2.9-3.1c1.6,0,2.8,1.4,2.9,3.1
						C1022.6,225.4,1021.4,226.8,1019.8,226.8z"/>
					<path fill="#DEE4E5" d="M1020.1,233c-1.6,0.1-3-1.2-3-3c-0.1-1.8,1.2-3.2,2.7-3.3c1.6,0,2.9,1.3,3,3
						C1022.9,231.5,1021.7,232.9,1020.1,233z"/>
					<path fill="#DEE4E5" d="M1020.7,239.3c-1.6,0.2-3-1.1-3.2-2.8c-0.2-1.8,1-3.3,2.6-3.4c1.6-0.1,2.9,1.2,3.1,2.8
						C1023.4,237.6,1022.3,239.1,1020.7,239.3z"/>
					<path fill="#DEE4E5" d="M1021.6,245.4c-1.6,0.3-3-0.9-3.3-2.7c-0.2-1.8,0.8-3.3,2.4-3.5c1.6-0.2,3,1,3.2,2.7
						C1024.2,243.6,1023.2,245.1,1021.6,245.4z"/>
					<path fill="#DEE4E5" d="M1022.9,251.5c-1.5,0.4-3.1-0.7-3.5-2.4c-0.4-1.8,0.6-3.4,2.2-3.7c1.6-0.3,3.1,0.8,3.4,2.5
						C1025.4,249.5,1024.4,251.1,1022.9,251.5z"/>
					<path fill="#DEE4E5" d="M1024.7,257.5c-1.5,0.5-3.2-0.4-3.7-2.1c-0.5-1.7,0.4-3.5,1.9-3.8c1.5-0.4,3.1,0.6,3.6,2.2
						C1027,255.3,1026.2,257,1024.7,257.5z"/>
					<path fill="#DEE4E5" d="M1027.2,263.2c-1.4,0.7-3.2,0-4-1.7c-0.7-1.7,0-3.5,1.5-4c1.5-0.5,3.1,0.3,3.8,1.8
						C1029.1,260.8,1028.6,262.5,1027.2,263.2z"/>
				</g>
				<g>
					<path fill="#DEE4E5" d="M1030.5,268.5c-0.6,0.5-1.4,0.6-2.2,0.5c-0.8-0.2-1.6-0.7-2-1.5c-1-1.6-0.5-3.5,0.9-4.2
						c1.4-0.7,3.1-0.1,4,1.2c0.4,0.7,0.6,1.4,0.4,2.1C1031.5,267.3,1031.1,268,1030.5,268.5z"/>
					<path fill="#DEE4E5" d="M1034.9,272.8c-0.5,0.6-1.2,1-2,1c-0.8,0-1.7-0.4-2.4-1c-0.7-0.7-1-1.6-1-2.4c0-0.8,0.4-1.5,1-2
						c1.2-0.9,3.1-0.8,4.1,0.3c0.6,0.5,0.8,1.2,0.9,1.9C1035.5,271.4,1035.4,272.2,1034.9,272.8z"/>
					<path fill="#DEE4E5" d="M1040.5,275.6c-0.2,0.8-0.8,1.3-1.5,1.6c-0.4,0.1-0.8,0.2-1.3,0.2c-0.5,0-0.9-0.2-1.3-0.4
						c-0.4-0.2-0.8-0.5-1.1-0.8c-0.3-0.3-0.5-0.7-0.6-1.1c-0.2-0.8-0.1-1.6,0.4-2.2c0.5-0.6,1.2-1,1.9-1.2c0.4-0.1,0.7-0.1,1,0
						c0.4,0,0.7,0.1,1,0.3c0.3,0.2,0.6,0.4,0.8,0.7c0.2,0.2,0.4,0.5,0.6,0.9C1040.6,274.1,1040.7,274.9,1040.5,275.6z"/>
					<path fill="#DEE4E5" d="M1046.6,276.5c0.1,1.6-1.5,2.8-3.5,2.7c-1-0.2-1.8-0.7-2.3-1.3c-0.5-0.6-0.6-1.5-0.4-2.2
						c0.2-0.8,0.7-1.3,1.4-1.7c0.6-0.4,1.3-0.6,2-0.4C1045.3,273.6,1046.6,275,1046.6,276.5z"/>
					<path fill="#DEE4E5" d="M1052.8,275.6c0.5,1.5-0.7,3.2-2.7,3.5c-1,0.2-1.9-0.1-2.5-0.6c-0.6-0.5-1-1.2-1-2
						c0-0.8,0.3-1.5,0.8-2.1c0.5-0.6,1.2-0.9,1.9-1C1050.8,273.2,1052.3,274.1,1052.8,275.6z"/>
					<path fill="#DEE4E5" d="M1058.4,273c0.4,0.6,0.6,1.4,0.3,2.2c-0.3,0.7-0.9,1.5-1.8,1.9c-0.9,0.4-1.9,0.4-2.6,0.1
						c-0.8-0.3-1.3-0.9-1.5-1.7c-0.2-0.8-0.1-1.5,0.2-2.2c0.3-0.7,0.8-1.2,1.5-1.5c0.6-0.4,1.4-0.4,2.1-0.2
						C1057.3,271.9,1058,272.3,1058.4,273z"/>
					<path fill="#DEE4E5" d="M1062.9,268.7c0.6,0.5,1,1.2,1,2c0,0.8-0.4,1.7-1.1,2.3c-0.7,0.6-1.6,1-2.4,1c-0.8-0.1-1.5-0.4-2-1.1
						c-0.4-0.7-0.6-1.4-0.5-2.1c0.1-0.7,0.4-1.4,0.9-1.9c0.5-0.5,1.2-0.8,2-0.8C1061.6,268.1,1062.3,268.2,1062.9,268.7z"/>
					<path fill="#DEE4E5" d="M1066.3,263.5c0.7,0.4,1.2,1,1.4,1.8c0.2,0.8,0.1,1.7-0.5,2.5c-1,1.6-3,2-4.2,1c-1.2-1-1.4-2.8-0.6-4.1
						c0.4-0.6,1-1.1,1.7-1.3C1064.8,263.1,1065.6,263.1,1066.3,263.5z"/>
				</g>
				<g>
					<path fill="#DEE4E5" d="M1068.6,257.7c1.5,0.5,2.3,2.3,1.6,4c-0.3,0.9-1,1.5-1.7,1.8c-0.7,0.3-1.5,0.3-2.2,0
						c-0.7-0.4-1.2-1-1.5-1.7c-0.2-0.7-0.2-1.5,0-2.2C1065.5,258.1,1067,257.2,1068.6,257.7z"/>
					<path fill="#DEE4E5" d="M1070.1,251.6c1.6,0.3,2.5,2,2.1,3.8c-0.2,0.9-0.8,1.6-1.4,2c-0.7,0.4-1.5,0.5-2.2,0.3
						c-0.8-0.2-1.3-0.8-1.7-1.5c-0.3-0.7-0.5-1.5-0.2-2.3C1067.1,252.4,1068.6,251.3,1070.1,251.6z"/>
					<path fill="#DEE4E5" d="M1071.2,245.5c1.6,0.2,2.7,1.8,2.4,3.6c-0.3,1.8-1.9,2.9-3.4,2.6c-1.6-0.3-2.5-1.9-2.3-3.5
						C1068.2,246.5,1069.6,245.3,1071.2,245.5z"/>
					<path fill="#DEE4E5" d="M1071.8,239.3c1.6,0.1,2.7,1.6,2.6,3.4c-0.2,1.8-1.6,3-3.2,2.8c-1.6-0.2-2.6-1.7-2.5-3.4
						C1068.9,240.4,1070.2,239.2,1071.8,239.3z"/>
					<path fill="#DEE4E5" d="M1072.1,233.1c1.6,0,2.8,1.5,2.7,3.3c-0.1,1.8-1.5,3.1-3.1,3c-1.6-0.1-2.8-1.6-2.7-3.3
						C1069.2,234.3,1070.6,233,1072.1,233.1z"/>
					<path fill="#DEE4E5" d="M1072.3,226.8c1.6,0,2.9,1.4,2.8,3.2c0,1.7-1.4,3.1-2.9,3.1c-1.6-0.1-2.8-1.5-2.8-3.2
						C1069.4,228.2,1070.7,226.8,1072.3,226.8z"/>
					<path fill="#DEE4E5" d="M1072.2,220.6c1.6,0,2.9,1.4,2.9,3.1c0,1.7-1.3,3.1-2.9,3.1c-1.6,0-2.9-1.4-2.9-3.1
						C1069.4,222,1070.6,220.6,1072.2,220.6z"/>
					<path fill="#DEE4E5" d="M1072.2,214.3c1.6,0,2.9,1.4,2.9,3.1c0,1.7-1.2,3.1-2.8,3.1c-1.6,0-2.9-1.4-2.9-3.1
						C1069.3,215.8,1070.6,214.3,1072.2,214.3z"/>
				</g>
			</g>
		</g>
	</g>
</g>
<g>
	<g>
		<defs>
			<path id="SVGID_78_" d="M888,814.5c0,33-27,60-60,60H680c-33,0-60-27-60-60v-148c0-33,27-60,60-60h148c33,0,60,27,60,60V814.5z"
				/>
		</defs>
		<clipPath id="SVGID_20_">
			<use xlink:href="#SVGID_78_"  overflow="visible"/>
		</clipPath>
		<radialGradient id="SVGID_21_" cx="620.8001" cy="604.5" r="380.2484" gradientUnits="userSpaceOnUse">
			<stop  offset="0" style="stop-color:#56626B"/>
			<stop  offset="1" style="stop-color:#2F363D"/>
		</radialGradient>
		<rect x="619" y="604.5" clip-path="url(#SVGID_20_)" fill="url(#SVGID_21_)" width="270" height="270"/>
		<g clip-path="url(#SVGID_20_)">
			<rect x="732.5" y="771.5" fill="#F9DFA9" width="41.1" height="52.5"/>
			<path fill="#EACE95" d="M773.6,771.5v24c-16.2-2.7-30.5-10.8-41.1-22.4v-1.6H773.6z"/>
			<path fill="#FFE8B9" d="M799.7,711.9c0,30.4-20.9,68.3-46.6,68.3c-25.8,0-46.6-37.9-46.6-68.3s20.9-55,46.6-55
				C778.8,657,799.7,681.6,799.7,711.9z"/>
			<path fill="#F9DFA9" d="M799.7,711.9c0,30.4-20.9,68.3-46.6,68.3V657C778.8,657,799.7,681.6,799.7,711.9z"/>
			<path fill="#1BBB9C" d="M838.2,874.5H667.8c0,0,5.5-50.9,10.7-57.3c1.3-1.6,3.1-3.1,5.1-4.6c15.5-11,48.8-18,48.8-18
				c0.2,11.2,10.4,16.9,20.6,16.9c10.2,0,20.4-5.6,20.6-16.9c0,0,42.7,8.9,53.9,22.6C832.7,823.6,838.2,874.5,838.2,874.5z"/>
			<path fill="#1AB294" d="M838.2,874.5H753v-63c10.2,0,20.4-5.6,20.6-16.9c0,0,42.7,8.9,53.9,22.6
				C832.7,823.6,838.2,874.5,838.2,874.5z"/>
			<path fill="#FFE8B9" d="M720.5,721.1c0,9.3-4.9,16.8-10.9,16.8c-6,0-10.6-11.5-10.6-20.8c0-9.3,4.6-12.8,10.6-12.8
				C715.6,704.3,720.5,711.8,720.5,721.1z"/>
			<path fill="#F9DFA9" d="M785.5,721.1c0,9.3,4.9,16.8,10.9,16.8s10.6-11.5,10.6-20.8c0-9.3-4.6-12.8-10.6-12.8
				S785.5,711.8,785.5,721.1z"/>
			<path fill="#2F343B" d="M783.4,634.6c-2.3,21.5-35.8-0.4-60.7,11.4c-6.2,2.9-14.3,10-18.8,18.1c-8,14.5-1.9,42.8-1.9,42.8
				s2.2-2.1,4.5-2.3c2.3-0.3,3,17.5,3,17.5h2.6c0,0,1-8.9,3.4-15.1c0,0,3.6-6.5,1.2-10.9c-2.4-4.3-0.8-18.4,7-23.5
				c8.2-5.3,16.2-2.3,34.4,3.6c15.9,5.2,22.2-3.3,24.8-0.3c5.6,6.5,4.8,14.7,4.8,14.7s-0.1,2.7-1.2,6.4c-0.9,3,2.4,7.5,3.6,9.8
				c3,6,3.4,15.1,3.4,15.1h2.6c0,0,0.7-17.8,3-17.5c2.3,0.3,4.5,2.3,4.5,2.3s7.2-26.5-0.2-41.3C796.5,652.1,783.4,634.6,783.4,634.6
				z"/>
			<rect x="781" y="852" fill="#1BBB9C" width="33.9" height="6.4"/>
			<g>
				<defs>
					<path id="SVGID_55_" d="M838.2,874.5H667.8c0,0,5.5-50.9,10.7-57.3c1.3-1.6,3.1-3.1,5.1-4.6c15.5-11,48.8-18,48.8-18
						c0.2,11.2,10.4,16.9,20.6,16.9c10.2,0,20.4-5.6,20.6-16.9c0,0,42.7,8.9,53.9,22.6C832.7,823.6,838.2,874.5,838.2,874.5z"/>
				</defs>
				<clipPath id="SVGID_22_">
					<use xlink:href="#SVGID_55_"  overflow="visible"/>
				</clipPath>
				<g clip-path="url(#SVGID_22_)">
					<rect x="667.8" y="866.8" fill="#48C8AF" width="85.2" height="7.7"/>
					<rect x="667.8" y="853.2" fill="#48C8AF" width="85.2" height="7.7"/>
					<rect x="667.8" y="839.7" fill="#48C8AF" width="85.2" height="7.7"/>
					<rect x="667.8" y="826.1" fill="#48C8AF" width="85.2" height="7.7"/>
					<rect x="667.8" y="812.6" fill="#48C8AF" width="85.2" height="7.7"/>
					<rect x="667.8" y="799" fill="#48C8AF" width="85.2" height="7.7"/>
				</g>
				<g clip-path="url(#SVGID_22_)">
					<rect x="753" y="866.8" fill="#44BCA4" width="85.2" height="7.7"/>
					<rect x="753" y="853.2" fill="#44BCA4" width="85.2" height="7.7"/>
					<rect x="753" y="839.7" fill="#44BCA4" width="85.2" height="7.7"/>
					<rect x="753" y="826.1" fill="#44BCA4" width="85.2" height="7.7"/>
					<rect x="753" y="812.6" fill="#44BCA4" width="85.2" height="7.7"/>
					<rect x="753" y="799" fill="#44BCA4" width="85.2" height="7.7"/>
				</g>
			</g>
			<path fill="#2F343B" d="M773.6,757.9h-4.3c0,0,2.6,9-4.9,9c-7.5,0-5-7.1-5-7.1l-6.3,0.3l-6.3-0.3c0,0,2.4,7.1-5,7.1s-4.9-9-4.9-9
				h-4.3c0,0-3,6.7-1.9,13.6c1,6.9,5.9,17.2,22.5,17.2c16.6,0,21.4-10.3,22.5-17.2C776.5,764.6,773.6,757.9,773.6,757.9z"/>
		</g>
	</g>
</g>
<g>
	<g>
		<defs>
			<path id="SVGID_70_" d="M598,813.5c0,33-27,60-60,60H390c-33,0-60-27-60-60v-148c0-33,27-60,60-60h148c33,0,60,27,60,60V813.5z"
				/>
		</defs>
		<clipPath id="SVGID_23_">
			<use xlink:href="#SVGID_70_"  overflow="visible"/>
		</clipPath>
		<radialGradient id="SVGID_24_" cx="330.8001" cy="604.5" r="380.2484" gradientUnits="userSpaceOnUse">
			<stop  offset="0" style="stop-color:#56626B"/>
			<stop  offset="1" style="stop-color:#2F363D"/>
		</radialGradient>
		<rect x="329" y="604.5" clip-path="url(#SVGID_23_)" fill="url(#SVGID_24_)" width="270" height="270"/>
		<g clip-path="url(#SVGID_23_)">
			<rect x="443.5" y="771.5" fill="#F9DFA9" width="41.1" height="52.5"/>
			<path fill="#EACE95" d="M484.7,771.5v24c-16.2-2.7-30.5-10.8-41.1-22.4v-1.6H484.7z"/>
			<path fill="#FFE8B9" d="M510.7,711.9c0,30.4-20.9,68.3-46.6,68.3s-46.6-37.9-46.6-68.3s8.1-55,46.6-55S510.7,681.6,510.7,711.9z"
				/>
			<path fill="#F9DFA9" d="M510.7,711.9c0,30.4-20.9,68.3-46.6,68.3V657C502.6,657,510.7,681.6,510.7,711.9z"/>
			<path fill="#6E655F" d="M549.3,874.5H378.9c0,0,5.5-50.9,10.7-57.3c11.2-13.7,53.9-22.6,53.9-22.6c0.2,11.2,10.4,16.9,20.6,16.9
				c10.2,0,20.4-5.6,20.6-16.9c0,0,42.7,8.9,53.9,22.6C543.7,823.6,549.3,874.5,549.3,874.5z"/>
			<path fill="#615954" d="M549.3,874.5h-85.2v-63c10.2,0,20.4-5.6,20.6-16.9c0,0,42.7,8.9,53.9,22.6
				C543.7,823.6,549.3,874.5,549.3,874.5z"/>
			<path fill="#E5EBEC" d="M464,860.2c0,0-20.7-25.6-20.7-65c0-4.4,0.2-7.2,0.2-7.2c0,13.2,41,12.7,41.1,0c0,0,0.2,2.8,0.2,7
				C484.9,844.4,464,860.2,464,860.2z"/>
			<path fill="#FFE8B9" d="M431.6,721.1c0,9.3-4.9,16.8-10.9,16.8c-6,0-10.6-11.5-10.6-20.8c0-9.3,4.6-12.8,10.6-12.8
				C426.7,704.3,431.6,711.8,431.6,721.1z"/>
			<path fill="#F9DFA9" d="M496.5,721.1c0,9.3,4.9,16.8,10.9,16.8c6,0,10.6-11.5,10.6-20.8c0-9.3-4.6-12.8-10.6-12.8
				C501.4,704.3,496.5,711.8,496.5,721.1z"/>
			<g>
				<defs>
					<path id="SVGID_47_" d="M464,860.2c0,0-20.7-25.6-20.7-65c0-4.4,0.2-7.2,0.2-7.2c0,13.2,41,12.7,41.1,0c0,0,0.2,2.8,0.2,7
						C484.9,844.4,464,860.2,464,860.2z"/>
				</defs>
				<clipPath id="SVGID_25_">
					<use xlink:href="#SVGID_47_"  overflow="visible"/>
				</clipPath>
				<g clip-path="url(#SVGID_25_)">
					<polygon fill="#169F84" points="459.4,814.2 454.6,874.5 473.6,874.5 469.1,814.2 					"/>
					<path fill="#14937B" d="M464.1,797.7c8.4,0,15.4,0,15.4,0l-10.4,16.5h-9.7l-10.9-16.5H464.1z"/>
				</g>
			</g>
			<path fill="#F9FBFB" d="M443.5,787c5.4,7.1,9.3,10.2,20.6,10.5l-15.2,17.8l-5.4-19.8V787z"/>
			<path fill="#F9FBFB" d="M484.7,787c-5.4,7.1-9.3,10.2-20.6,10.5l15.2,17.8l5.4-20.7V787z"/>
			<path fill="#F9FBFB" d="M431.6,667c0,0-1.8-2.6-4.5-3c-2.7-0.4-11.7,10.6-13.2,21.5c-1.4,10.9-0.7,21.5-0.7,21.5l4.3-2.4
				c0,0,1.5-0.2,2,3.6c0.5,3.8,1.2,16,1.2,16h3.4c0,0,3.4-19.3,2.9-22.5c-0.5-3.3-2.9-8.1-1.4-14.2C427.1,681.4,431.6,667,431.6,667
				z"/>
			<path fill="#F9FBFB" d="M496.5,667c0,0,1.8-2.6,4.5-3c2.7-0.4,11.7,10.6,13.2,21.5c1.4,10.9,0.7,21.5,0.7,21.5l-4.3-2.4
				c0,0-1.5-0.2-2,3.6c-0.5,3.8-1.2,16-1.2,16h-3.4c0,0-3.4-19.3-2.9-22.5c0.5-3.3,2.9-8.1,1.4-14.2
				C501.1,681.4,496.5,667,496.5,667z"/>
			<path fill="#304457" d="M456.5,706.4h-17.8c-5.2,0-9.5,4.3-9.5,9.5c0,7,5.7,12.7,12.7,12.7h9.2c5.7,0,10.3-4.6,10.3-10.3v-6.9
				C461.5,708.6,459.2,706.4,456.5,706.4z M458.7,718.2c0,4.3-3.5,7.8-7.8,7.8h-8.8c-5.6,0-10.1-4.5-10.1-10.1c0-3.9,3.2-7,7-7h16.9
				c1.5,0,2.8,1.2,2.8,2.8V718.2z"/>
			<path fill="#304457" d="M466.7,711.4v6.9c0,5.7,4.6,10.3,10.3,10.3h9.2c7,0,12.7-5.7,12.7-12.7c0-5.2-4.3-9.5-9.5-9.5h-17.8
				C468.9,706.4,466.7,708.6,466.7,711.4z M469.5,711.7c0-1.5,1.2-2.8,2.8-2.8h16.9c3.9,0,7,3.2,7,7c0,5.6-4.5,10.1-10.1,10.1h-8.8
				c-4.3,0-7.8-3.5-7.8-7.8V711.7z"/>
		</g>
	</g>
</g>
<g>
	<g>
		<defs>
			<path id="SVGID_64_" d="M308,813.5c0,33-27,60-60,60H100c-33,0-60-27-60-60v-148c0-33,27-60,60-60h148c33,0,60,27,60,60V813.5z"
				/>
		</defs>
		<clipPath id="SVGID_26_">
			<use xlink:href="#SVGID_64_"  overflow="visible"/>
		</clipPath>
		<radialGradient id="SVGID_27_" cx="40.8001" cy="604.5" r="380.2484" gradientUnits="userSpaceOnUse">
			<stop  offset="0" style="stop-color:#56626B"/>
			<stop  offset="1" style="stop-color:#2F363D"/>
		</radialGradient>
		<rect x="39" y="604.5" clip-path="url(#SVGID_26_)" fill="url(#SVGID_27_)" width="270" height="270"/>
		<g clip-path="url(#SVGID_26_)">
			<rect x="154.6" y="771.5" fill="#F9DFA9" width="41.1" height="52.5"/>
			<path fill="#EACE95" d="M195.7,771.5v24c-16.2-2.7-30.5-10.8-41.1-22.4v-1.6H195.7z"/>
			<path fill="#FFE8B9" d="M221.8,711.9c0,30.4-20.9,68.3-46.6,68.3c-25.8,0-46.6-37.9-46.6-68.3s6.2-55,46.6-55
				C215.5,657,221.8,681.6,221.8,711.9z"/>
			<path fill="#E5EBEC" d="M195.7,829.6h-41.1V788c0,13.2,41,12.7,41.1,0V829.6z"/>
			<path fill="#F9DFA9" d="M221.8,711.9c0,30.4-20.9,68.3-46.6,68.3V657C215.5,657,221.8,681.6,221.8,711.9z"/>
			<path fill="#BBD9BD" d="M260.3,874.5H89.9c0,0,5.5-50.9,10.7-57.3c11.2-13.7,53.9-22.6,53.9-22.6c10.3,2.8,10.3,2.8,20.6,2.8
				c10.2,0,10.2,0,20.6-2.8c0,0,42.7,8.9,53.9,22.6C254.8,823.6,260.3,874.5,260.3,874.5z"/>
			<path fill="#E3F4E4" d="M154.6,787c5.4,7.1,9.3,10.2,20.6,10.5l-15.2,17.8l-7-16.9L154.6,787z"/>
			<path fill="#B1CEB3" d="M260.3,874.5h-85.2l0-77.1c10.2,0,11.1,0.3,20.6-2.8c0,0,42.7,8.9,53.9,22.6
				C254.8,823.6,260.3,874.5,260.3,874.5z"/>
			<path fill="#E3F4E4" d="M195.7,787c-5.4,7.1-9.3,10.2-20.6,10.5l15.2,17.8l7-16.9L195.7,787z"/>
			<path fill="#FFE8B9" d="M142.6,721.1c0,9.3-4.9,16.8-10.9,16.8s-10.6-11.5-10.6-20.8c0-9.3,4.6-12.8,10.6-12.8
				S142.6,711.8,142.6,721.1z"/>
			<path fill="#F9DFA9" d="M207.6,721.1c0,9.3,4.9,16.8,10.9,16.8s10.6-11.5,10.6-20.8c0-9.3-4.6-12.8-10.6-12.8
				S207.6,711.8,207.6,721.1z"/>
			<path fill="#2F343B" d="M218.4,722.1h-2.6c0,0-0.6,13.8-7.1,20.1c-3.3,3.1,6.8,31.5-33.6,31.5c-40.4,0-30.4-28.4-33.6-31.5
				c-6.5-6.3-7.1-20.1-7.1-20.1h-2.6c0,0-0.2,10.9,0,17.6c0.2,6.8,0.8,27.8,14.4,43.8c13.6,16,44.2,16,57.8,0
				c13.6-16,14.2-37,14.4-43.8C218.6,732.9,218.4,722.1,218.4,722.1z"/>
			<rect x="201.2" y="854.2" fill="#BBD9BD" width="31.6" height="6"/>
			<path fill="#2F343B" d="M175.1,639.3c19.6,0,39.9,9.2,46.7,22.8c7.4,14.8,4.1,44.8,4.1,44.8s-2.2-2.1-4.5-2.3
				c-2.3-0.3-3,17.5-3,17.5h-2.6c0,0-1-8.9-3.4-15.1c0,0-4.1-5.8-1.5-10c7.5-12.4-22.9-4.8-40.1-10.9c-12-4.3-17.4-16.2-23.6-13.8
				c-13,5.2-13,14.9-8,25c1.8,3.7-1.3,9.6-1.3,9.6c-2.3,6.3-3.4,15.1-3.4,15.1h-2.6c0,0-0.7-17.8-3-17.5c-2.3,0.3-4.5,2.3-4.5,2.3
				s-3.4-30,4-44.8C135.2,648.5,155.5,639.3,175.1,639.3z"/>
		</g>
	</g>
</g>
<g>
	<g>
		<defs>
			<path id="SVGID_59_" d="M888,523.5c0,33-27,60-60,60H680c-33,0-60-27-60-60v-148c0-33,27-60,60-60h148c33,0,60,27,60,60V523.5z"
				/>
		</defs>
		<clipPath id="SVGID_28_">
			<use xlink:href="#SVGID_59_"  overflow="visible"/>
		</clipPath>
		<radialGradient id="SVGID_29_" cx="620.8001" cy="314.5" r="380.2484" gradientUnits="userSpaceOnUse">
			<stop  offset="0" style="stop-color:#56626B"/>
			<stop  offset="1" style="stop-color:#2F363D"/>
		</radialGradient>
		<rect x="619" y="314.5" clip-path="url(#SVGID_28_)" fill="url(#SVGID_29_)" width="270" height="270"/>
		<g clip-path="url(#SVGID_28_)">
			<rect x="732.5" y="481.4" fill="#F9DFA9" width="41.1" height="52.5"/>
			<path fill="#EACE95" d="M773.6,481.4v24c-16.2-2.7-30.5-10.8-41.1-22.4v-1.6H773.6z"/>
			<path fill="#FFE8B9" d="M799.7,421.9c0,30.4-20.9,68.3-46.6,68.3c-25.8,0-46.6-37.9-46.6-68.3s20.9-55,46.6-55
				C778.8,366.9,799.7,391.5,799.7,421.9z"/>
			<path fill="#F9DFA9" d="M799.7,421.9c0,30.4-20.9,68.3-46.6,68.3V366.9C778.8,366.9,799.7,391.5,799.7,421.9z"/>
			<path fill="#FFE8B9" d="M720.6,431.1c0,9.3-4.9,16.8-10.9,16.8S699,436.4,699,427.1c0-9.3,4.6-12.8,10.6-12.8
				S720.6,421.8,720.6,431.1z"/>
			<path fill="#F9DFA9" d="M785.5,431.1c0,9.3,4.9,16.8,10.9,16.8c6,0,10.6-11.5,10.6-20.8c0-9.3-4.6-12.8-10.6-12.8
				C790.4,414.2,785.5,421.8,785.5,431.1z"/>
			<path fill="#907264" d="M753.1,354.4c19.6,0,40.2,11.2,47,24.8c7.4,14.8,3.7,37.8,3.7,37.8s-2.2-2.1-4.5-2.3
				c-2.3-0.3-3,17.5-3,17.5h-2.6c0,0-1-8.9-3.4-15.1c0,0-4.1-5.8-1.5-10c7.5-12.4-23.8-12.5-35.8-12.5c-12,0-43.3-2.1-35.9,12.9
				c1.8,3.7-1.3,9.6-1.3,9.6c-2.3,6.3-3.4,15.1-3.4,15.1h-2.6c0,0-0.7-17.8-3-17.5c-2.3,0.3-4.5,2.3-4.5,2.3s-3-23,4.4-37.8
				C713.5,365.6,733.4,354.4,753.1,354.4z"/>
			<path fill="#E5EBEC" d="M838.2,584.5H667.8c0,0,5.5-50.9,10.7-57.3c11.2-13.7,53.9-22.6,53.9-22.6c10.3,2.8,10.3,2.8,20.6,2.8
				c10.2,0,10.2,0,20.6-2.8c0,0,42.7,8.9,53.9,22.6C832.7,533.6,838.2,584.5,838.2,584.5z"/>
			<path fill="#DEE4E5" d="M838.2,584.5H753l0-77.1c10.2,0,11.1,0.3,20.6-2.8c0,0,42.7,8.9,53.9,22.6
				C832.7,533.6,838.2,584.5,838.2,584.5z"/>
			<polygon fill="#4A413D" points="750.5,523.2 743.2,584.5 763.5,584.5 756,523.2 			"/>
			<path fill="#4A413D" d="M753.1,506.7c8.4,0,15.4,0,15.4,0L756,523.2h-5.5l-13-16.5H753.1z"/>
			<path fill="#F7F9F9" d="M732.5,496c5.4,7.1,9.3,10.2,20.6,10.5l-15.2,17.8l-7-16.9L732.5,496z"/>
			<path fill="#F7F9F9" d="M773.6,496c-5.4,7.1-9.3,10.2-20.6,10.5l15.2,17.8l7-16.9L773.6,496z"/>
			<path fill="#907264" d="M753,457.3c-6.4,0-12.5,1.2-15.5,4.6s-2.1,15.2-2.1,15.2l4.2-2c0,0,0.4-6.8,1.4-8.7c1-2,12-1.7,12-1.7
				V457.3z"/>
			<path fill="#907264" d="M753,457.3c6.4,0,12.5,1.2,15.5,4.6s2.1,15.2,2.1,15.2l-4.2-2c0,0-0.4-6.8-1.4-8.7c-1-2-12-1.7-12-1.7
				V457.3z"/>
			<path fill="#2B3E50" d="M748.4,423.2c-0.3-0.5-0.8-0.7-1.4-0.7h-22.1c-1,0-1.7,0.8-1.7,1.7v11c0,1.5,1.2,2.8,2.8,2.8h15.2
				c1.9,0,3.6-1.2,4.2-3l3.3-10.2C748.8,424.2,748.7,423.6,748.4,423.2z M743.3,434.2c-0.3,0.9-1.2,1.6-2.2,1.6h-15.2
				c-0.4,0-0.7-0.3-0.7-0.7v-10.6h21.3L743.3,434.2z"/>
			<path fill="#2B3E50" d="M757.5,424.7l3.3,10.2c0.6,1.8,2.3,3,4.2,3h15.2c1.5,0,2.8-1.2,2.8-2.8v-11c0-1-0.8-1.7-1.7-1.7h-22.1
				c-0.6,0-1.1,0.3-1.4,0.7C757.4,423.6,757.3,424.2,757.5,424.7z M759.6,424.5h21.3v10.6c0,0.4-0.3,0.7-0.7,0.7H765
				c-1,0-1.9-0.6-2.2-1.6L759.6,424.5z"/>
		</g>
	</g>
</g>
<g>
	<g>
		<defs>
			<path id="SVGID_54_" d="M598,523.5c0,33-27,60-60,60H390c-33,0-60-27-60-60v-148c0-33,27-60,60-60h148c33,0,60,27,60,60V523.5z"
				/>
		</defs>
		<clipPath id="SVGID_30_">
			<use xlink:href="#SVGID_54_"  overflow="visible"/>
		</clipPath>
		<radialGradient id="SVGID_31_" cx="330.8001" cy="314.5" r="380.2484" gradientUnits="userSpaceOnUse">
			<stop  offset="0" style="stop-color:#56626B"/>
			<stop  offset="1" style="stop-color:#2F363D"/>
		</radialGradient>
		<rect x="329" y="314.5" clip-path="url(#SVGID_30_)" fill="url(#SVGID_31_)" width="270" height="270"/>
		<g clip-path="url(#SVGID_30_)">
			<rect x="443.5" y="481.5" fill="#F9DFA9" width="41.1" height="52.5"/>
			<path fill="#EACE95" d="M484.7,481.5v24c-16.2-2.7-30.5-10.8-41.1-22.4v-1.6H484.7z"/>
			<path fill="#FFE8B9" d="M510.7,421.9c0,30.4-20.9,68.3-46.6,68.3s-46.6-37.9-46.6-68.3c0-30.4,20.9-55,46.6-55
				S510.7,391.6,510.7,421.9z"/>
			<path fill="#F9DFA9" d="M510.7,421.9c0,30.4-20.9,68.3-46.6,68.3V367C489.8,367,510.7,391.6,510.7,421.9z"/>
			<path fill="#2F343B" d="M549.3,584.5H378.9c0,0,5.5-50.9,10.7-57.3c11.2-13.7,53.9-22.6,53.9-22.6c0.2,11.2,10.4,16.9,20.6,16.9
				c10.2,0,20.4-5.6,20.6-16.9c0,0,42.7,8.9,53.9,22.6C543.7,533.6,549.3,584.5,549.3,584.5z"/>
			<path fill="#292D33" d="M549.3,584.5h-85.2v-63c10.2,0,20.4-5.6,20.6-16.9c0,0,42.7,8.9,53.9,22.6
				C543.7,533.6,549.3,584.5,549.3,584.5z"/>
			<path fill="#E5EBEC" d="M484.7,549.1L464,570.2l-20.5-21.1V498c0,13.2,41,12.7,41.1,0V549.1z"/>
			<polygon fill="#415A76" points="461.5,524.2 454.3,559.3 464,570.1 474.4,559.4 467,524.2 			"/>
			<path fill="#3D444D" d="M443.5,502.6l-6.6,3.5l-6.7,23h11.7l-11,8.1l33.2,34l0-4.2C451.7,545.2,447.9,528.9,443.5,502.6z"/>
			<path fill="#3D444D" d="M485.4,502.6l5.8,3.5l6.7,23h-11.7l11,8.1l-33.2,34l0-4.2C476.4,545.2,481.1,528.9,485.4,502.6z"/>
			<path fill="#3E5670" d="M464.1,507.7c8.4,0,15.4,0,15.4,0L467,524.2h-5.5l-13-16.5H464.1z"/>
			<path fill="#F4F6F6" d="M443.5,497c5.4,7.1,9.3,10.2,20.6,10.5l-15.2,17.8l-5.4-19.8V497z"/>
			<path fill="#F4F6F6" d="M484.7,497c-5.4,7.1-9.3,10.2-20.6,10.5l15.2,17.8l5.4-20.7V497z"/>
			<path fill="#FFE8B9" d="M431.6,431.1c0,9.3-4.9,16.8-10.9,16.8c-6,0-10.6-11.5-10.6-20.8c0-9.3,4.6-12.8,10.6-12.8
				C426.7,414.3,431.6,421.8,431.6,431.1z"/>
			<path fill="#F9DFA9" d="M496.5,431.1c0,9.3,4.9,16.8,10.9,16.8c6,0,10.6-11.5,10.6-20.8c0-9.3-4.6-12.8-10.6-12.8
				C501.4,414.3,496.5,421.8,496.5,431.1z"/>
			<path fill="#2F343B" d="M464.1,349.3c19.6,0,39.9,9.2,46.7,22.8c7.4,14.8,4.1,44.8,4.1,44.8s-2.2-2.1-4.5-2.3
				c-2.3-0.3-3,17.5-3,17.5h-2.6c0,0-1-8.9-3.4-15.1c0,0-4.1-5.8-1.5-10c7.5-12.4-22.9-4.8-40.1-10.9c-12-4.3-17.4-16.2-23.6-13.8
				c-13,5.2-13,14.9-8,25c1.8,3.7-1.3,9.6-1.3,9.6c-2.3,6.3-3.4,15.1-3.4,15.1h-2.6c0,0-0.7-17.8-3-17.5c-2.3,0.3-4.5,2.3-4.5,2.3
				s-3.4-30,4-44.8C424.2,358.6,444.4,349.3,464.1,349.3z"/>
			<path fill="#2F343B" d="M483.4,475.3c-2.6,0-3.9-6.5-3.9-6.5s-5.9,9.2-11.8,9.2c-5.9,0-1.6,0-7.5,0c-5.9,0-11.8-9.2-11.8-9.2
				s-1.3,6.5-3.9,6.5c-7.3,0-14.4-9.3-14.4-9.3s12.8,34.8,33.5,35.5h0.6c20.8-0.7,33.5-35.5,33.5-35.5S490.7,475.3,483.4,475.3z"/>
		</g>
	</g>
</g>
<g>
	<g>
		<defs>
			<path id="SVGID_51_" d="M308,523.5c0,33-27,60-60,60H100c-33,0-60-27-60-60v-148c0-33,27-60,60-60h148c33,0,60,27,60,60V523.5z"
				/>
		</defs>
		<clipPath id="SVGID_32_">
			<use xlink:href="#SVGID_51_"  overflow="visible"/>
		</clipPath>
		<radialGradient id="SVGID_33_" cx="40.8001" cy="314.5" r="380.2484" gradientUnits="userSpaceOnUse">
			<stop  offset="0" style="stop-color:#56626B"/>
			<stop  offset="1" style="stop-color:#2F363D"/>
		</radialGradient>
		<rect x="39" y="314.5" clip-path="url(#SVGID_32_)" fill="url(#SVGID_33_)" width="270" height="270"/>
		<g clip-path="url(#SVGID_32_)">
			<rect x="154.6" y="481.5" fill="#F9DFA9" width="41.1" height="52.5"/>
			<path fill="#EACE95" d="M195.7,481.5v24c-16.2-2.7-30.5-10.8-41.1-22.4v-1.6H195.7z"/>
			<path fill="#FFE8B9" d="M221.8,421.9c0,30.4-20.9,68.3-46.6,68.3s-46.6-37.9-46.6-68.3c0-30.4,20.9-55,46.6-55
				S221.8,391.6,221.8,421.9z"/>
			<path fill="#F9DFA9" d="M221.8,421.9c0,30.4-20.9,68.3-46.6,68.3V367C200.9,367,221.8,391.6,221.8,421.9z"/>
			<path fill="#EB7063" d="M260.3,584.5H89.9c0,0,5.5-50.9,10.7-57.3c1.3-1.6,3.1-3.1,5.1-4.6c15.5-11,48.8-18,48.8-18
				c0.2,11.2,10.4,16.9,20.6,16.9c10.2,0,20.4-5.6,20.6-16.9c0,0,42.7,8.9,53.9,22.6C254.8,533.6,260.3,584.5,260.3,584.5z"/>
			<path fill="#DD695D" d="M260.3,584.5h-85.2v-63c10.2,0,20.4-5.6,20.6-16.9c0,0,42.7,8.9,53.9,22.6
				C254.8,533.6,260.3,584.5,260.3,584.5z"/>
			<path fill="#FFE8B9" d="M142.6,431.1c0,9.3-4.9,16.8-10.9,16.8s-10.6-11.5-10.6-20.8c0-9.3,4.6-12.8,10.6-12.8
				S142.6,421.8,142.6,431.1z"/>
			<path fill="#F9DFA9" d="M207.6,431.1c0,9.3,4.9,16.8,10.9,16.8c6,0,10.6-11.5,10.6-20.8c0-9.3-4.6-12.8-10.6-12.8
				C212.5,414.3,207.6,421.8,207.6,431.1z"/>
			<path fill="#ECBC6F" d="M143.9,351.2c-1.7,17.9,60.8-5.9,77.8,22.7c8.4,14.2,4.1,43,4.1,43s-2.2-2.1-4.5-2.3
				c-2.3-0.3-3,17.5-3,17.5h-2.6c0,0-1-8.9-3.4-15.1c0,0-3.6-6.5-1.2-10.9c2.4-4.3-2.4-20.3-7.5-22.8c-5-2.4-8.3,9.6-27.1,13.7
				c-18.8,4.2-36.5,3.6-36.5,3.6s-1.9,5.6-1,6.6c0.9,1-1.3,9.6-1.3,9.6c-2.3,6.3-3.4,15.1-3.4,15.1h-2.6c0,0-0.7-17.8-3-17.5
				c-2.3,0.3-4.5,2.3-4.5,2.3s-4.7-25.6,2.8-40.4C133.9,363,143.9,351.2,143.9,351.2z"/>
			<path fill="#2F343B" d="M168.1,419.3h-23.5c-1.3,0-2.3,1-2.3,2.3v10c0,2.9,2.3,5.2,5.2,5.2h15.3c4.2,0,7.7-3.4,7.7-7.7v-7.6
				C170.4,420.3,169.4,419.3,168.1,419.3z M168.1,429.1c0,2.9-2.4,5.3-5.3,5.3h-15.3c-1.6,0-2.8-1.3-2.8-2.8v-10l23.5,0.1
				L168.1,429.1z"/>
			<path fill="#2F343B" d="M179.8,421.6v7.6c0,4.2,3.4,7.7,7.7,7.7h15.3c2.9,0,5.2-2.3,5.2-5.2v-10c0-1.3-1-2.3-2.3-2.3h-23.5
				C180.8,419.3,179.8,420.3,179.8,421.6z M182.1,421.6l23.5-0.1v10c0,1.6-1.3,2.8-2.8,2.8h-15.3c-2.9,0-5.3-2.4-5.3-5.3
				L182.1,421.6z"/>
			<rect x="203.1" y="562" fill="#EB7063" width="33.9" height="6.4"/>
			<path fill="#D3A863" d="M152.4,457.7c0,3.5,2.9,6.4,6.4,6.4H170c2.8,0,5-2.2,5-5v-4.8c-11.3,0-18.6,8.3-22.6,0V457.7z"/>
			<path fill="#D3A863" d="M197.6,457.7c0,3.5-2.9,6.4-6.4,6.4H180c-2.8,0-5-2.2-5-5v-4.8c11.3,0,18.6,8.3,22.6,0V457.7z"/>
		</g>
	</g>
</g>
<g>
	<g>
		<defs>
			<path id="SVGID_90_" d="M888,233.5c0,33-27,60-60,60H680c-33,0-60-27-60-60v-148c0-33,27-60,60-60h148c33,0,60,27,60,60V233.5z"
				/>
		</defs>
		<clipPath id="SVGID_34_">
			<use xlink:href="#SVGID_90_"  overflow="visible"/>
		</clipPath>
		<radialGradient id="SVGID_35_" cx="620.8001" cy="24.5" r="380.2484" gradientUnits="userSpaceOnUse">
			<stop  offset="0" style="stop-color:#56626B"/>
			<stop  offset="1" style="stop-color:#2F363D"/>
		</radialGradient>
		<rect x="619" y="24.5" clip-path="url(#SVGID_34_)" fill="url(#SVGID_35_)" width="270" height="270"/>
		<g clip-path="url(#SVGID_34_)">
			<rect x="732.5" y="191.5" fill="#F9DFA9" width="41.1" height="52.5"/>
			<path fill="#EACE95" d="M773.6,191.5v24c-16.2-2.7-30.5-10.8-41.1-22.4v-1.6H773.6z"/>
			<path fill="#FFE8B9" d="M799.7,131.9c0,30.4-20.9,68.3-46.6,68.3c-25.8,0-46.6-37.9-46.6-68.3s20.9-55,46.6-55
				C778.8,77,799.7,101.6,799.7,131.9z"/>
			<path fill="#E5EBEC" d="M773.6,249.6h-41.1V208c0,13.2,41,12.7,41.1,0V249.6z"/>
			<path fill="#F9DFA9" d="M799.7,131.9c0,30.4-20.9,68.3-46.6,68.3V77C778.8,77,799.7,101.6,799.7,131.9z"/>
			<path fill="#71B5E5" d="M838.2,294.5H667.8c0,0,5.5-50.9,10.7-57.3c11.2-13.7,53.9-22.6,53.9-22.6c10.3,2.8,10.3,2.8,20.6,2.8
				c10.2,0,10.2,0,20.6-2.8c0,0,42.7,8.9,53.9,22.6C832.7,243.6,838.2,294.5,838.2,294.5z"/>
			<path fill="#80C3F1" d="M732.5,207c5.4,7.1,9.3,10.2,20.6,10.5l-15.2,17.8l-7-16.9L732.5,207z"/>
			<path fill="#5DACE1" d="M838.2,294.5H753l0-77.1c10.2,0,11.1,0.3,20.6-2.8c0,0,42.7,8.9,53.9,22.6
				C832.7,243.6,838.2,294.5,838.2,294.5z"/>
			<path fill="#80C3F1" d="M773.6,207c-5.4,7.1-9.3,10.2-20.6,10.5l15.2,17.8l7-16.9L773.6,207z"/>
			<path fill="#FFE8B9" d="M720.5,141.1c0,9.3-4.9,16.8-10.9,16.8c-6,0-10.6-11.5-10.6-20.8c0-9.3,4.6-12.8,10.6-12.8
				C715.6,124.3,720.5,131.8,720.5,141.1z"/>
			<path fill="#F9DFA9" d="M785.5,141.1c0,9.3,4.9,16.8,10.9,16.8c6,0,10.6-11.5,10.6-20.8c0-9.3-4.6-12.8-10.6-12.8
				C790.4,124.3,785.5,131.8,785.5,141.1z"/>
			<path fill="#2F343B" d="M753,67c19.6,0,39.9,9.2,46.7,22.8c7.4,14.8,4.1,37.2,4.1,37.2s-2.2-2.1-4.5-2.3c-2.3-0.3-3,17.5-3,17.5
				h-2.6c0,0-1-8.9-3.4-15.1c0,0-3.6-6.5-1.2-10.9c2.4-4.3-2.4-20.3-7.5-22.8c-5-2.4-8.3,9.6-27.1,13.7c-18.8,4.2-36.5,3.6-36.5,3.6
				s-1.9,5.6-1,6.6c0.9,1-1.3,9.6-1.3,9.6c-2.3,6.3-3.4,15.1-3.4,15.1h-2.6c0,0-0.7-17.8-3-17.5c-2.3,0.3-4.5,2.3-4.5,2.3
				s-3.4-22.4,4.1-37.2C713.2,76.2,733.4,67,753,67z"/>
			<path fill="#2F343B" d="M796.3,142.1h-2.6c0,0-0.6,13.8-7.1,20.1c-6.5,6.3-11.4,13.2-11.4,13.2s-1.2-3.3-1.6-4.6
				c-0.4-1.3-20.6-5.1-20.6-5.1s-20.2,3.8-20.6,5.1c-0.4,1.3-1.6,4.6-1.6,4.6s-4.9-6.9-11.4-13.2c-6.5-6.3-7.1-20.1-7.1-20.1h-2.6
				c0,0-0.2,10.9,0,17.6c0.2,6.8,4.7,32.3,17,38.4c12.3,6.1,26.2,6.8,26.2,6.8s13.9-0.7,26.2-6.8c12.3-6.1,16.8-31.6,17-38.4
				C796.5,152.9,796.3,142.1,796.3,142.1z"/>
			<path fill="#F9DFA9" d="M763.7,176.8c0,2.5-2.1,4.6-4.6,4.6h-13c-2.5,0-4.6-2.1-4.6-4.6v-0.1h22.2V176.8z"/>
			<rect x="779.1" y="274.2" fill="#71B5E5" width="31.6" height="6"/>
		</g>
	</g>
</g>
<g>
	<g>
		<defs>
			<path id="SVGID_87_" d="M598,233.5c0,33-27,60-60,60H390c-33,0-60-27-60-60v-148c0-33,27-60,60-60h148c33,0,60,27,60,60V233.5z"
				/>
		</defs>
		<clipPath id="SVGID_36_">
			<use xlink:href="#SVGID_87_"  overflow="visible"/>
		</clipPath>
		<radialGradient id="SVGID_37_" cx="330.8001" cy="24.5" r="380.2484" gradientUnits="userSpaceOnUse">
			<stop  offset="0" style="stop-color:#56626B"/>
			<stop  offset="1" style="stop-color:#2F363D"/>
		</radialGradient>
		<rect x="329" y="24.5" clip-path="url(#SVGID_36_)" fill="url(#SVGID_37_)" width="270" height="270"/>
		<g clip-path="url(#SVGID_36_)">
			<rect x="443.5" y="191.5" fill="#F9DFA9" width="41.1" height="52.5"/>
			<path fill="#EACE95" d="M484.7,191.5v24c-16.2-2.7-30.5-10.8-41.1-22.4v-1.6H484.7z"/>
			<path fill="#FFE8B9" d="M510.7,131.9c0,30.4-20.9,68.3-46.6,68.3s-46.6-37.9-46.6-68.3s20.9-55,46.6-55S510.7,101.6,510.7,131.9z
				"/>
			<path fill="#F9DFA9" d="M510.7,131.9c0,30.4-20.9,68.3-46.6,68.3V77C489.8,77,510.7,101.6,510.7,131.9z"/>
			<path fill="#94A4A5" d="M549.3,294.5H378.9c0,0,5.5-50.9,10.7-57.3c11.2-13.7,53.9-22.6,53.9-22.6c0.2,11.2,10.4,16.9,20.6,16.9
				c10.2,0,20.4-5.6,20.6-16.9c0,0,42.7,8.9,53.9,22.6C543.7,243.6,549.3,294.5,549.3,294.5z"/>
			<path fill="#889798" d="M549.3,294.5h-85.2v-63c10.2,0,20.4-5.6,20.6-16.9c0,0,42.7,8.9,53.9,22.6
				C543.7,243.6,549.3,294.5,549.3,294.5z"/>
			<path fill="#E5EBEC" d="M484.6,264.5L464,292.9l-20.6-28.3l0.1-56.5c0,13.2,41,12.7,41.1,0L484.6,264.5z"/>
			<polygon fill="#BC413C" points="461.5,234.2 454.3,269.3 464,288.7 474.4,269.4 467,234.2 			"/>
			<path fill="#ABBDBE" d="M443.5,207l-6.6,9.2c-3.5,5.8-6.1,10.6-6.7,23h11.7l-11,8.1l33.2,45.6l0-4.2
				C451.6,266.8,447.9,233.2,443.5,207z"/>
			<path fill="#ABBDBE" d="M484.7,207l6.6,9.2c5.8,7,6.9,13.3,6.7,23h-11.7l11,8.1L464,292.9l0-4.2
				C476.4,266.8,480.3,233.2,484.7,207z"/>
			<path fill="#AC3C37" d="M464.1,217.7c8.4,0,15.4,0,15.4,0L467,234.2h-5.5l-13-16.5H464.1z"/>
			<path fill="#F9F9F9" d="M443.5,207c5.4,7.1,9.3,10.2,20.6,10.5c-5.4,5.1-10.1,9.9-15.2,17.8C443.2,223.6,442.3,216.6,443.5,207z"
				/>
			<path fill="#F9F9F9" d="M484.6,207c-5.4,7.1-9.3,10.2-20.6,10.5c5.4,5.1,10.1,9.9,15.2,17.8C484.9,223.6,485.8,216.6,484.6,207z"
				/>
			<path fill="#FFE8B9" d="M431.6,141.1c0,9.3-4.9,16.8-10.9,16.8c-6,0-10.6-11.5-10.6-20.8c0-9.3,4.6-12.8,10.6-12.8
				C426.7,124.3,431.6,131.8,431.6,141.1z"/>
			<path fill="#F9DFA9" d="M496.5,141.1c0,9.3,4.9,16.8,10.9,16.8c6,0,10.6-11.5,10.6-20.8c0-9.3-4.6-12.8-10.6-12.8
				C501.4,124.3,496.5,131.8,496.5,141.1z"/>
			<path fill="#D28554" d="M464.1,59.3c19.6,0,39.9,9.2,46.7,22.8c7.4,14.8,4.1,44.8,4.1,44.8s-2.2-2.1-4.5-2.3
				c-2.3-0.3-3,17.5-3,17.5h-2.6c0,0-1-8.9-3.4-15.1c0,0-4.1-5.8-1.5-10c7.5-12.4,4.1-28.5-35.7-28.5c-39.8,0-43.3,13.9-36,28.9
				c1.8,3.7-1.3,9.6-1.3,9.6c-2.3,6.3-3.4,15.1-3.4,15.1h-2.6c0,0-0.7-17.8-3-17.5c-2.3,0.3-4.5,2.3-4.5,2.3s-3.4-30,4-44.8
				C424.2,68.6,444.4,59.3,464.1,59.3z"/>
			<polygon fill="#C67E4F" points="463.4,162.3 445.6,170.1 445.6,174.5 463.4,172.6 			"/>
			<polygon fill="#C67E4F" points="464.7,162.3 482.5,170.1 482.5,174.5 464.7,172.6 			"/>
			<path fill="#634E42" d="M457.2,129.6h-22c-1.5,0-2.7,1.4-2.7,3.2v6.2c0,3.1,2.1,5.7,4.8,5.7h14c4,0,7.3-3.9,7.3-8.7v-4.7
				C458.6,130.4,457.9,129.6,457.2,129.6z M456.5,136c0,3.4-2.3,6.2-5.2,6.2h-14c-1.5,0-2.7-1.4-2.7-3.2v-6.2c0-0.4,0.3-0.7,0.6-0.7
				h21.3V136z"/>
			<path fill="#634E42" d="M469.6,131.3v4.7c0,4.8,3.3,8.7,7.3,8.7h14c2.6,0,4.8-2.5,4.8-5.7v-6.2c0-1.8-1.2-3.2-2.7-3.2h-22
				C470.2,129.6,469.6,130.4,469.6,131.3z M471.7,132.1h21.3c0.3,0,0.6,0.3,0.6,0.7v6.2c0,1.8-1.2,3.2-2.7,3.2h-14
				c-2.9,0-5.2-2.8-5.2-6.2V132.1z"/>
		</g>
	</g>
</g>
<g>
	<g>
		<defs>
			<path id="SVGID_48_" d="M308,233.5c0,33-27,60-60,60H100c-33,0-60-27-60-60v-148c0-33,27-60,60-60h148c33,0,60,27,60,60V233.5z"
				/>
		</defs>
		<clipPath id="SVGID_38_">
			<use xlink:href="#SVGID_48_"  overflow="visible"/>
		</clipPath>
		<radialGradient id="SVGID_39_" cx="40.8001" cy="24.5" r="380.2484" gradientUnits="userSpaceOnUse">
			<stop  offset="0" style="stop-color:#56626B"/>
			<stop  offset="1" style="stop-color:#2F363D"/>
		</radialGradient>
		<rect x="39" y="24.5" clip-path="url(#SVGID_38_)" fill="url(#SVGID_39_)" width="270" height="270"/>
		<g clip-path="url(#SVGID_38_)">
			<rect x="154.6" y="191.5" fill="#F9DFA9" width="41.1" height="52.5"/>
			<path fill="#EACE95" d="M195.7,191.5v24c-16.2-2.7-30.5-10.8-41.1-22.4v-1.6H195.7z"/>
			<path fill="#FFE8B9" d="M221.8,131.9c0,30.4-20.9,68.3-46.6,68.3s-46.6-37.9-46.6-68.3s20.9-55,46.6-55S221.8,101.6,221.8,131.9z
				"/>
			<path fill="#E5EBEC" d="M195.7,249.6h-41.1V208c0,13.2,41,12.7,41.1,0V249.6z"/>
			<path fill="#F9DFA9" d="M221.8,131.9c0,30.4-20.9,68.3-46.6,68.3V77C200.9,77,221.8,101.6,221.8,131.9z"/>
			<path fill="#1BBB9C" d="M260.3,294.5H89.9c0,0,5.5-50.9,10.7-57.3c1.3-1.6,3.1-3.1,5.1-4.6c15.5-11,48.8-18,48.8-18
				c0.2,11.2,10.4,16.9,20.6,16.9c10.2,0,20.4-5.6,20.6-16.9c0,0,42.7,8.9,53.9,22.6C254.8,243.6,260.3,294.5,260.3,294.5z"/>
			<path fill="#F9F9F9" d="M154.6,207c5.4,7.1,9.3,10.2,20.6,10.5l-15.2,17.8l-7-16.9L154.6,207z"/>
			<path fill="#1AB294" d="M260.3,294.5h-85.2v-63c10.2,0,20.4-5.6,20.6-16.9c0,0,42.7,8.9,53.9,22.6
				C254.8,243.6,260.3,294.5,260.3,294.5z"/>
			<path fill="#F9F9F9" d="M195.7,207c-5.4,7.1-9.3,10.2-20.6,10.5l15.2,17.8l7-16.9L195.7,207z"/>
			<path fill="#FFE8B9" d="M142.6,141.1c0,9.3-4.9,16.8-10.9,16.8s-10.6-11.5-10.6-20.8c0-9.3,4.6-12.8,10.6-12.8
				S142.6,131.8,142.6,141.1z"/>
			<path fill="#F9DFA9" d="M207.6,141.1c0,9.3,4.9,16.8,10.9,16.8c6,0,10.6-11.5,10.6-20.8c0-9.3-4.6-12.8-10.6-12.8
				C212.5,124.3,207.6,131.8,207.6,141.1z"/>
			<path fill="#574A48" d="M175.1,67c19.6,0,39.9,9.2,46.7,22.8c7.4,14.8,4.1,37.2,4.1,37.2s-2.2-2.1-4.5-2.3
				c-2.3-0.3-3,17.5-3,17.5h-2.6c0,0-1-8.9-3.4-15.1c0,0-3.6-6.5-1.2-10.9c2.4-4.3-2.4-20.3-7.5-22.8c-5-2.4-8.3,9.6-27.1,13.7
				c-18.8,4.2-36.5,3.6-36.5,3.6s-1.9,5.6-1,6.6c0.9,1-1.3,9.6-1.3,9.6c-2.3,6.3-3.4,15.1-3.4,15.1h-2.6c0,0-0.7-17.8-3-17.5
				c-2.3,0.3-4.5,2.3-4.5,2.3s-3.4-22.4,4.1-37.2C135.2,76.2,155.5,67,175.1,67z"/>
		</g>
	</g>
</g>
</svg>
