<?xml version="1.0" encoding="utf-8"?>
<!-- Generator: Adobe Illustrator 17.1.0, SVG Export Plug-In . SVG Version: 6.00 Build 0)  -->
<svg version="1.2" 
	 xmlns="http://www.w3.org/2000/svg"  x="0px" y="0px" 
	 >
<g>
	<g>
		<path fill="#8DA28D" d="M1624.1,613.6c-69.5,0-125.9,56.4-125.9,125.9c0,43.3,21.9,81.5,55.2,104.1c1.4-12,3.2-23.6,5.3-26.5
			c6.2-8.6,23.1-15.6,36.4-19.8c0,0,0,0,0-0.1c0.1-1.8,1.4-3.1,3-3c1,0.1,1.8,0.7,2.3,1.5c1.1-0.3,2.1-0.6,3.1-0.8
			c0-0.3,0-0.5,0-0.5c1.4-1.1,1.2-6.6-0.3-11.1c-0.3-1.4,1.8-1.4,2.9-0.6c0.1-4.2,0.2-7.9,0.2-11c0,0-0.1-0.1-0.1-0.1v-2.1
			c-0.1-0.1-0.1-0.1-0.2-0.2c-5.6,2.5-10.1,7.5-12.2,9.6c-36.4-22.1-40.1-66.2-28.6-93c8.6-20,36.5-34.5,61.7-33
			c24.4,1.5,55.5,21.2,58.1,51.2c1.1,12.8,1.6,27.7-3,41.5c-7.7,22.8-22.5,35.5-22.5,34.4c-2.3-2.1-8.2-7.6-16.8-10.5c0,0,0,0-0.1,0
			c-0.1,3.5-0.1,6.8,0,10.1c0,1.2,0.1,2.5,0.1,3.9c0.1-0.1,0.1-0.2,0.2-0.3c0.7-1.3,3.6-1.6,3.3,0.1c-1.5,4.5-1.7,10-0.3,11.1
			c0,0,0,0.3-0.1,0.8c0.6,0.2,1.3,0.4,2.1,0.7c0.5-1,1.4-1.7,2.5-1.7c1.6,0,2.9,1.4,2.9,3.1c0,0.1,0,0.3,0,0.4
			c11.6,4.1,30.1,11.8,36.7,21c2,2.8,3.7,13.5,5.1,24.8c33.3-22.7,55.1-60.8,55.1-104.1C1750,670,1693.6,613.6,1624.1,613.6z"/>
		<path fill="#955F3B" d="M1661.5,741.9c-5.2,10.1-12.1,20-19,27.3c0,0.2,0,0.4,0,0.6c0,0,0,0,0.1,0c8.7,2.9,14.5,8.4,16.8,10.5
			C1659.4,771.1,1662.9,756.2,1661.5,741.9z"/>
		<path fill="#955F3B" d="M1584.7,738c2.1,25.7,4.9,31.3,9.1,41c2-2.1,6.5-7.1,12.2-9.6C1597.9,761.3,1590.1,749.7,1584.7,738z"/>
		<path fill="#F9DFA9" d="M1606.5,783.4c2,3.4,6.2,6.2,18.2,6.2c0.9,0,1.8,0,2.6-0.1c-8-4.4-15.2-10.7-21-17.7c0,3.1-0.1,6.9-0.2,11
			C1606.2,783.1,1606.4,783.3,1606.5,783.4z"/>
		<path fill="#F9DFA9" d="M1642.6,783.7c0-1.4-0.1-2.7-0.1-3.9C1642.5,781.1,1642.5,782.4,1642.6,783.7
			C1642.6,783.8,1642.6,783.7,1642.6,783.7z"/>
		<path fill="#EACE95" d="M1627.3,789.6c9.6-0.4,13.4-2.8,15.3-5.8c0-1.4-0.1-2.7-0.1-4c0-3.3,0-6.6,0-10.1c0-0.2,0-0.4,0-0.6
			c-6.4,6.7-12.9,11.1-18.2,11.1c-5.3,0-11.8-4.1-18.2-10.6v2.1c0,0,0.1,0.1,0.1,0.1C1612,778.9,1619.2,785.2,1627.3,789.6z"/>
		<path fill="#FFE8B9" d="M1624.3,780.2V704c-16.5-6.6-19-20.3-19-20.3s-9.7,10.6-15.9,25.6c2.4,2.7,4,6.8,4.2,11.4
			c0.3,7.8-3.7,14.3-9.1,15.4c0,0,0,0,0,0c0,0.6,0.1,1.2,0.1,1.8c5.4,11.7,13.2,23.3,21.2,31.4c0.1,0.1,0.1,0.1,0.2,0.2
			C1612.5,776.1,1619,780.2,1624.3,780.2z"/>
		<path fill="#EB7063" d="M1597.9,800.6c1.6,0,2.8,1.4,2.9,3.1c0,1.7-1.2,3.1-2.8,3.1c1.6,0,2.9,1.3,3,3c0.1,1.7-1.1,3.1-2.7,3.3
			c1.6-0.1,2.9,1.2,3.1,2.8c0.2,1.7-0.9,3.2-2.5,3.4c1.6-0.2,3,1,3.2,2.7c0.3,1.6-0.8,3.2-2.3,3.5c1.6-0.3,3.1,0.8,3.4,2.5
			c0.4,1.6-0.6,3.2-2.1,3.6c1.5-0.4,3.1,0.6,3.6,2.2c0.5,1.6-0.3,3.2-1.8,3.8c1.5-0.5,3.1,0.3,3.8,1.8c0.6,1.5,0.1,3.2-1.3,3.9
			c1.4-0.7,3.1-0.1,4,1.2c0.4,0.7,0.5,1.4,0.4,2.1c-0.1,0.7-0.5,1.4-1.1,1.9c1.2-0.9,3.1-0.8,4.1,0.3c0.6,0.5,0.8,1.2,0.9,1.9
			c0.1,0.7-0.1,1.5-0.5,2.1c0.5-0.6,1.2-1,1.9-1.2c0.4-0.1,0.7-0.1,1,0c0.4,0,0.7,0.1,1,0.3c0.3,0.2,0.6,0.4,0.8,0.7
			c0.2,0.2,0.4,0.5,0.6,0.9c0.3,0.7,0.4,1.4,0.2,2.2c0.2-0.8,0.7-1.3,1.4-1.7c0.6-0.4,1.3-0.6,2-0.4c1,0.1,1.9,0.7,2.3,1.6l0.1-48.8
			c-18.8,0-20.8-9.1-21-11.3c-1,0.2-2,0.5-3.1,0.8c0.3,0.5,0.4,1.1,0.4,1.7C1600.8,799.2,1599.5,800.6,1597.9,800.6z"/>
		<path fill="#EB7063" d="M1621.3,859.1c-1-0.2-1.8-0.7-2.3-1.3c-0.5-0.6-0.6-1.5-0.4-2.2c-0.2,0.8-0.8,1.3-1.5,1.6
			c-0.4,0.1-0.8,0.2-1.3,0.2c-0.5,0-0.9-0.2-1.3-0.4c-0.4-0.2-0.8-0.5-1.1-0.8c-0.3-0.3-0.5-0.7-0.6-1.1c-0.2-0.8-0.1-1.6,0.4-2.2
			c-0.5,0.6-1.2,1-2,1c-0.8,0-1.7-0.4-2.4-1c-0.7-0.7-1-1.6-1-2.4c0-0.8,0.4-1.5,1-2c-0.6,0.5-1.4,0.6-2.2,0.5
			c-0.8-0.2-1.6-0.7-2-1.5c-1-1.6-0.5-3.5,0.9-4.2c-1.4,0.7-3.2,0-4-1.7c-0.7-1.7,0-3.5,1.5-4c-1.5,0.5-3.2-0.4-3.7-2.1
			c-0.5-1.7,0.4-3.5,1.9-3.8c-1.5,0.4-3.1-0.7-3.5-2.4c-0.4-1.8,0.6-3.4,2.2-3.7c-1.6,0.3-3-0.9-3.3-2.7c-0.2-1.8,0.8-3.3,2.4-3.5
			c-1.6,0.2-3-1.1-3.2-2.8c-0.2-1.8,1-3.3,2.6-3.4c-1.6,0.1-3-1.2-3-3c-0.1-1.8,1.2-3.2,2.7-3.3c-1.6,0.1-2.9-1.3-2.9-3.1
			c0-1.8,1.3-3.2,2.9-3.1c-1.6,0-2.8-1.4-2.8-3.2c-13.3,4.1-30.2,11.2-36.4,19.8c-2,2.8-3.9,14.4-5.3,26.5
			c20.2,13.7,44.5,21.7,70.7,21.7c0.1,0,0.1,0,0.2,0l0-7.5C1623.8,858.7,1622.6,859.2,1621.3,859.1z"/>
		<path fill="#DD695D" d="M1653.1,797.9c-0.2,1.5-1.3,2.7-2.8,2.7c1.6,0,2.9,1.4,2.9,3.1c0,1.7-1.3,3.1-2.9,3.1
			c1.6,0,2.9,1.4,2.8,3.2c0,1.7-1.4,3.1-2.9,3.1c1.6,0,2.8,1.5,2.7,3.3c-0.1,1.8-1.5,3.1-3.1,3c1.6,0.1,2.7,1.6,2.6,3.4
			c-0.2,1.8-1.6,3-3.2,2.8c1.6,0.2,2.7,1.8,2.4,3.6c-0.3,1.8-1.9,2.9-3.4,2.6c1.6,0.3,2.5,2,2.1,3.8c-0.2,0.9-0.8,1.6-1.4,2
			c-0.7,0.4-1.5,0.5-2.2,0.3c1.5,0.5,2.3,2.3,1.6,4c-0.3,0.9-1,1.5-1.7,1.8c-0.7,0.3-1.5,0.3-2.2,0c0.7,0.4,1.2,1,1.4,1.8
			c0.2,0.8,0.1,1.7-0.5,2.5c-1,1.6-3,2-4.2,1c0.6,0.5,1,1.2,1,2c0,0.8-0.4,1.7-1.1,2.3c-0.7,0.6-1.6,1-2.4,1c-0.8-0.1-1.5-0.4-2-1.1
			c0.4,0.6,0.6,1.4,0.3,2.2c-0.3,0.7-0.9,1.5-1.8,1.9c-0.9,0.4-1.9,0.4-2.6,0.1c-0.8-0.3-1.3-0.9-1.5-1.7c0.5,1.5-0.7,3.2-2.7,3.5
			c-1,0.2-1.9-0.1-2.5-0.6c-0.6-0.5-1-1.2-1-2c0,0.5-0.1,1-0.4,1.4l0,7.5c26.1,0,50.4-8.1,70.5-21.7c-1.3-11.3-3.1-22-5.1-24.8
			C1683.2,809.7,1664.8,802,1653.1,797.9z"/>
		<path fill="#DD695D" d="M1624.6,806.3c0,0-0.1,0-0.1,0l-0.1,48.8c0.2,0.4,0.4,0.9,0.4,1.4c0-0.8,0.3-1.5,0.8-2.1
			c0.5-0.6,1.2-0.9,1.9-1c1.5-0.2,3,0.7,3.4,2.2c-0.2-0.8-0.1-1.5,0.2-2.2c0.3-0.7,0.8-1.2,1.5-1.5c0.6-0.4,1.4-0.4,2.1-0.2
			c0.7,0.2,1.4,0.5,1.8,1.2c-0.4-0.7-0.6-1.4-0.5-2.1c0.1-0.7,0.4-1.4,0.9-1.9c0.5-0.5,1.2-0.8,2-0.8c0.7,0,1.5,0.1,2.1,0.6
			c-1.2-1-1.4-2.8-0.6-4.1c0.4-0.6,1-1.1,1.7-1.3c0.7-0.2,1.5-0.2,2.2,0.1c-0.7-0.4-1.2-1-1.5-1.7c-0.2-0.7-0.2-1.5,0-2.2
			c0.6-1.5,2.2-2.4,3.7-1.9c-0.8-0.2-1.3-0.8-1.7-1.5c-0.3-0.7-0.5-1.5-0.2-2.3c0.4-1.6,1.9-2.6,3.5-2.3c-1.6-0.3-2.5-1.9-2.3-3.5
			c0.3-1.6,1.7-2.8,3.3-2.6c-1.6-0.2-2.6-1.7-2.5-3.4c0.2-1.7,1.5-2.9,3.1-2.8c-1.6-0.1-2.8-1.6-2.7-3.3c0.1-1.7,1.4-3,3-3
			c-1.6-0.1-2.8-1.5-2.8-3.2c0-1.7,1.3-3.1,2.9-3.1c-1.6,0-2.9-1.4-2.9-3.1c0-1.7,1.3-3.1,2.8-3.1c-1.6,0-2.9-1.4-2.9-3.1
			c0-0.5,0.1-1,0.3-1.5c-0.8-0.3-1.5-0.5-2.1-0.7C1645.3,798,1642.8,806.3,1624.6,806.3z"/>
		<path fill="#FFE8B9" d="M1584.5,736.2c5.4-1.1,9.3-7.7,9.1-15.4c-0.1-4.6-1.8-8.7-4.2-11.4
			C1586.1,717.4,1583.8,726.6,1584.5,736.2z"/>
		<path fill="#F9DFA9" d="M1630.1,705.9c-2.1-0.5-4-1.1-5.8-1.8v76.1c5.3,0,11.8-4.4,18.2-11.1c6.9-7.2,13.8-17.2,19-27.3
			C1660.1,726.3,1653.1,711.6,1630.1,705.9z"/>
		<path fill="#D27D47" d="M1584.5,736.2C1584.5,736.2,1584.5,736.2,1584.5,736.2c-0.7-9.6,1.6-18.9,4.9-26.9
			c6.2-15,15.9-25.6,15.9-25.6s2.5,13.7,19,20.3c1.8,0.7,3.7,1.3,5.8,1.8c23,5.7,30,20.5,31.4,36c1.3,14.3-2.1,29.3-2.1,38.3
			c0,1,14.9-11.7,22.5-34.4c4.7-13.8,4.1-28.7,3-41.5c-2.7-30-33.8-49.8-58.1-51.2c-25.2-1.5-53.1,13-61.7,33
			c-11.5,26.8-7.8,70.9,28.6,93c-4.2-9.6-7-15.3-9.1-41C1584.6,737.5,1584.6,736.9,1584.5,736.2z"/>
		<path fill="#F07C6C" d="M1624.5,806.3c0,0,0.1,0,0.1,0c18.1,0,20.7-8.4,21.1-11c0.1-0.5,0.1-0.8,0.1-0.8
			c-1.4-1.1-1.2-6.6,0.3-11.1c0.3-1.7-2.6-1.4-3.3-0.1c-0.1,0.1-0.1,0.2-0.2,0.3c0,0,0,0,0,0.1c-1.9,3-5.8,5.4-15.3,5.8
			c-0.8,0-1.7,0.1-2.6,0.1c-11.9,0-16.2-2.8-18.2-6.2c-0.1-0.2-0.3-0.4-0.4-0.5c-1.1-0.8-3.1-0.9-2.9,0.6c1.5,4.5,1.7,10,0.3,11.1
			c0,0,0,0.2,0,0.5C1603.7,797.3,1605.7,806.3,1624.5,806.3z"/>
		<path fill="#DEE4E5" d="M1597.9,800.6c1.6,0,2.9-1.3,2.9-3c0-0.6-0.1-1.2-0.4-1.7c-0.5-0.9-1.3-1.5-2.3-1.5c-1.6-0.1-2.9,1.3-3,3
			c0,0,0,0,0,0.1C1595.1,799.2,1596.3,800.6,1597.9,800.6z"/>
		<path fill="#DEE4E5" d="M1600.7,803.7c0-1.7-1.3-3.1-2.9-3.1c-1.6,0-2.9,1.4-2.9,3.1c0,1.8,1.3,3.1,2.9,3.1
			C1599.5,806.8,1600.8,805.4,1600.7,803.7z"/>
		<path fill="#DEE4E5" d="M1600.9,809.8c-0.1-1.7-1.4-3-3-3c-1.6,0-2.8,1.5-2.7,3.3c0.1,1.8,1.5,3.1,3,3
			C1599.8,812.9,1601,811.5,1600.9,809.8z"/>
		<path fill="#DEE4E5" d="M1601.4,815.9c-0.2-1.7-1.5-2.9-3.1-2.8c-1.6,0.1-2.8,1.6-2.6,3.4c0.2,1.8,1.6,3,3.2,2.8
			C1600.4,819.1,1601.5,817.6,1601.4,815.9z"/>
		<path fill="#DEE4E5" d="M1602.1,821.9c-0.2-1.7-1.7-2.9-3.2-2.7c-1.6,0.2-2.7,1.7-2.4,3.5c0.3,1.8,1.8,2.9,3.3,2.7
			C1601.3,825.1,1602.3,823.6,1602.1,821.9z"/>
		<path fill="#DEE4E5" d="M1603.1,827.9c-0.3-1.6-1.8-2.7-3.4-2.5c-1.6,0.3-2.6,1.9-2.2,3.7c0.4,1.7,2,2.8,3.5,2.4
			C1602.6,831.1,1603.5,829.5,1603.1,827.9z"/>
		<path fill="#DEE4E5" d="M1604.6,833.7c-0.5-1.6-2-2.6-3.6-2.2c-1.5,0.4-2.4,2.1-1.9,3.8c0.5,1.7,2.2,2.7,3.7,2.1
			C1604.3,837,1605.1,835.3,1604.6,833.7z"/>
		<path fill="#DEE4E5" d="M1606.6,839.3c-0.7-1.5-2.3-2.3-3.8-1.8c-1.5,0.5-2.2,2.3-1.5,4c0.7,1.7,2.6,2.4,4,1.7
			C1606.7,842.5,1607.2,840.8,1606.6,839.3z"/>
		<path fill="#DEE4E5" d="M1609.7,846.6c0.1-0.7-0.1-1.5-0.4-2.1c-0.8-1.3-2.5-1.9-4-1.2c-1.4,0.7-1.9,2.6-0.9,4.2
			c0.5,0.8,1.3,1.3,2,1.5c0.8,0.2,1.6,0,2.2-0.5C1609.3,848,1609.6,847.3,1609.7,846.6z"/>
		<path fill="#DEE4E5" d="M1613.6,850.7c-0.1-0.7-0.3-1.4-0.9-1.9c-1-1.1-2.8-1.2-4.1-0.3c-0.6,0.5-1,1.2-1,2c0,0.8,0.4,1.7,1,2.4
			c0.7,0.7,1.6,1,2.4,1c0.8,0,1.5-0.4,2-1C1613.5,852.2,1613.7,851.4,1613.6,850.7z"/>
		<path fill="#DEE4E5" d="M1618.4,853.4c-0.1-0.3-0.3-0.6-0.6-0.9c-0.2-0.3-0.5-0.5-0.8-0.7c-0.3-0.2-0.7-0.3-1-0.3
			c-0.4,0-0.7,0-1,0c-0.7,0.1-1.4,0.5-1.9,1.2c-0.5,0.6-0.6,1.4-0.4,2.2c0.1,0.4,0.3,0.8,0.6,1.1c0.3,0.3,0.7,0.6,1.1,0.8
			c0.4,0.2,0.9,0.4,1.3,0.4c0.5,0,0.9-0.1,1.3-0.2c0.8-0.3,1.3-0.8,1.5-1.6C1618.8,854.9,1618.7,854.1,1618.4,853.4z"/>
		<path fill="#DEE4E5" d="M1622,853.5c-0.7-0.2-1.4,0-2,0.4c-0.6,0.4-1.1,0.9-1.4,1.7c-0.2,0.7-0.1,1.6,0.4,2.2
			c0.5,0.6,1.3,1.1,2.3,1.3c1.4,0.1,2.5-0.4,3.1-1.3c0.3-0.4,0.4-0.9,0.4-1.4c0-0.5-0.2-0.9-0.4-1.4
			C1623.9,854.2,1623,853.5,1622,853.5z"/>
		<path fill="#DEE4E5" d="M1627.5,853.4c-0.7,0.2-1.4,0.5-1.9,1c-0.5,0.5-0.8,1.3-0.8,2.1c0,0.8,0.4,1.5,1,2
			c0.6,0.5,1.5,0.8,2.5,0.6c2-0.2,3.1-2,2.7-3.5C1630.4,854.1,1629,853.2,1627.5,853.4z"/>
		<path fill="#DEE4E5" d="M1634.7,851.8c-0.7-0.2-1.5-0.2-2.1,0.2c-0.7,0.3-1.2,0.8-1.5,1.5c-0.3,0.6-0.5,1.4-0.2,2.2
			c0.2,0.8,0.8,1.4,1.5,1.7c0.7,0.3,1.7,0.2,2.6-0.1c0.9-0.5,1.5-1.2,1.8-1.9c0.2-0.8,0.1-1.6-0.3-2.2
			C1636.1,852.3,1635.4,851.9,1634.7,851.8z"/>
		<path fill="#DEE4E5" d="M1637,849c-0.6,0.5-0.8,1.2-0.9,1.9c-0.1,0.7,0,1.5,0.5,2.1c0.4,0.7,1.1,1,2,1.1c0.8,0.1,1.7-0.3,2.4-1
			c0.7-0.7,1.1-1.6,1.1-2.3c0-0.8-0.3-1.5-1-2c-0.6-0.5-1.4-0.7-2.1-0.6C1638.2,848.1,1637.6,848.4,1637,849z"/>
		<path fill="#DEE4E5" d="M1642.2,843.3c-0.7,0.2-1.3,0.7-1.7,1.3c-0.8,1.3-0.6,3,0.6,4.1c1.2,1,3.2,0.6,4.2-1
			c0.5-0.8,0.6-1.7,0.5-2.5c-0.2-0.8-0.6-1.4-1.4-1.8C1643.7,843.1,1642.9,843.1,1642.2,843.3z"/>
		<path fill="#DEE4E5" d="M1643,839.6c-0.3,0.8-0.3,1.5,0,2.2c0.2,0.7,0.7,1.3,1.5,1.7s1.5,0.3,2.2,0c0.7-0.3,1.4-1,1.7-1.8
			c0.7-1.7-0.1-3.5-1.6-4C1645.2,837.2,1643.6,838.1,1643,839.6z"/>
		<path fill="#DEE4E5" d="M1644.8,834c-0.2,0.8-0.1,1.6,0.2,2.3c0.3,0.7,0.9,1.2,1.7,1.5c0.7,0.2,1.5,0.1,2.2-0.3
			c0.7-0.4,1.2-1.1,1.4-2c0.4-1.8-0.5-3.4-2.1-3.8C1646.7,831.3,1645.2,832.4,1644.8,834z"/>
		<path fill="#DEE4E5" d="M1646,828.1c-0.3,1.6,0.7,3.2,2.3,3.5c1.5,0.3,3.1-0.8,3.4-2.6c0.3-1.8-0.8-3.4-2.4-3.6
			C1647.7,825.3,1646.3,826.5,1646,828.1z"/>
		<path fill="#DEE4E5" d="M1646.8,822.1c-0.2,1.7,0.9,3.2,2.5,3.4c1.6,0.2,3-1,3.2-2.8c0.2-1.8-1-3.3-2.6-3.4
			C1648.4,819.2,1647,820.4,1646.8,822.1z"/>
		<path fill="#DEE4E5" d="M1647.3,816c-0.1,1.7,1.1,3.1,2.7,3.3c1.6,0.1,3-1.2,3.1-3c0.1-1.8-1.1-3.2-2.7-3.3
			C1648.7,813,1647.4,814.3,1647.3,816z"/>
		<path fill="#DEE4E5" d="M1647.5,809.9c0,1.7,1.2,3.1,2.8,3.2c1.6,0.1,2.9-1.3,2.9-3.1c0-1.7-1.2-3.2-2.8-3.2
			C1648.8,806.8,1647.5,808.2,1647.5,809.9z"/>
		<path fill="#DEE4E5" d="M1647.5,803.7c0,1.7,1.3,3.1,2.9,3.1c1.6,0,2.9-1.4,2.9-3.1c0-1.7-1.3-3.1-2.9-3.1
			C1648.8,800.6,1647.5,802,1647.5,803.7z"/>
		<path fill="#DEE4E5" d="M1650.4,800.6c1.4,0,2.6-1.2,2.8-2.7c0-0.1,0-0.3,0-0.4c0-1.7-1.3-3.1-2.9-3.1c-1.1,0-2,0.7-2.5,1.7
			c-0.2,0.4-0.3,0.9-0.3,1.5C1647.5,799.2,1648.8,800.6,1650.4,800.6z"/>
	</g>
</g>
</svg>
