<svg id="Calque_1" data-name="Calque 1" xmlns="http://www.w3.org/2000/svg" viewBox="0 0 742.91 163.35"><defs><style>.cls-1{fill:#0e9c39;}.cls-2{fill:#1d3c71;}.cls-3,.cls-6,.cls-7{fill:none;stroke-miterlimit:10;}.cls-3,.cls-7{stroke:#1d3c71;}.cls-3{stroke-width:2px;}.cls-4{fill:#010101;}.cls-5{fill:#063;}.cls-6{stroke:#000;stroke-width:10px;}.cls-7{stroke-width:3px;}</style></defs><rect class="cls-1" x="129.59" y="1.77" width="19.58" height="53.15"/><rect class="cls-1" x="129.17" y="2.86" width="20.41" height="50.97" transform="translate(167.73 -111.03) rotate(90)"/><path class="cls-2" d="M8.15,0C8.22,0,7,3.54,6.88,3.74A15.2,15.2,0,0,1,0,10.63c5.49-1.76,13.5,0,19.29.1,7.58,0,15.17,0,22.73.74,23,2.12,42.8,12.39,57.68,30.87l.71-1.39C101.9,38,89.5,27.44,87.76,26A112.63,112.63,0,0,0,65.62,11.75C47.41,2.83,28,.19,8.15,0Z"/><path class="cls-2" d="M117.28,80.37s-17,22.73-20.32,28.71-19.7,45.75-39.74,45.39c0,0-12.68-1.2-17.69-26.11a65.8,65.8,0,0,0-23.37-38s17.81,22.12,20.76,38,8.62,30.34,20,30,20.7-7,26-15.13S106.88,89.3,117.28,80.37Z"/><ellipse class="cls-3" cx="92.28" cy="68.54" rx="27.41" ry="28.88"/><ellipse class="cls-3" cx="40.78" cy="66.34" rx="22.77" ry="23.99"/><ellipse class="cls-2" cx="36.92" cy="77.11" rx="11.74" ry="12.37"/><ellipse class="cls-2" cx="84.6" cy="60.45" rx="15.81" ry="16.66"/><path class="cls-1" d="M38.68,102.38s27.64,4.64,47,1a3,3,0,0,1,3.4,3.8c-1.79,7.51-7.37,21.21-24.2,21.21-23.17,0-26.83-13-26.83-13s25.85,9.42,39.27-3.25a.92.92,0,0,0-.68-1.61C69.53,111.42,49.2,112.92,38.68,102.38Z"/><path class="cls-4" d="M138.05,68.74A188.23,188.23,0,0,1,164.54,67c13.65,0,23.64,2.69,30,7.53a23.25,23.25,0,0,1,9.36,19c0,8.2-2.86,14.66-8.25,19.37-7.46,6.59-19.2,10-32.68,10a56,56,0,0,1-11.11-.81v36.33h-13.8Zm13.8,43.73a54.54,54.54,0,0,0,11.43.94c16.65,0,26.81-7,26.81-19.24s-10.16-17.9-25.23-17.9a67.66,67.66,0,0,0-13,1Z"/><path class="cls-4" d="M240.22,67.66v38h51.72V67.66h14v90.69h-14V115.83H240.22v42.52h-14V67.66Z"/><path class="cls-4" d="M351.11,129.82,340,158.35H325.73l36.49-90.69h16.5l36.48,90.69H400.45L389,129.82Zm35.22-9.14L375.7,94.57c-2.38-5.92-4-11.3-5.55-16.55h-.32c-1.58,5.25-3.17,10.9-5.39,16.42L354,120.68Z"/><path class="cls-4" d="M434.88,68.87A189.66,189.66,0,0,1,461.37,67c14.75,0,24.43,2.42,30.94,7.4a21.61,21.61,0,0,1,8.4,17.36c0,11.84-8.88,19.78-20,23v.4c8.09,2.42,13,8.88,15.54,18.3,3.49,12.65,6,21.39,8.25,24.89H490.24c-1.74-2.69-4.12-10.36-7-21.66-3.17-12.52-9-17.23-21.57-17.63h-13v39.29h-13.8Zm13.8,41.31H462.8c14.75,0,24.11-6.86,24.11-17.22,0-11.71-10-16.82-24.59-16.82-6.66,0-11.26.4-13.64.94Z"/><path class="cls-4" d="M614.31,118.52c-.8-12.65-1.75-28-1.75-39.15h-.32c-3.8,10.49-8.09,21.93-13.48,34.44l-18.88,44H569.41L552,114.62c-5.08-12.92-9.2-24.49-12.22-35.25h-.32c-.31,11.3-1.11,26.37-2.06,40.09l-2.85,38.89H521.34l7.46-90.69h17.6l18.25,43.87c4.44,11.16,7.93,21.12,10.79,30.54h.31c2.86-9.15,6.67-19.11,11.43-30.54l19-43.87h17.61l6.67,90.69H616.84Z"/><path class="cls-4" d="M671.42,129.82l-11.11,28.53H646l36.49-90.69H699l36.49,90.69H720.76l-11.43-28.53Zm35.22-9.14L696,94.57c-2.38-5.92-4-11.3-5.56-16.55h-.31c-1.59,5.25-3.18,10.9-5.4,16.42l-10.47,26.24Z"/><path class="cls-5" d="M138.05,68.74A188.23,188.23,0,0,1,164.54,67c13.65,0,23.64,2.69,30,7.53a23.25,23.25,0,0,1,9.36,19c0,8.2-2.86,14.66-8.25,19.37-7.46,6.59-19.2,10-32.68,10a56,56,0,0,1-11.11-.81v36.33h-13.8Zm13.8,43.73a54.54,54.54,0,0,0,11.43.94c16.65,0,26.81-7,26.81-19.24s-10.16-17.9-25.23-17.9a67.66,67.66,0,0,0-13,1Z"/><path class="cls-5" d="M240.22,67.66v38h51.72V67.66h14v90.69h-14V115.83H240.22v42.52h-14V67.66Z"/><path class="cls-5" d="M351.11,129.82,340,158.35H325.73l36.49-90.69h16.5l36.48,90.69H400.45L389,129.82Zm35.22-9.14L375.7,94.57c-2.38-5.92-4-11.3-5.55-16.55h-.32c-1.58,5.25-3.17,10.9-5.39,16.42L354,120.68Z"/><path class="cls-5" d="M434.88,68.87A189.66,189.66,0,0,1,461.37,67c14.75,0,24.43,2.42,30.94,7.4a21.61,21.61,0,0,1,8.4,17.36c0,11.84-8.88,19.78-20,23v.4c8.09,2.42,13,8.88,15.54,18.3,3.49,12.65,6,21.39,8.25,24.89H490.24c-1.74-2.69-4.12-10.36-7-21.66-3.17-12.52-9-17.23-21.57-17.63h-13v39.29h-13.8Zm13.8,41.31H462.8c14.75,0,24.11-6.86,24.11-17.22,0-11.71-10-16.82-24.59-16.82-6.66,0-11.26.4-13.64.94Z"/><path class="cls-5" d="M614.31,118.52c-.8-12.65-1.75-28-1.75-39.15h-.32c-3.8,10.49-8.09,21.93-13.48,34.44l-18.88,44H569.41L552,114.62c-5.08-12.92-9.2-24.49-12.22-35.25h-.32c-.31,11.3-1.11,26.37-2.06,40.09l-2.85,38.89H521.34l7.46-90.69h17.6l18.25,43.87c4.44,11.16,7.93,21.12,10.79,30.54h.31c2.86-9.15,6.67-19.11,11.43-30.54l19-43.87h17.61l6.67,90.69H616.84Z"/><path class="cls-5" d="M671.42,129.82l-11.11,28.53H646l36.49-90.69H699l36.49,90.69H720.76l-11.43-28.53Zm35.22-9.14L696,94.57c-2.38-5.92-4-11.3-5.56-16.55h-.31c-1.59,5.25-3.18,10.9-5.4,16.42l-10.47,26.24Z"/><path class="cls-6" d="M138.05,68.74A188.23,188.23,0,0,1,164.54,67c13.65,0,23.64,2.69,30,7.53a23.25,23.25,0,0,1,9.36,19c0,8.2-2.86,14.66-8.25,19.37-7.46,6.59-19.2,10-32.68,10a56,56,0,0,1-11.11-.81v36.33h-13.8Zm13.8,43.73a54.54,54.54,0,0,0,11.43.94c16.65,0,26.81-7,26.81-19.24s-10.16-17.9-25.23-17.9a67.66,67.66,0,0,0-13,1Z"/><path class="cls-6" d="M240.22,67.66v38h51.72V67.66h14v90.69h-14V115.83H240.22v42.52h-14V67.66Z"/><path class="cls-6" d="M351.11,129.82,340,158.35H325.73l36.49-90.69h16.5l36.48,90.69H400.45L389,129.82Zm35.22-9.14L375.7,94.57c-2.38-5.92-4-11.3-5.55-16.55h-.32c-1.58,5.25-3.17,10.9-5.39,16.42L354,120.68Z"/><path class="cls-6" d="M434.88,68.87A189.66,189.66,0,0,1,461.37,67c14.75,0,24.43,2.42,30.94,7.4a21.61,21.61,0,0,1,8.4,17.36c0,11.84-8.88,19.78-20,23v.4c8.09,2.42,13,8.88,15.54,18.3,3.49,12.65,6,21.39,8.25,24.89H490.24c-1.74-2.69-4.12-10.36-7-21.66-3.17-12.52-9-17.23-21.57-17.63h-13v39.29h-13.8Zm13.8,41.31H462.8c14.75,0,24.11-6.86,24.11-17.22,0-11.71-10-16.82-24.59-16.82-6.66,0-11.26.4-13.64.94Z"/><path class="cls-6" d="M614.31,118.52c-.8-12.65-1.75-28-1.75-39.15h-.32c-3.8,10.49-8.09,21.93-13.48,34.44l-18.88,44H569.41L552,114.62c-5.08-12.92-9.2-24.49-12.22-35.25h-.32c-.31,11.3-1.11,26.37-2.06,40.09l-2.85,38.89H521.34l7.46-90.69h17.6l18.25,43.87c4.44,11.16,7.93,21.12,10.79,30.54h.31c2.86-9.15,6.67-19.11,11.43-30.54l19-43.87h17.61l6.67,90.69H616.84Z"/><path class="cls-6" d="M671.42,129.82l-11.11,28.53H646l36.49-90.69H699l36.49,90.69H720.76l-11.43-28.53Zm35.22-9.14L696,94.57c-2.38-5.92-4-11.3-5.56-16.55h-.31c-1.59,5.25-3.18,10.9-5.4,16.42l-10.47,26.24Z"/><path class="cls-4" d="M225,53.67c-2.54,1-7.86,1.92-14.56,1.92-15.54,0-27.16-7.19-27.16-20.49,0-12.7,11.7-21.21,28.79-21.21,6.79,0,11.21,1.08,13.09,1.8l-1.8,4.25a33.17,33.17,0,0,0-11-1.68c-12.92,0-21.51,6-21.51,16.66,0,9.94,7.77,16.23,21.1,16.23a38.13,38.13,0,0,0,11.7-1.67Z"/><path class="cls-4" d="M233.94,15a111.85,111.85,0,0,1,13.66-.78c7,0,12.18,1.2,15.46,3.35a10,10,0,0,1,4.82,8.45,10.29,10.29,0,0,1-4.25,8.63c-3.85,2.93-9.9,4.43-16.85,4.43a33,33,0,0,1-5.72-.36V54.93h-7.12Zm7.12,19.47a32.12,32.12,0,0,0,5.88.42c8.59,0,13.83-3.12,13.83-8.57s-5.24-8-13-8a40.23,40.23,0,0,0-6.7.42Z"/><path class="cls-4" d="M279.49,42.23l-5.72,12.7h-7.36l18.81-40.38h8.51l18.81,40.38h-7.61L299,42.23Zm18.16-4.08-5.48-11.62a76,76,0,0,1-2.86-7.37h-.16a75.85,75.85,0,0,1-2.79,7.31L281,38.15Z"/><path class="cls-2" d="M225,53.67c-2.54,1-7.86,1.92-14.56,1.92-15.54,0-27.16-7.19-27.16-20.49,0-12.7,11.7-21.21,28.79-21.21,6.79,0,11.21,1.08,13.09,1.8l-1.8,4.25a33.17,33.17,0,0,0-11-1.68c-12.92,0-21.51,6-21.51,16.66,0,9.94,7.77,16.23,21.1,16.23a38.13,38.13,0,0,0,11.7-1.67Z"/><path class="cls-2" d="M233.94,15a111.85,111.85,0,0,1,13.66-.78c7,0,12.18,1.2,15.46,3.35a10,10,0,0,1,4.82,8.45,10.29,10.29,0,0,1-4.25,8.63c-3.85,2.93-9.9,4.43-16.85,4.43a33,33,0,0,1-5.72-.36V54.93h-7.12Zm7.12,19.47a32.12,32.12,0,0,0,5.88.42c8.59,0,13.83-3.12,13.83-8.57s-5.24-8-13-8a40.23,40.23,0,0,0-6.7.42Z"/><path class="cls-2" d="M279.49,42.23l-5.72,12.7h-7.36l18.81-40.38h8.51l18.81,40.38h-7.61L299,42.23Zm18.16-4.08-5.48-11.62a76,76,0,0,1-2.86-7.37h-.16a75.85,75.85,0,0,1-2.79,7.31L281,38.15Z"/><path class="cls-7" d="M225,53.67c-2.54,1-7.86,1.92-14.56,1.92-15.54,0-27.16-7.19-27.16-20.49,0-12.7,11.7-21.21,28.79-21.21,6.79,0,11.21,1.08,13.09,1.8l-1.8,4.25a33.17,33.17,0,0,0-11-1.68c-12.92,0-21.51,6-21.51,16.66,0,9.94,7.77,16.23,21.1,16.23a38.13,38.13,0,0,0,11.7-1.67Z"/><path class="cls-7" d="M233.94,15a111.85,111.85,0,0,1,13.66-.78c7,0,12.18,1.2,15.46,3.35a10,10,0,0,1,4.82,8.45,10.29,10.29,0,0,1-4.25,8.63c-3.85,2.93-9.9,4.43-16.85,4.43a33,33,0,0,1-5.72-.36V54.93h-7.12Zm7.12,19.47a32.12,32.12,0,0,0,5.88.42c8.59,0,13.83-3.12,13.83-8.57s-5.24-8-13-8a40.23,40.23,0,0,0-6.7.42Z"/><path class="cls-7" d="M279.49,42.23l-5.72,12.7h-7.36l18.81-40.38h8.51l18.81,40.38h-7.61L299,42.23Zm18.16-4.08-5.48-11.62a76,76,0,0,1-2.86-7.37h-.16a75.85,75.85,0,0,1-2.79,7.31L281,38.15Z"/></svg>