<svg xmlns="http://www.w3.org/2000/svg" viewBox="0 0 371.64 198.65"><defs><style>.cls-1,.cls-4,.cls-5{font-size:134.55px;letter-spacing:0.03em;}.cls-1{fill:#f5a681;}.cls-1,.cls-10,.cls-4,.cls-5,.cls-6,.cls-9{font-family:MyriadPro-Regular, Myriad Pro;}.cls-2{letter-spacing:-0.01em;}.cls-3{letter-spacing:0.03em;}.cls-11,.cls-4{fill:#936037;}.cls-10,.cls-5{fill:none;stroke-miterlimit:10;}.cls-5{stroke:#1d3c71;stroke-width:10px;}.cls-10,.cls-6,.cls-9{font-size:59.91px;}.cls-6{fill:#010101;}.cls-7{letter-spacing:0.02em;}.cls-8{letter-spacing:0em;}.cls-9{fill:#1d3c71;}.cls-10{stroke:#000;stroke-width:3px;}</style></defs><g id="Calque_2" data-name="Calque 2"><g id="plus"><text class="cls-1" transform="translate(5 160.02) scale(1.18 1)">P<tspan class="cls-2" x="74.94" y="0">L</tspan><tspan class="cls-3" x="136.97" y="0">US</tspan></text><text class="cls-4" transform="translate(5 160.02) scale(1.18 1)">P<tspan class="cls-2" x="74.94" y="0">L</tspan><tspan class="cls-3" x="136.97" y="0">US</tspan></text><text class="cls-5" transform="translate(5 160.02) scale(1.18 1)">P<tspan class="cls-2" x="74.94" y="0">L</tspan><tspan class="cls-3" x="136.97" y="0">US</tspan></text><text class="cls-6" transform="translate(51.1 51.65) scale(1.37 1)">SE<tspan class="cls-7" x="59.01" y="0">R</tspan><tspan class="cls-8" x="92.2" y="0">VICES</tspan></text><text class="cls-9" transform="translate(51.1 51.65) scale(1.37 1)">SE<tspan class="cls-7" x="59.01" y="0">R</tspan><tspan class="cls-8" x="92.2" y="0">VICES</tspan></text><text class="cls-10" transform="translate(51.1 51.65) scale(1.37 1)">SE<tspan class="cls-7" x="59.01" y="0">R</tspan><tspan class="cls-8" x="92.2" y="0">VICES</tspan></text><g id="clean-guard"><path class="cls-11" d="M43.12,38.81c-.24-4.12-4.27-7.35-9-7.67-.86-.06-1.72-.07-2.68-.11V29.66c-3.49.59-7.07.27-10.57.93a3,3,0,0,1-1.23,0V31c-7,.34-11.13,2.72-11.6,7.3-.45,4.35-.1,8.77-.1,13.24H27.42c0-1.41,0-2.74,0-4.08s-.12-2.64-2-2.59-1.94,1.41-1.92,2.69,0,2.54,0,3.93H19.54c0-1.54,0-3,0-4.49,0-1.23-.56-2.33-2-2.08A3,3,0,0,0,15.7,47a23.51,23.51,0,0,0-.08,4.54H11.87A91.6,91.6,0,0,1,12,41.87c.24-2.26,2.72-3.84,5.44-3.88q8-.14,16,0c3.34.05,5.69,2.14,5.83,5,.1,2.2,0,4.41,0,6.62v1.85H35.28a23.46,23.46,0,0,0-.08-4.59c-.15-.75-1.23-1.37-1.88-2-.66.68-1.71,1.31-1.87,2.07a23.68,23.68,0,0,0-.09,4.65H43.18C43.18,47.19,43.37,43,43.12,38.81Z"/><path class="cls-11" d="M43.16,19.49A19.26,19.26,0,0,1,37.08,36.3c-9,8.35-14.18,8.32-23.19.06A18.43,18.43,0,0,1,7.74,22.12c0-2.92-.09-5.85.08-8.76a2.75,2.75,0,0,1,1.46-2c5-2,10-3.94,15-5.82a3.61,3.61,0,0,1,2.25,0c5.11,1.9,10.2,3.85,15.22,5.9a2.62,2.62,0,0,1,1.35,1.87C43.28,15,43.16,16.83,43.16,19.49ZM36,20.6a55.74,55.74,0,0,0-5.65-.5,2.43,2.43,0,0,1-2.67-1.66c-.58-1.4-1.36-2.74-2.26-4.5-.89,1.81-1.62,3.08-2.14,4.41a2.54,2.54,0,0,1-2.83,1.76,55.22,55.22,0,0,0-5.5.55c1.63,1.23,2.89,2.25,4.24,3.17,1.1.74,1.48,1.48,1,2.73A36.88,36.88,0,0,0,19,31.37a28,28,0,0,0,3.51-1.86c2.09-1.56,4-1.41,6.06,0A33.34,33.34,0,0,0,32,31.39a40.83,40.83,0,0,0-1.26-4.93,1.89,1.89,0,0,1,.89-2.56C33,22.94,34.3,21.88,36,20.6Z"/></g></g></g></svg>