<svg xmlns="http://www.w3.org/2000/svg" viewBox="0 0 481.76 198.22"><defs><style>.cls-1,.cls-12{fill:#1d3c71;}.cls-13,.cls-2,.cls-8{fill:none;stroke-miterlimit:10;}.cls-2,.cls-8{stroke:#1d3c71;}.cls-2{stroke-width:2px;}.cls-3,.cls-7{fill:#936037;}.cls-4,.cls-7,.cls-8{font-size:134.55px;letter-spacing:0.03em;}.cls-4{fill:#f5a681;}.cls-12,.cls-13,.cls-4,.cls-7,.cls-8,.cls-9{font-family:MyriadPro-Regular, Myriad Pro;}.cls-5{letter-spacing:-0.01em;}.cls-6{letter-spacing:0.03em;}.cls-8{stroke-width:10px;}.cls-12,.cls-13,.cls-9{font-size:59.91px;}.cls-9{fill:#010101;}.cls-10{letter-spacing:0.02em;}.cls-11{letter-spacing:0em;}.cls-13{stroke:#000;stroke-width:3px;}</style></defs><g id="Calque_2" data-name="Calque 2"><g id="plus"><path class="cls-1" d="M8.15,3C8.22,3,7,6.58,6.88,6.78A15.25,15.25,0,0,1,0,13.67c5.49-1.77,13.5.05,19.29.09,7.58.06,15.17.06,22.73.75,23,2.12,42.8,12.39,57.68,30.87l.71-1.39c1.49-2.91-10.91-13.51-12.65-15A112.63,112.63,0,0,0,65.62,14.78C47.41,5.86,28,3.23,8.15,3Z"/><path class="cls-1" d="M117.28,83.4s-17,22.74-20.32,28.72-19.7,45.74-39.74,45.39c0,0-12.68-1.21-17.69-26.11a65.8,65.8,0,0,0-23.37-38s17.81,22.12,20.76,38,8.62,30.33,20,30,20.7-7,26-15.13S106.88,92.34,117.28,83.4Z"/><ellipse class="cls-2" cx="92.28" cy="71.57" rx="27.41" ry="28.88"/><ellipse class="cls-2" cx="40.78" cy="69.37" rx="22.77" ry="23.99"/><ellipse class="cls-1" cx="36.92" cy="80.15" rx="11.74" ry="12.37"/><ellipse class="cls-1" cx="84.6" cy="63.49" rx="15.81" ry="16.66"/><path class="cls-3" d="M38.68,105.42s27.64,4.64,47,1a3,3,0,0,1,3.4,3.8c-1.79,7.5-7.37,21.21-24.2,21.21-23.17,0-26.83-13-26.83-13s25.85,9.42,39.27-3.25a.92.92,0,0,0-.68-1.61C69.53,114.45,49.2,116,38.68,105.42Z"/><text class="cls-4" transform="translate(125.65 159.58) scale(1.18 1)">P<tspan class="cls-5" x="74.94" y="0">L</tspan><tspan class="cls-6" x="136.97" y="0">US</tspan></text><text class="cls-7" transform="translate(125.65 159.58) scale(1.18 1)">P<tspan class="cls-5" x="74.94" y="0">L</tspan><tspan class="cls-6" x="136.97" y="0">US</tspan></text><text class="cls-8" transform="translate(125.65 159.58) scale(1.18 1)">P<tspan class="cls-5" x="74.94" y="0">L</tspan><tspan class="cls-6" x="136.97" y="0">US</tspan></text><text class="cls-9" transform="translate(161.22 51.65) scale(1.37 1)">SE<tspan class="cls-10" x="59.01" y="0">R</tspan><tspan class="cls-11" x="92.2" y="0">VICES</tspan></text><text class="cls-12" transform="translate(161.22 51.65) scale(1.37 1)">SE<tspan class="cls-10" x="59.01" y="0">R</tspan><tspan class="cls-11" x="92.2" y="0">VICES</tspan></text><text class="cls-13" transform="translate(161.22 51.65) scale(1.37 1)">SE<tspan class="cls-10" x="59.01" y="0">R</tspan><tspan class="cls-11" x="92.2" y="0">VICES</tspan></text><g id="clean-guard"><path class="cls-3" d="M155.42,38.47c-.24-4.13-4.27-7.36-9-7.68-.86-.05-1.72-.06-2.68-.1V29.32c-3.49.58-7.06.26-10.57.92a2.81,2.81,0,0,1-1.23,0v.46c-7,.33-11.13,2.71-11.6,7.29-.45,4.35-.1,8.77-.1,13.24h19.51c0-1.41,0-2.74,0-4.07s-.13-2.64-2-2.6-1.94,1.42-1.92,2.69,0,2.54,0,3.94h-3.94c0-1.54,0-3,0-4.5,0-1.23-.56-2.32-2-2.07a3,3,0,0,0-1.81,2,23.53,23.53,0,0,0-.08,4.54h-3.75a94.38,94.38,0,0,1,.08-9.66c.24-2.26,2.72-3.84,5.45-3.88q8-.12,16,0c3.33.06,5.68,2.14,5.82,5,.1,2.21,0,4.42,0,6.63v1.85h-3.94a23.45,23.45,0,0,0-.09-4.59c-.15-.76-1.23-1.38-1.88-2.06-.65.69-1.71,1.31-1.87,2.07a23.68,23.68,0,0,0-.09,4.65h11.82C155.48,46.84,155.67,42.65,155.42,38.47Z"/><path class="cls-3" d="M155.46,19.15A19.24,19.24,0,0,1,149.39,36c-9,8.35-14.18,8.32-23.2.07A18.45,18.45,0,0,1,120,21.78c0-2.93-.09-5.85.08-8.77a2.78,2.78,0,0,1,1.47-2c4.94-2,10-3.94,15-5.81a3.64,3.64,0,0,1,2.26,0c5.1,1.9,10.19,3.84,15.22,5.9a2.64,2.64,0,0,1,1.34,1.87C155.59,14.69,155.46,16.49,155.46,19.15Zm-7.16,1.1c-2.24-.21-4-.52-5.65-.5A2.44,2.44,0,0,1,140,18.09c-.58-1.4-1.36-2.74-2.26-4.49-.89,1.8-1.62,3.07-2.14,4.41a2.56,2.56,0,0,1-2.83,1.76,52.19,52.19,0,0,0-5.5.54c1.64,1.23,2.89,2.25,4.24,3.17,1.1.75,1.48,1.48,1,2.73A37.3,37.3,0,0,0,131.26,31a28.12,28.12,0,0,0,3.51-1.85c2.09-1.56,4-1.41,6.07,0A32.05,32.05,0,0,0,144.27,31,42.19,42.19,0,0,0,143,26.12a1.89,1.89,0,0,1,.88-2.57C145.29,22.59,146.6,21.54,148.3,20.25Z"/></g></g></g></svg>