<svg id="Calque_1" data-name="Calque 1" xmlns="http://www.w3.org/2000/svg" viewBox="0 0 629.01 161.58"><defs><style>.cls-1{fill:#0e9c39;}.cls-2{fill:#010101;}.cls-3{fill:#063;}.cls-4,.cls-6{fill:none;stroke-miterlimit:10;}.cls-4{stroke:#000;stroke-width:10px;}.cls-5{fill:#1d3c71;}.cls-6{stroke:#1d3c71;stroke-width:3px;}</style></defs><rect class="cls-1" x="15.7" width="19.58" height="53.15"/><rect class="cls-1" x="15.28" y="1.09" width="20.41" height="50.97" transform="translate(52.06 1.09) rotate(90)"/><path class="cls-2" d="M24.15,67a186.88,186.88,0,0,1,26.5-1.75c13.64,0,23.64,2.69,30,7.53a23.24,23.24,0,0,1,9.36,19c0,8.21-2.85,14.67-8.25,19.38-7.45,6.59-19.19,10-32.68,10a55.93,55.93,0,0,1-11.1-.81v36.33H24.15ZM38,110.7a54.44,54.44,0,0,0,11.42.94c16.66,0,26.81-7,26.81-19.24S66,74.5,51,74.5a68.73,68.73,0,0,0-13,.94Z"/><path class="cls-2" d="M126.32,65.89v37.94H178V65.89h14v90.69H178V114.06H126.32v42.52h-14V65.89Z"/><path class="cls-2" d="M237.21,128.05l-11.1,28.53H211.83l36.49-90.69h16.5l36.49,90.69H286.55l-11.42-28.53Zm35.22-9.15L261.8,92.8c-2.38-5.92-4-11.3-5.55-16.55h-.32c-1.58,5.25-3.17,10.9-5.39,16.42L240.07,118.9Z"/><path class="cls-2" d="M321,67.1a188.15,188.15,0,0,1,26.49-1.88c14.76,0,24.44,2.42,30.94,7.4A21.58,21.58,0,0,1,386.82,90c0,11.84-8.89,19.78-20,23v.41c8.09,2.42,13,8.88,15.55,18.29,3.49,12.65,6,21.4,8.25,24.9H376.35c-1.75-2.69-4.13-10.36-7-21.67-3.18-12.51-9.05-17.22-21.58-17.62h-13v39.29H321Zm13.8,41.31H348.9c14.76,0,24.12-6.86,24.12-17.22,0-11.71-10-16.82-24.59-16.82-6.67,0-11.27.4-13.65.94Z"/><path class="cls-2" d="M500.41,116.75c-.79-12.65-1.75-28-1.75-39.15h-.31c-3.81,10.49-8.09,21.93-13.49,34.44L466,156H455.51l-17.45-43.19c-5.08-12.92-9.2-24.49-12.22-35.25h-.31c-.32,11.3-1.11,26.37-2.06,40.09l-2.86,38.89H407.44l7.46-90.69h17.61l18.24,43.86c4.44,11.17,7.93,21.13,10.79,30.55h.32c2.85-9.15,6.66-19.11,11.42-30.55l19-43.86h17.61l6.66,90.69H503Z"/><path class="cls-2" d="M557.52,128.05l-11.11,28.53H532.14l36.49-90.69h16.49l36.49,90.69H606.86l-11.42-28.53Zm35.22-9.15L582.11,92.8c-2.38-5.92-4-11.3-5.55-16.55h-.32c-1.59,5.25-3.17,10.9-5.39,16.42L560.38,118.9Z"/><path class="cls-3" d="M24.15,67a186.88,186.88,0,0,1,26.5-1.75c13.64,0,23.64,2.69,30,7.53a23.24,23.24,0,0,1,9.36,19c0,8.21-2.85,14.67-8.25,19.38-7.45,6.59-19.19,10-32.68,10a55.93,55.93,0,0,1-11.1-.81v36.33H24.15ZM38,110.7a54.44,54.44,0,0,0,11.42.94c16.66,0,26.81-7,26.81-19.24S66,74.5,51,74.5a68.73,68.73,0,0,0-13,.94Z"/><path class="cls-3" d="M126.32,65.89v37.94H178V65.89h14v90.69H178V114.06H126.32v42.52h-14V65.89Z"/><path class="cls-3" d="M237.21,128.05l-11.1,28.53H211.83l36.49-90.69h16.5l36.49,90.69H286.55l-11.42-28.53Zm35.22-9.15L261.8,92.8c-2.38-5.92-4-11.3-5.55-16.55h-.32c-1.58,5.25-3.17,10.9-5.39,16.42L240.07,118.9Z"/><path class="cls-3" d="M321,67.1a188.15,188.15,0,0,1,26.49-1.88c14.76,0,24.44,2.42,30.94,7.4A21.58,21.58,0,0,1,386.82,90c0,11.84-8.89,19.78-20,23v.41c8.09,2.42,13,8.88,15.55,18.29,3.49,12.65,6,21.4,8.25,24.9H376.35c-1.75-2.69-4.13-10.36-7-21.67-3.18-12.51-9.05-17.22-21.58-17.62h-13v39.29H321Zm13.8,41.31H348.9c14.76,0,24.12-6.86,24.12-17.22,0-11.71-10-16.82-24.59-16.82-6.67,0-11.27.4-13.65.94Z"/><path class="cls-3" d="M500.41,116.75c-.79-12.65-1.75-28-1.75-39.15h-.31c-3.81,10.49-8.09,21.93-13.49,34.44L466,156H455.51l-17.45-43.19c-5.08-12.92-9.2-24.49-12.22-35.25h-.31c-.32,11.3-1.11,26.37-2.06,40.09l-2.86,38.89H407.44l7.46-90.69h17.61l18.24,43.86c4.44,11.17,7.93,21.13,10.79,30.55h.32c2.85-9.15,6.66-19.11,11.42-30.55l19-43.86h17.61l6.66,90.69H503Z"/><path class="cls-3" d="M557.52,128.05l-11.11,28.53H532.14l36.49-90.69h16.49l36.49,90.69H606.86l-11.42-28.53Zm35.22-9.15L582.11,92.8c-2.38-5.92-4-11.3-5.55-16.55h-.32c-1.59,5.25-3.17,10.9-5.39,16.42L560.38,118.9Z"/><path class="cls-4" d="M24.15,67a186.88,186.88,0,0,1,26.5-1.75c13.64,0,23.64,2.69,30,7.53a23.24,23.24,0,0,1,9.36,19c0,8.21-2.85,14.67-8.25,19.38-7.45,6.59-19.19,10-32.68,10a55.93,55.93,0,0,1-11.1-.81v36.33H24.15ZM38,110.7a54.44,54.44,0,0,0,11.42.94c16.66,0,26.81-7,26.81-19.24S66,74.5,51,74.5a68.73,68.73,0,0,0-13,.94Z"/><path class="cls-4" d="M126.32,65.89v37.94H178V65.89h14v90.69H178V114.06H126.32v42.52h-14V65.89Z"/><path class="cls-4" d="M237.21,128.05l-11.1,28.53H211.83l36.49-90.69h16.5l36.49,90.69H286.55l-11.42-28.53Zm35.22-9.15L261.8,92.8c-2.38-5.92-4-11.3-5.55-16.55h-.32c-1.58,5.25-3.17,10.9-5.39,16.42L240.07,118.9Z"/><path class="cls-4" d="M321,67.1a188.15,188.15,0,0,1,26.49-1.88c14.76,0,24.44,2.42,30.94,7.4A21.58,21.58,0,0,1,386.82,90c0,11.84-8.89,19.78-20,23v.41c8.09,2.42,13,8.88,15.55,18.29,3.49,12.65,6,21.4,8.25,24.9H376.35c-1.75-2.69-4.13-10.36-7-21.67-3.18-12.51-9.05-17.22-21.58-17.62h-13v39.29H321Zm13.8,41.31H348.9c14.76,0,24.12-6.86,24.12-17.22,0-11.71-10-16.82-24.59-16.82-6.67,0-11.27.4-13.65.94Z"/><path class="cls-4" d="M500.41,116.75c-.79-12.65-1.75-28-1.75-39.15h-.31c-3.81,10.49-8.09,21.93-13.49,34.44L466,156H455.51l-17.45-43.19c-5.08-12.92-9.2-24.49-12.22-35.25h-.31c-.32,11.3-1.11,26.37-2.06,40.09l-2.86,38.89H407.44l7.46-90.69h17.61l18.24,43.86c4.44,11.17,7.93,21.13,10.79,30.55h.32c2.85-9.15,6.66-19.11,11.42-30.55l19-43.86h17.61l6.66,90.69H503Z"/><path class="cls-4" d="M557.52,128.05l-11.11,28.53H532.14l36.49-90.69h16.49l36.49,90.69H606.86l-11.42-28.53Zm35.22-9.15L582.11,92.8c-2.38-5.92-4-11.3-5.55-16.55h-.32c-1.59,5.25-3.17,10.9-5.39,16.42L560.38,118.9Z"/><path class="cls-2" d="M111.05,51.9c-2.54,1-7.85,1.91-14.56,1.91-15.54,0-27.15-7.19-27.15-20.49,0-12.7,11.69-21.2,28.79-21.2,6.78,0,11.2,1.08,13.08,1.8l-1.8,4.25a33.13,33.13,0,0,0-11-1.68c-12.92,0-21.51,6.05-21.51,16.65,0,10,7.77,16.24,21.1,16.24a37.76,37.76,0,0,0,11.7-1.68Z"/><path class="cls-2" d="M120,13.26a112,112,0,0,1,13.66-.78c7,0,12.19,1.2,15.46,3.35A10,10,0,0,1,154,24.28a10.3,10.3,0,0,1-4.25,8.63c-3.84,2.93-9.89,4.43-16.85,4.43a33.1,33.1,0,0,1-5.72-.36V53.15H120Zm7.12,19.47a33.28,33.28,0,0,0,5.89.41c8.58,0,13.82-3.11,13.82-8.56s-5.24-8-13-8a40.46,40.46,0,0,0-6.71.42Z"/><path class="cls-2" d="M165.6,40.45l-5.73,12.7h-7.36l18.81-40.37h8.51l18.81,40.37H191l-5.88-12.7Zm18.16-4.07-5.48-11.62a76.25,76.25,0,0,1-2.87-7.37h-.16c-.82,2.34-1.64,4.85-2.78,7.31l-5.4,11.68Z"/><path class="cls-5" d="M111.05,51.9c-2.54,1-7.85,1.91-14.56,1.91-15.54,0-27.15-7.19-27.15-20.49,0-12.7,11.69-21.2,28.79-21.2,6.78,0,11.2,1.08,13.08,1.8l-1.8,4.25a33.13,33.13,0,0,0-11-1.68c-12.92,0-21.51,6.05-21.51,16.65,0,10,7.77,16.24,21.1,16.24a37.76,37.76,0,0,0,11.7-1.68Z"/><path class="cls-5" d="M120,13.26a112,112,0,0,1,13.66-.78c7,0,12.19,1.2,15.46,3.35A10,10,0,0,1,154,24.28a10.3,10.3,0,0,1-4.25,8.63c-3.84,2.93-9.89,4.43-16.85,4.43a33.1,33.1,0,0,1-5.72-.36V53.15H120Zm7.12,19.47a33.28,33.28,0,0,0,5.89.41c8.58,0,13.82-3.11,13.82-8.56s-5.24-8-13-8a40.46,40.46,0,0,0-6.71.42Z"/><path class="cls-5" d="M165.6,40.45l-5.73,12.7h-7.36l18.81-40.37h8.51l18.81,40.37H191l-5.88-12.7Zm18.16-4.07-5.48-11.62a76.25,76.25,0,0,1-2.87-7.37h-.16c-.82,2.34-1.64,4.85-2.78,7.31l-5.4,11.68Z"/><path class="cls-6" d="M111.05,51.9c-2.54,1-7.85,1.91-14.56,1.91-15.54,0-27.15-7.19-27.15-20.49,0-12.7,11.69-21.2,28.79-21.2,6.78,0,11.2,1.08,13.08,1.8l-1.8,4.25a33.13,33.13,0,0,0-11-1.68c-12.92,0-21.51,6.05-21.51,16.65,0,10,7.77,16.24,21.1,16.24a37.76,37.76,0,0,0,11.7-1.68Z"/><path class="cls-6" d="M120,13.26a112,112,0,0,1,13.66-.78c7,0,12.19,1.2,15.46,3.35A10,10,0,0,1,154,24.28a10.3,10.3,0,0,1-4.25,8.63c-3.84,2.93-9.89,4.43-16.85,4.43a33.1,33.1,0,0,1-5.72-.36V53.15H120Zm7.12,19.47a33.28,33.28,0,0,0,5.89.41c8.58,0,13.82-3.11,13.82-8.56s-5.24-8-13-8a40.46,40.46,0,0,0-6.71.42Z"/><path class="cls-6" d="M165.6,40.45l-5.73,12.7h-7.36l18.81-40.37h8.51l18.81,40.37H191l-5.88-12.7Zm18.16-4.07-5.48-11.62a76.25,76.25,0,0,1-2.87-7.37h-.16c-.82,2.34-1.64,4.85-2.78,7.31l-5.4,11.68Z"/></svg>