<svg xmlns="http://www.w3.org/2000/svg" viewBox="0 0 155.6 158.35"><defs><style>.cls-1{fill:#1d3c71;}.cls-2{fill:none;stroke:#1d3c71;stroke-miterlimit:10;stroke-width:2px;}.cls-3{fill:#936037;}</style></defs><g id="Calque_2" data-name="Calque 2"><g id="plus"><path class="cls-1" d="M8.15,0C8.22,0,7,3.54,6.88,3.74A15.2,15.2,0,0,1,0,10.63c5.49-1.76,13.5,0,19.29.1,7.58,0,15.17,0,22.73.74,23,2.12,42.8,12.39,57.68,30.87l.71-1.39C101.9,38,89.5,27.44,87.76,26A112.63,112.63,0,0,0,65.62,11.75C47.41,2.83,28,.19,8.15,0Z"/><path class="cls-1" d="M117.28,80.37s-17,22.73-20.32,28.71-19.7,45.75-39.74,45.39c0,0-12.68-1.2-17.69-26.11a65.8,65.8,0,0,0-23.37-38s17.81,22.12,20.76,38,8.62,30.34,20,30,20.7-7,26-15.13S106.88,89.3,117.28,80.37Z"/><ellipse class="cls-2" cx="92.28" cy="68.54" rx="27.41" ry="28.88"/><ellipse class="cls-2" cx="40.78" cy="66.34" rx="22.77" ry="23.99"/><ellipse class="cls-1" cx="36.92" cy="77.11" rx="11.74" ry="12.37"/><ellipse class="cls-1" cx="84.6" cy="60.45" rx="15.81" ry="16.66"/><path class="cls-3" d="M38.68,102.38s27.64,4.64,47,1a3,3,0,0,1,3.4,3.8c-1.79,7.51-7.37,21.21-24.2,21.21-23.17,0-26.83-13-26.83-13s25.85,9.42,39.27-3.25a.92.92,0,0,0-.68-1.61C69.53,111.42,49.2,112.92,38.68,102.38Z"/><g id="clean-guard"><path class="cls-3" d="M155.42,35.43c-.24-4.12-4.27-7.35-9-7.67-.86-.06-1.72-.07-2.68-.11V26.28c-3.49.59-7.06.27-10.57.92a2.81,2.81,0,0,1-1.23,0v.46c-7,.34-11.13,2.72-11.6,7.3-.45,4.35-.1,8.76-.1,13.24h19.51c0-1.41,0-2.75,0-4.08s-.13-2.64-2-2.6-1.94,1.42-1.92,2.69,0,2.55,0,3.94h-3.94c0-1.54,0-3,0-4.5,0-1.22-.56-2.32-2-2.07a3,3,0,0,0-1.81,2,23.63,23.63,0,0,0-.08,4.55h-3.75a94.57,94.57,0,0,1,.08-9.67c.24-2.25,2.72-3.83,5.45-3.88,5.32-.08,10.65-.09,16,0,3.33,0,5.68,2.13,5.82,5,.1,2.21,0,4.42,0,6.63V48.1h-3.94a23.46,23.46,0,0,0-.09-4.59c-.15-.76-1.23-1.37-1.88-2-.65.68-1.71,1.3-1.87,2.07a23.68,23.68,0,0,0-.09,4.65h11.82C155.48,43.81,155.67,39.61,155.42,35.43Z"/><path class="cls-3" d="M155.46,16.11a19.23,19.23,0,0,1-6.07,16.8c-9,8.36-14.18,8.33-23.2.07A18.43,18.43,0,0,1,120,18.74c0-2.92-.09-5.85.08-8.76a2.74,2.74,0,0,1,1.47-2c4.94-2,10-3.95,15-5.82a3.64,3.64,0,0,1,2.26,0C143.94,4,149,6,154.06,8a2.64,2.64,0,0,1,1.34,1.87C155.59,11.66,155.46,13.45,155.46,16.11Zm-7.16,1.1c-2.24-.21-4-.51-5.65-.5A2.43,2.43,0,0,1,140,15.06c-.58-1.41-1.36-2.74-2.26-4.5-.89,1.8-1.62,3.07-2.14,4.41a2.55,2.55,0,0,1-2.83,1.76,52.19,52.19,0,0,0-5.5.54c1.64,1.24,2.89,2.26,4.24,3.17,1.1.75,1.48,1.49,1,2.73A37.48,37.48,0,0,0,131.26,28a28,28,0,0,0,3.51-1.86c2.09-1.56,4-1.41,6.07.05A30.47,30.47,0,0,0,144.27,28,42.71,42.71,0,0,0,143,23.08a1.88,1.88,0,0,1,.88-2.56C145.29,19.56,146.6,18.5,148.3,17.21Z"/></g></g></g></svg>